SplineFontDB: 3.0
FontName: SPAphaimanee-Oblique
FullName: SP Aphaimanee Oblique
FamilyName: SP Aphaimanee
Weight: Book
Copyright: Copyright (c) 2006 by Department of Intellectual Property (DIP), Ministry of Commerce and Software Industry Promotion Agency (Public Organization) (SIPA). All rights reserved.
Version: 2.2
ItalicAngle: -12
UnderlinePosition: -35
UnderlineWidth: 30
Ascent: 800
Descent: 200
LayerCount: 2
Layer: 0 0 "Back"  1
Layer: 1 0 "Fore"  0
NeedsXUIDChange: 1
XUID: [1021 375 425136265 10825348]
FSType: 0
OS2Version: 3
OS2_WeightWidthSlopeOnly: 0
OS2_UseTypoMetrics: 1
CreationTime: 1158666780
ModificationTime: 1241004595
PfmFamily: 17
TTFWeight: 400
TTFWidth: 5
LineGap: 30
VLineGap: 0
Panose: 2 0 5 6 0 0 0 2 0 4
OS2TypoAscent: 0
OS2TypoAOffset: 1
OS2TypoDescent: 0
OS2TypoDOffset: 1
OS2TypoLinegap: 0
OS2WinAscent: -43
OS2WinAOffset: 1
OS2WinDescent: -196
OS2WinDOffset: 1
HheadAscent: -43
HheadAOffset: 1
HheadDescent: 196
HheadDOffset: 1
OS2SubXSize: 700
OS2SubYSize: 650
OS2SubXOff: 0
OS2SubYOff: 140
OS2SupXSize: 700
OS2SupYSize: 650
OS2SupXOff: 0
OS2SupYOff: 477
OS2StrikeYSize: 30
OS2StrikeYPos: 250
OS2FamilyClass: 773
OS2Vendor: 'IPTH'
Lookup: 4 0 0 "'frac' Diagonal Fractions in Latin lookup 0"  {"'frac' Diagonal Fractions in Latin lookup 0 subtable"  } ['frac' ('latn' <'dflt' > ) ]
Lookup: 6 0 0 "'liga' Standard Ligatures in Latin lookup 1"  {"'liga' Standard Ligatures in Latin lookup 1 subtable"  } ['liga' ('latn' <'dflt' > ) ]
Lookup: 6 0 0 "'liga' Standard Ligatures in Latin lookup 2"  {"'liga' Standard Ligatures in Latin lookup 2 subtable"  } ['liga' ('latn' <'dflt' > ) ]
Lookup: 6 0 0 "'liga' Standard Ligatures in Latin lookup 3"  {"'liga' Standard Ligatures in Latin lookup 3 subtable"  } ['liga' ('latn' <'dflt' > ) ]
Lookup: 6 0 0 "'liga' Standard Ligatures in Latin lookup 4"  {"'liga' Standard Ligatures in Latin lookup 4 subtable"  } ['liga' ('latn' <'dflt' > ) ]

StartChar: .notdef
Encoding: 65536 -1 0
Width: 733
VWidth: 1467
Flags: W
HStem: 0 51<147 595> 968 52<342 790>
LayerCount: 2
Fore
SplineSet
595 51 m 1
 790 968 l 1
 342 968 l 1
 147 51 l 1
 595 51 l 1
634 0 m 1
 86 0 l 1
 303 1020 l 1
 851 1020 l 1
 634 0 l 1
EndSplineSet
Validated: 1
EndChar

StartChar: numbersign
Encoding: 35 35 4
Width: 528
VWidth: 1467
Flags: W
HStem: 0 21G<117 160.667 289 332.758> 219 30<88 191 239 364 411 506> 427 32<154 261 309 434 482 571>
LayerCount: 2
Fore
SplineSet
447 459 m 1
 478 549 483 572 520 685 c 1
 557 685 l 1
 482 459 l 1
 578 459 l 1
 571 427 l 1
 469 427 l 1
 447 356 433 320 411 249 c 1
 512 249 l 1
 506 219 l 1
 400 219 l 1
 326 0 l 1
 289 0 l 1
 364 219 l 1
 227 219 l 1
 154 0 l 1
 117 0 l 1
 191 219 l 1
 82 219 l 1
 88 249 l 1
 203 249 l 1
 225 320 239 356 261 427 c 1
 147 427 l 1
 154 459 l 1
 274 459 l 1
 313 572 316 595 350 685 c 1
 384 685 l 1
 309 459 l 1
 447 459 l 1
376 249 m 1
 398 320 412 356 434 427 c 1
 296 427 l 1
 239 249 l 1
 376 249 l 1
EndSplineSet
Validated: 1
EndChar

StartChar: dollar
Encoding: 36 36 5
Width: 669
VWidth: 1467
Flags: W
HStem: -26 35<232.978 311 364 433.907> 688 31<381.531 464 517 562.727>
VStem: 95 49<73.9338 132> 195 48<432.435 572.422> 587 45<130.933 269.202> 634 47<571 634.644>
LayerCount: 2
Fore
SplineSet
443 371 m 1
 549 352 632 324 632 223 c 0
 632 55 481 -15 356 -26 c 1
 332 -139 l 1
 287 -139 l 1
 311 -26 l 1
 217 -24 95 11 95 132 c 1
 144 132 l 1
 151 32 261 11 319 9 c 1
 389 339 l 1
 303 353 195 372 195 483 c 0
 195 624 332 717 470 720 c 1
 493 828 l 1
 540 828 l 1
 517 719 l 1
 604 711 681 662 681 571 c 1
 634 571 l 1
 631 658 554 682 510 688 c 1
 443 371 l 1
464 690 m 1
 312 685 243 570 243 491 c 0
 243 427 295 394 398 379 c 1
 464 690 l 1
364 9 m 1
 489 22 587 109 587 210 c 0
 587 303 476 321 434 330 c 1
 364 9 l 1
EndSplineSet
Validated: 1
EndChar

StartChar: percent
Encoding: 37 37 6
Width: 852
VWidth: 1467
Flags: W
HStem: 1 21G<182 248.208> 20 40<613.112 705.723> 305 40<235.44 326.152> 384 41<671.098 762.118> 669 41<297.058 386.713>
VStem: 153 50<378.045 549.661> 415 54<457.686 640.427> 529 56<86.2663 270.027> 791 54<170.099 353.71>
LayerCount: 2
Fore
SplineSet
153 450 m 0x3f80
 153 581 252 710 353 710 c 0
 428 710 469 644 469 563 c 0
 469 439 376 305 266 305 c 0
 196 305 153 366 153 450 c 0x3f80
347 669 m 0
 282 669 203 553 203 454 c 0
 203 389 238 345 280 345 c 0
 334 345 415 438 415 547 c 0
 415 604 397 669 347 669 c 0
529 166 m 0
 529 285 620 425 730 425 c 0
 804 425 845 362 845 281 c 0
 845 166 766 20 648 20 c 0x7f80
 571 20 529 83 529 166 c 0
719 384 m 0
 663 384 585 288 585 171 c 0
 585 114 605 63 653 60 c 0
 721 60 791 158 791 267 c 0
 791 333 765 384 719 384 c 0
809 713 m 1
 232 1 l 1
 182 1 l 1xbf80
 759 713 l 1
 809 713 l 1
EndSplineSet
Validated: 1
EndChar

StartChar: ampersand
Encoding: 38 38 7
Width: 642
VWidth: 1467
Flags: W
HStem: -13 44<170.273 359.807> 0 21G<534 619> 685 38<358.18 480.184>
VStem: 61 49<90.7929 241.315> 223 46<444.532 599.399> 509 48<534.912 659.67>
LayerCount: 2
Fore
SplineSet
557 615 m 0xbc
 557 545 516 461 329 381 c 1
 448 216 465 192 504 150 c 1
 574 223 609 312 634 376 c 1
 683 376 l 1
 633 251 581 163 527 114 c 1
 575 54 l 2
 591 33 605 15 619 0 c 1
 554 0 l 1x7c
 514 45 526 43 492 81 c 1
 421 30 340 -13 233 -13 c 0
 128 -13 61 57 61 148 c 0
 61 245 125 335 257 395 c 1
 234 436 223 476 223 513 c 0
 223 607 304 723 437 723 c 0
 513 723 557 681 557 615 c 0xbc
423 685 m 256
 344 685 269 604 269 523 c 0
 269 497 278 467 306 412 c 1
 447 474 509 524 509 599 c 0
 509 642 486 685 423 685 c 256
279 364 m 1
 245 347 110 283 110 162 c 0
 110 86 167 31 256 31 c 0xbc
 344 31 420 72 468 113 c 1
 451 139 356 245 279 364 c 1
EndSplineSet
Validated: 1
EndChar

StartChar: quotesingle
Encoding: 39 39 8
Width: 190
VWidth: 1467
Flags: W
HStem: 496 236<210 213>
VStem: 174 104
LayerCount: 2
Fore
SplineSet
213 496 m 1
 174 496 l 1
 210 732 l 1
 278 732 l 1
 213 496 l 1
EndSplineSet
Validated: 1
EndChar

StartChar: parenleft
Encoding: 40 40 9
Width: 284
VWidth: 1467
Flags: W
VStem: 132 41<60.4697 359.916>
LayerCount: 2
Fore
SplineSet
189 343 m 0
 178 293 173 247 173 202 c 0
 173 100 201 8 261 -85 c 1
 220 -85 l 1
 201 -58 132 36 132 201 c 0
 132 244 137 291 148 343 c 0
 191 544 289 669 402 781 c 1
 446 781 l 1
 298 644 224 506 189 343 c 0
EndSplineSet
Validated: 1
EndChar

StartChar: parenright
Encoding: 41 41 10
Width: 284
VWidth: 1467
Flags: W
VStem: 246 42<331.388 632.838>
LayerCount: 2
Fore
SplineSet
201 781 m 1
 248 712 288 616 288 490 c 0
 288 446 283 399 272 348 c 256
 238 189 159 44 17 -85 c 1
 -24 -85 l 1
 84 22 189 150 231 348 c 256
 242 399 246 445 246 488 c 0
 246 610 207 701 160 781 c 1
 201 781 l 1
EndSplineSet
Validated: 1
EndChar

StartChar: asterisk
Encoding: 42 42 11
Width: 422
VWidth: 1467
Flags: W
HStem: 512 75<135.507 228.1 419.9 512.493>
LayerCount: 2
Fore
SplineSet
527 587 m 1
 511 512 l 1
 365 522 l 1
 426 409 l 1
 354 368 l 1
 313 493 l 1
 227 359 l 1
 167 393 l 1
 274 522 l 1
 121 512 l 1
 137 587 l 1
 277 578 l 1
 214 697 l 1
 286 737 l 1
 330 602 l 1
 420 741 l 1
 479 706 l 1
 374 577 l 1
 527 587 l 1
EndSplineSet
Validated: 1
EndChar

StartChar: plus
Encoding: 43 43 12
Width: 629
VWidth: 1467
Flags: W
HStem: 332 48<116 353 414 650>
LayerCount: 2
Fore
SplineSet
404 332 m 1
 349 73 l 1
 298 73 l 1
 353 332 l 1
 106 332 l 1
 116 380 l 1
 363 380 l 1
 417 635 l 1
 468 635 l 1
 414 380 l 1
 660 380 l 1
 650 332 l 1
 404 332 l 1
EndSplineSet
Validated: 1
EndChar

StartChar: comma
Encoding: 44 44 13
Width: 184
VWidth: 1467
Flags: W
HStem: -109 196 -12 21G<63 75.5>
VStem: 44 113<-3.37646 59.0259>
LayerCount: 2
Fore
SplineSet
44 13 m 0x60
 44 49 87 87 122 87 c 0
 144 87 157 68 157 48 c 0
 157 30 141 -18 109 -54 c 0
 86 -78 64 -97 44 -109 c 1
 11 -109 l 1xa0
 48 -86 87 -50 103 -4 c 1
 91 -10 80 -12 71 -12 c 0
 55 -12 44 -3 44 13 c 0x60
EndSplineSet
Validated: 1
EndChar

StartChar: hyphen
Encoding: 45 45 14
Width: 316
VWidth: 1467
Flags: W
HStem: 273 51<92 338>
VStem: 81 268
LayerCount: 2
Fore
SplineSet
81 273 m 1
 92 324 l 1
 349 324 l 1
 338 273 l 1
 81 273 l 1
EndSplineSet
Validated: 1
EndChar

StartChar: period
Encoding: 46 46 15
Width: 193
VWidth: 1467
Flags: W
HStem: -15 115<75.7971 127.88>
VStem: 58 89<3.0537 83.2041>
LayerCount: 2
Fore
SplineSet
58 26 m 0
 58 61 81 100 115 100 c 0
 132 100 147 87 147 61 c 0
 147 25 121 -15 91 -15 c 0
 69 -15 58 3 58 26 c 0
EndSplineSet
Validated: 1
EndChar

StartChar: slash
Encoding: 47 47 16
Width: 394
VWidth: 1467
Flags: W
HStem: 703 20G<487.953 547>
LayerCount: 2
Fore
SplineSet
11 -43 m 1
 -36 -43 l 1
 502 723 l 1
 547 723 l 1
 11 -43 l 1
EndSplineSet
Validated: 1
EndChar

StartChar: zero
Encoding: 48 48 17
Width: 698
VWidth: 1467
Flags: W
HStem: -3 29<287.782 426.51> 690 29<425.245 566.511>
VStem: 156 39<113.965 360.089> 644 42<340.129 616.261>
LayerCount: 2
Fore
SplineSet
156 221 m 0
 156 336 225 719 499 719 c 0
 647 719 686 621 686 509 c 0
 686 450 676 388 664 334 c 0
 608 72 450 -3 355 -3 c 0
 298 -3 156 21 156 221 c 0
496 690 m 0
 255 690 195 320 195 218 c 0
 195 55 290 26 362 26 c 0
 440 26 571 91 622 328 c 0
 637 399 644 458 644 505 c 0
 644 642 586 690 496 690 c 0
EndSplineSet
Validated: 1
EndChar

StartChar: one
Encoding: 49 49 18
Width: 698
VWidth: 1467
Flags: W
HStem: 0 21G<329 382.247>
VStem: 329 197
LayerCount: 2
Fore
SplineSet
469 654 m 1
 396 616 l 1
 404 654 l 1
 488 697 l 1
 526 697 l 1
 378 0 l 1
 329 0 l 1
 469 654 l 1
EndSplineSet
Validated: 1
EndChar

StartChar: two
Encoding: 50 50 19
Width: 698
VWidth: 1467
Flags: W
HStem: -1 35<163 557> 681 33<429.915 614.081>
VStem: 658 40<525.151 646.866>
LayerCount: 2
Fore
SplineSet
267 615 m 1
 357 677 431 714 527 714 c 0
 636 714 698 668 698 596 c 0
 698 504 622 409 377 207 c 2
 163 34 l 1
 566 33 l 1
 557 -1 l 1
 104 -1 l 1
 113 35 l 1
 130 50 151 68 179 90 c 2
 381 252 l 2
 587 418 658 524 658 593 c 0
 658 635 634 681 528 681 c 0
 478 681 416 679 258 572 c 1
 267 615 l 1
EndSplineSet
Validated: 1
EndChar

StartChar: three
Encoding: 51 51 20
Width: 698
VWidth: 1467
Flags: W
HStem: -4 29<204.034 392.287> 354 29<309.588 478.842> 673 30<358.694 559.001>
VStem: 578 47<161.146 303.789> 625 48<495.303 628.914>
LayerCount: 2
Fore
SplineSet
303 25 m 0
 413 25 578 93 578 238 c 0
 578 309 529 354 396 354 c 0
 372 354 355 352 355 352 c 2
 324 352 344 349 303 349 c 1
 311 384 l 1
 323 383 334 383 342 383 c 2
 360 383 l 2
 534 385 612 489 621 530 c 0
 624 543 625 556 625 567 c 0
 625 646 557 673 466 673 c 0
 398 673 350 658 288 640 c 1
 299 676 l 1
 386 694 420 703 474 703 c 0
 580 703 673 667 673 578 c 0
 673 568 671 557 669 546 c 0
 655 478 618 405 461 376 c 1
 460 373 l 1
 594 373 625 311 625 253 c 0
 625 92 451 -4 298 -4 c 0
 290 -4 188 4 147 25 c 1
 149 59 l 1
 206 37 238 25 303 25 c 0
EndSplineSet
Validated: 1
EndChar

StartChar: four
Encoding: 52 52 21
Width: 698
VWidth: 1467
Flags: W
HStem: 1 21G<447.286 491> 197 30<205 485 536 621> 683 20G<553.827 639>
LayerCount: 2
Fore
SplineSet
639 703 m 1
 617 597 609 570 581 438 c 2
 536 227 l 1
 627 227 l 1
 621 197 l 1
 530 197 l 1
 515 126 l 2
 504 76 501 52 491 3 c 1
 443 1 l 1
 485 197 l 1
 162 197 l 1
 170 236 l 1
 571 703 l 1
 639 703 l 1
491 227 m 1
 585 668 l 1
 205 227 l 1
 491 227 l 1
EndSplineSet
Validated: 1
EndChar

StartChar: five
Encoding: 53 53 22
Width: 698
VWidth: 1467
Flags: W
HStem: -9 31<155.673 390.485> 374 31<274.734 504.711> 666 37<513.427 718.324> 675 28<364 651.806>
VStem: 593 45<176.595 319.656>
LayerCount: 2
Fore
SplineSet
638 269 m 0xd8
 638 137 502 -9 269 -9 c 0
 223 -9 174 -3 124 9 c 1
 124 45 l 1
 198 25 249 22 281 22 c 0
 480 22 593 153 593 259 c 0
 593 313 557 374 388 374 c 0
 331 374 275 370 219 361 c 1
 329 703 l 1
 724 703 l 1xd8
 717 666 l 1xe8
 637 672 550 675 458 675 c 2
 364 675 l 1
 272 393 l 1
 343 402 387 405 415 405 c 0
 598 405 638 333 638 269 c 0xd8
EndSplineSet
Validated: 1
EndChar

StartChar: six
Encoding: 54 54 23
Width: 698
VWidth: 1467
Flags: W
HStem: -4 29<267.035 437.307> 375 36<352.527 547.876> 689 20G<447 579>
VStem: 138 47<88.6378 250.963> 604 43<171.926 329.14>
LayerCount: 2
Fore
SplineSet
647 263 m 0
 647 147 544 -4 351 -4 c 0
 252 -4 138 28 138 148 c 0
 138 163 139 179 143 197 c 0
 183 384 373 562 521 709 c 1
 579 709 l 1
 491 633 363 513 262 361 c 1
 292 378 367 411 451 411 c 0
 538 411 647 380 647 263 c 0
347 25 m 0
 533 25 604 173 604 259 c 0
 604 317 574 375 465 375 c 0
 394 375 297 351 221 289 c 1
 192 230 185 187 185 161 c 0
 185 80 244 25 347 25 c 0
EndSplineSet
Validated: 1
EndChar

StartChar: seven
Encoding: 55 55 24
Width: 698
VWidth: 1467
Flags: W
HStem: -1 21G<183 275.5> 665 36<284 675>
LayerCount: 2
Fore
SplineSet
675 671 m 1
 522 671 490 665 368 665 c 0
 338 665 307 665 277 666 c 1
 284 701 l 1
 720 701 l 1
 710 662 l 1
 415 259 319 131 232 -1 c 1
 183 -1 l 1
 420 320 l 1
 675 671 l 1
EndSplineSet
Validated: 1
EndChar

StartChar: eight
Encoding: 56 56 25
Width: 698
VWidth: 1467
Flags: W
HStem: -2 28<266.509 436.128> 348 30<329.209 504.534> 691 28<419.386 573.768>
VStem: 127 48<87.5458 238.047> 224 47<421.927 572.733> 602 43<145.747 291.912> 649 45<491.554 637.683>
LayerCount: 2
Fore
SplineSet
645 230 m 0
 645 64 475 -2 334 -2 c 0
 218 -2 127 45 127 147 c 0
 127 187 139 322 331 364 c 1
 297 371 224 402 224 487 c 0
 224 582 313 719 500 719 c 0
 622 719 694 659 694 577 c 0
 694 493 639 417 522 367 c 1
 626 343 645 276 645 230 c 0
412 378 m 0
 575 378 649 487 649 570 c 0
 649 644 591 691 500 691 c 0
 405 691 271 634 271 490 c 0
 271 425 311 378 412 378 c 0
427 348 m 0
 260 348 175 257 175 158 c 0
 175 54 278 26 348 26 c 0
 478 26 602 109 602 224 c 0
 602 283 567 348 427 348 c 0
EndSplineSet
Validated: 1
EndChar

StartChar: nine
Encoding: 57 57 26
Width: 698
VWidth: 1467
Flags: W
HStem: -1 21G<270 349.22> 295 37<297.181 496.047> 681 31<411.438 581.052>
VStem: 200 44<377.783 536.153> 663 48<455.27 618.129>
LayerCount: 2
Fore
SplineSet
200 444 m 0
 200 566 309 712 497 712 c 0
 593 712 711 680 711 558 c 0
 711 371 459 128 421 90 c 2
 329 -1 l 1
 270 -1 l 1
 378 92 466 185 537 276 c 2
 563 312 l 2
 572 323 579 334 586 345 c 1
 551 326 477 295 394 295 c 0
 312 295 200 326 200 444 c 0
501 681 m 0
 332 681 244 547 244 445 c 0
 244 387 276 332 384 332 c 0
 448 332 551 355 626 417 c 1
 656 474 663 519 663 544 c 0
 663 628 599 681 501 681 c 0
EndSplineSet
Validated: 1
EndChar

StartChar: colon
Encoding: 58 58 27
Width: 201
VWidth: 1467
Flags: W
HStem: 3 115<83.9844 134.888> 381 115<163.673 214.693>
VStem: 65 89<21.5544 100.263> 145 89<399.877 478.624>
LayerCount: 2
Fore
SplineSet
65 42 m 0xe0
 65 75 88 118 122 118 c 0
 142 118 154 102 154 78 c 0
 154 41 127 3 98 3 c 0
 77 3 65 19 65 42 c 0xe0
145 421 m 0xd0
 145 454 168 496 202 496 c 0
 222 496 234 479 234 456 c 0
 234 420 207 381 178 381 c 0
 157 381 145 397 145 421 c 0xd0
EndSplineSet
Validated: 1
EndChar

StartChar: semicolon
Encoding: 59 59 28
Width: 203
VWidth: 1467
Flags: W
HStem: -12 21G<63.5 75.5> 381 115<163.673 214.693>
VStem: 44 112<-3.30127 58.2283> 145 89<399.877 478.624>
LayerCount: 2
Fore
SplineSet
44 13 m 0xe0
 44 46 84 87 122 87 c 0
 143 87 156 71 156 50 c 0
 156 31 141 -19 109 -54 c 0
 86 -78 64 -97 44 -109 c 1
 11 -109 l 1
 48 -86 87 -50 103 -4 c 1
 91 -10 80 -12 71 -12 c 0
 56 -12 44 -3 44 13 c 0xe0
145 421 m 0xd0
 145 454 168 496 202 496 c 0
 222 496 234 479 234 456 c 0
 234 420 207 381 178 381 c 0
 157 381 145 397 145 421 c 0xd0
EndSplineSet
Validated: 1
EndChar

StartChar: less
Encoding: 60 60 29
Width: 517
VWidth: 1467
Flags: W
HStem: -7 21G<417.5 464>
LayerCount: 2
Fore
SplineSet
186 283 m 1
 326 238 431 107 471 48 c 1
 460 -7 l 1
 375 146 212 248 104 280 c 1
 260 332 451 441 583 574 c 1
 571 516 l 1
 394 370 265 308 186 283 c 1
EndSplineSet
Validated: 1
EndChar

StartChar: equal
Encoding: 61 61 30
Width: 629
VWidth: 1467
Flags: W
HStem: 180 47<83 617> 346 47<119 653>
LayerCount: 2
Fore
SplineSet
109 346 m 1
 119 393 l 1
 663 393 l 1
 653 346 l 1
 109 346 l 1
73 180 m 1
 83 227 l 1
 627 227 l 1
 617 180 l 1
 73 180 l 1
EndSplineSet
Validated: 1
EndChar

StartChar: greater
Encoding: 62 62 31
Width: 535
VWidth: 1467
Flags: W
HStem: -10 21G<71.2105 129>
LayerCount: 2
Fore
SplineSet
463 280 m 1
 364 312 243 413 178 515 c 1
 190 571 l 1
 256 439 409 327 546 283 c 1
 391 234 191 118 67 -10 c 1
 79 47 l 1
 214 164 370 252 463 280 c 1
EndSplineSet
Validated: 1
EndChar

StartChar: question
Encoding: 63 63 32
Width: 478
VWidth: 1467
Flags: W
HStem: 3 115<198.696 249.341> 441 26<185.813 228.536> 689 37<309.666 456.333>
VStem: 147 35<467.405 566.11> 179 90<21.855 99.5891> 231 37<182 196> 296 33<549.822 647.848> 499 43<503.488 651.401>
LayerCount: 2
Fore
SplineSet
329 608 m 0xf7
 329 531 254 441 199 441 c 0
 162 441 147 471 147 506 c 0
 147 611 268 726 400 726 c 0
 474 726 542 675 542 585 c 0
 542 505 495 435 423 392 c 0
 372 361 297 314 272 196 c 2
 268 180 l 1
 231 182 l 1
 231 206 245 254 273 304 c 0
 305 357 378 405 410 425 c 0
 490 486 499 557 499 585 c 0
 499 643 462 689 390 689 c 0
 356 689 328 679 303 668 c 1
 321 657 329 634 329 608 c 0xf7
275 649 m 0
 244 649 182 566 182 500 c 0
 182 479 190 467 203 467 c 0
 238 467 296 556 296 611 c 0
 296 633 288 649 275 649 c 0
179 43 m 0xeb
 179 73 202 118 236 118 c 0
 257 118 269 102 269 78 c 0
 269 41 241 3 212 3 c 0
 191 3 179 20 179 43 c 0xeb
EndSplineSet
Validated: 1
EndChar

StartChar: at
Encoding: 64 64 33
Width: 886
VWidth: 1467
Flags: W
HStem: -153 37<296.254 512.727> 2 32<343.312 486.745 608 651.538> 393 31<410.231 580.742> 547 35<473.15 678.473>
VStem: 104 40<32.5388 227.566> 283 37<53.8683 146.377> 568 40<38.3296 57> 618 43<244.761 365.257> 825 39<221.121 414.37>
LayerCount: 2
Fore
SplineSet
864 333 m 0
 864 137 701 6 604 6 c 0
 582 6 568 26 568 57 c 1
 539 35 466 2 400 2 c 0
 349 2 283 20 283 87 c 0
 283 96 284 104 286 114 c 0
 310 224 433 217 517 238 c 0
 604 260 618 291 618 317 c 0
 618 350 596 393 508 393 c 0
 459 393 397 377 352 357 c 1
 367 393 l 1
 411 414 461 424 508 424 c 0
 576 424 661 404 661 327 c 0
 661 319 660 310 658 301 c 2
 614 92 l 2
 611 78 608 61 608 49 c 0
 608 45 608 41 609 38 c 1
 694 44 825 154 825 321 c 0
 825 459 726 547 578 547 c 256
 347 547 144 332 144 129 c 0
 144 -10 246 -116 390 -116 c 0
 434 -116 509 -111 575 -75 c 1
 590 -104 l 1
 527 -136 460 -153 379 -153 c 0
 224 -153 104 -51 104 111 c 0
 104 317 295 582 593 582 c 0
 773 582 864 474 864 333 c 0
609 251 m 1
 583 234 550 216 511 210 c 2
 453 200 l 2
 381 187 320 158 320 95 c 0
 320 47 364 34 415 34 c 0
 450 34 498 44 540 72 c 2
 577 97 l 1
 609 251 l 1
EndSplineSet
Validated: 1
EndChar

StartChar: A
Encoding: 65 65 34
Width: 649
VWidth: 1467
Flags: W
HStem: 0 21G<42 97.5197 546.039 593> 229 39<215 534> 680 44<414.946 498.402>
VStem: 522 50<372.583 656.727> 547 46<0 145.727>
LayerCount: 2
Fore
SplineSet
536 229 m 1xe8
 197 229 l 1
 88 0 l 1
 42 0 l 1
 295 544 l 2
 326 608 371 724 471 724 c 0
 574 724 566 595 572 544 c 2xf0
 593 0 l 1
 547 0 l 1
 536 229 l 1xe8
534 268 m 1
 522 519 l 2
 518 627 510 680 461 680 c 0
 405 680 377 605 333 519 c 2
 215 268 l 1
 534 268 l 1
EndSplineSet
Validated: 1
EndChar

StartChar: B
Encoding: 66 66 35
Width: 660
VWidth: 1467
Flags: W
HStem: 0 38<150 462.665> 408 41<371 493.767> 675 37<284 560.465>
VStem: 590 48<162.965 328.155 530.671 649.005>
LayerCount: 2
Fore
SplineSet
634 603 m 0
 634 529 576 451 491 427 c 1
 569 409 638 360 638 264 c 0
 638 154 559 0 352 0 c 2
 97 0 l 1
 248 712 l 1
 521 712 l 2
 587 712 634 670 634 603 c 0
444 449 m 2
 505 449 589 514 589 592 c 0
 589 639 559 675 507 675 c 2
 284 675 l 1
 150 38 l 1
 370 38 l 2
 534 38 590 177 590 254 c 0
 590 346 508 400 436 408 c 2
 363 408 l 1
 371 449 l 1
 444 449 l 2
EndSplineSet
Validated: 1
EndChar

StartChar: C
Encoding: 67 67 36
Width: 632
VWidth: 1467
Flags: W
HStem: -9 35<254.211 451.135> 599 21G<647 700> 687 34<387.46 586.701>
VStem: 126 51<82.9539 177.185> 657 43<612.395 637.266>
LayerCount: 2
Fore
SplineSet
179 164 m 2
 178 158 177 152 177 145 c 0
 177 95 216 26 350 26 c 0
 372 26 498 29 554 114 c 1
 590 98 l 1
 538 25 429 -9 331 -9 c 0
 189 -9 126 60 126 124 c 0
 126 131 127 138 128 145 c 2
 218 568 l 2
 233 640 334 721 489 721 c 0
 587 721 680 687 700 615 c 1
 657 599 l 1
 637 684 512 687 490 687 c 0
 325 687 268 584 261 549 c 2
 179 164 l 2
EndSplineSet
Validated: 1
EndChar

StartChar: D
Encoding: 68 68 37
Width: 669
VWidth: 1467
Flags: W
HStem: 0 36<150 360.796> 681 36<287 445.109>
VStem: 626 45<330.787 562.538>
LayerCount: 2
Fore
SplineSet
98 0 m 1
 250 717 l 1
 450 717 671 711 671 472 c 0
 671 439 667 402 658 359 c 0
 596 65 435 0 218 0 c 2
 98 0 l 1
614 359 m 0
 622 398 626 433 626 463 c 0
 626 638 495 681 287 681 c 1
 150 37 l 1
 168 36 185 36 201 36 c 0
 477 36 569 144 614 359 c 0
EndSplineSet
Validated: 1
EndChar

StartChar: E
Encoding: 69 69 38
Width: 642
VWidth: 1467
Flags: W
HStem: -6 37<261.869 556> 321 40<221 514> 675 38<388.003 700>
VStem: 139 48<91.209 298.859>
LayerCount: 2
Fore
SplineSet
193 450 m 2
 237 660 335 710 510 713 c 2
 709 713 l 1
 700 675 l 1
 498 675 l 2
 336 675 269 586 243 467 c 2
 221 361 l 1
 523 361 l 1
 514 321 l 1
 212 321 l 1
 195 241 l 2
 190 217 187 195 187 174 c 0
 187 89 232 31 362 31 c 2
 564 31 l 1
 556 -6 l 1
 357 -6 l 2
 224 -1 139 23 139 154 c 0
 139 183 143 217 152 257 c 2
 193 450 l 2
EndSplineSet
Validated: 1
EndChar

StartChar: F
Encoding: 70 70 39
Width: 627
VWidth: 1467
Flags: W
HStem: -1 21G<98 148.308> 324 40<222 515> 678 38<390.338 703>
LayerCount: 2
Fore
SplineSet
194 453 m 2
 240 667 343 713 510 716 c 2
 711 716 l 1
 703 678 l 1
 500 678 l 2
 331 678 269 584 243 463 c 2
 222 364 l 1
 523 364 l 1
 515 324 l 1
 214 324 l 1
 144 -1 l 1
 98 -1 l 1
 194 453 l 2
EndSplineSet
Validated: 1
EndChar

StartChar: G
Encoding: 71 71 40
Width: 689
VWidth: 1467
Flags: W
HStem: -7 39<259.496 483.588> 358 40<507 577.055> 597 21G<655 708> 685 34<389.31 593.239>
VStem: 140 49<90.8142 295.914> 620 50<164.939 323.667> 664 44<610.455 635.527>
LayerCount: 2
Fore
SplineSet
670 271 m 0xfc
 670 152 584 -7 382 -7 c 0
 208 -7 140 42 140 156 c 0
 140 185 145 219 153 257 c 2
 218 566 l 2
 239 665 377 719 502 719 c 0
 599 719 689 686 708 613 c 1
 664 597 l 1xfa
 646 682 513 685 494 685 c 0
 326 685 270 584 261 548 c 2
 199 255 l 2
 193 226 189 199 189 174 c 0
 189 88 233 32 365 32 c 2
 400 32 l 2
 537 32 620 151 620 262 c 0
 620 345 552 352 498 358 c 1
 507 398 l 1
 632 398 670 342 670 271 c 0xfc
EndSplineSet
Validated: 1
EndChar

StartChar: H
Encoding: 72 72 41
Width: 658
VWidth: 1467
Flags: W
HStem: -3 21G<96 147.294 511 562.262> 323 39<221 581> 695 20G<244.738 296 659.751 711>
LayerCount: 2
Fore
SplineSet
664 715 m 1
 711 715 l 1
 558 -3 l 1
 511 -3 l 1
 581 323 l 1
 213 323 l 1
 143 -3 l 1
 96 -3 l 1
 249 715 l 1
 296 715 l 1
 221 362 l 1
 589 362 l 1
 664 715 l 1
EndSplineSet
Validated: 1
EndChar

StartChar: I
Encoding: 73 73 42
Width: 214
VWidth: 1467
Flags: W
HStem: 0 21G<76 126.268> 697 20G<223.76 275>
VStem: 76 199
LayerCount: 2
Fore
SplineSet
275 717 m 1
 122 0 l 1
 76 0 l 1
 228 717 l 1
 275 717 l 1
EndSplineSet
Validated: 1
EndChar

StartChar: J
Encoding: 74 74 43
Width: 491
VWidth: 1467
Flags: W
HStem: -13 38<175.884 295.073> 690 20G<492.762 544>
VStem: 93 49<56.0731 145>
LayerCount: 2
Fore
SplineSet
225 -13 m 0
 158 -13 93 22 93 104 c 0
 93 117 95 130 98 145 c 1
 144 145 l 1
 143 137 142 129 142 121 c 0
 142 61 180 25 233 25 c 0
 280 25 359 62 383 172 c 2
 497 710 l 1
 544 710 l 1
 424 148 l 2
 402 43 307 -13 225 -13 c 0
EndSplineSet
Validated: 1
EndChar

StartChar: K
Encoding: 75 75 44
Width: 685
VWidth: 1467
Flags: W
HStem: 0 20G<98 149.261 538 589.211> 696 20G<245.754 297 637.085 726>
VStem: 596 46<167.094 367.8>
LayerCount: 2
Fore
SplineSet
446 486 m 1
 571 473 642 419 642 305 c 0
 642 282 639 256 633 227 c 2
 585 -1 l 1
 538 -1 l 1
 588 224 l 2
 592 249 596 262 596 287 c 0
 596 413 486 443 399 447 c 1
 207 291 l 1
 145 0 l 1
 98 0 l 1
 250 716 l 1
 297 716 l 1
 221 359 l 1
 662 713 l 1
 726 713 l 1
 446 486 l 1
EndSplineSet
Validated: 1
EndChar

StartChar: L
Encoding: 76 76 45
Width: 616
VWidth: 1467
Flags: W
HStem: -1 38<259.861 559> 696 20G<244.762 296>
VStem: 140 48<95.8546 301.57>
LayerCount: 2
Fore
SplineSet
196 246 m 2
 191 221 188 198 188 178 c 0
 188 67 266 37 363 37 c 2
 567 37 l 1
 559 -1 l 1
 458 -1 l 2
 398 -1 378 0 358 0 c 0
 218 2 140 36 140 161 c 0
 140 190 145 223 153 263 c 2
 249 716 l 1
 296 716 l 1
 196 246 l 2
EndSplineSet
Validated: 1
EndChar

StartChar: M
Encoding: 77 77 46
Width: 836
VWidth: 1467
Flags: W
HStem: 0 21G<97 145.192 694 742.252> 695 20G<244.748 320 800.5 890>
LayerCount: 2
Fore
SplineSet
281 668 m 1
 141 0 l 1
 97 0 l 1
 249 715 l 1
 293 715 l 1
 347 686 464 586 517 465 c 1
 621 584 761 677 840 715 c 1
 890 715 l 1
 738 0 l 1
 694 0 l 1
 836 669 l 1
 782 655 542 461 499 387 c 1
 451 528 342 639 281 668 c 1
EndSplineSet
Validated: 1
EndChar

StartChar: N
Encoding: 78 78 47
Width: 721
VWidth: 1467
Flags: W
HStem: 0 14G<97 152.312 510.009 539.5> 695 20G<244.748 300.826 723.752 774>
LayerCount: 2
Fore
SplineSet
554 48 m 1
 577 54 590 68 608 150 c 2
 728 715 l 1
 774 715 l 1
 650 134 l 2
 626 18 561 -5 518 -7 c 1
 341 436 l 2
 302 536 282 585 278 603 c 1
 148 0 l 1
 97 0 l 1
 249 715 l 1
 293 715 l 1
 554 48 l 1
EndSplineSet
Validated: 1
EndChar

StartChar: O
Encoding: 79 79 48
Width: 705
VWidth: 1467
Flags: W
HStem: -16 37<261.685 454.006> 691 38<395.144 592.208>
VStem: 130 49<86.9437 203.5> 672 51<509.5 624.698>
LayerCount: 2
Fore
SplineSet
345 -16 m 0
 240 -16 130 31 130 136 c 0
 130 147 131 159 134 172 c 2
 212 541 l 2
 240 671 386 729 503 729 c 0
 611 729 723 684 723 577 c 0
 723 566 722 554 719 541 c 2
 641 172 l 2
 612 38 463 -16 345 -16 c 0
497 691 m 0
 395 691 277 634 253 521 c 2
 183 191 l 2
 180 179 179 167 179 156 c 0
 179 66 262 21 351 21 c 0
 454 21 573 76 598 191 c 2
 668 521 l 2
 671 533 672 545 672 556 c 0
 672 647 587 691 497 691 c 0
EndSplineSet
Validated: 1
EndChar

StartChar: P
Encoding: 80 80 49
Width: 669
VWidth: 1467
Flags: W
HStem: 0 21G<97 145.307> 274 40<209 506.047> 673 39<285 571.854>
VStem: 644 45<430.98 605.766>
LayerCount: 2
Fore
SplineSet
689 536 m 0
 689 364 544 274 407 274 c 2
 200 274 l 1
 141 0 l 1
 97 0 l 1
 248 712 l 1
 504 712 l 2
 569 712 689 677 689 536 c 0
416 314 m 2
 434 314 644 329 644 526 c 0
 644 639 553 673 501 673 c 2
 285 673 l 1
 209 314 l 1
 416 314 l 2
EndSplineSet
Validated: 1
EndChar

StartChar: Q
Encoding: 81 81 50
Width: 705
VWidth: 1467
Flags: W
HStem: -101 39<498.091 586> -14 36<266.097 408.458> 693 36<403.191 591.801>
VStem: 131 51<88.8606 204.585> 675 51<511.415 627.546>
LayerCount: 2
Fore
SplineSet
582 -62 m 2
 594 -62 l 1
 586 -101 l 1
 497 -101 431 -72 404 -10 c 1
 385 -13 366 -14 348 -14 c 0
 226 -14 131 42 131 139 c 0
 131 150 132 161 135 173 c 2
 213 543 l 2
 241 673 388 729 507 729 c 0
 615 729 726 683 726 579 c 0
 726 568 725 556 722 543 c 2
 644 173 l 2
 622 69 525 20 455 0 c 1
 467 -21 495 -62 582 -62 c 2
499 693 m 0
 399 693 280 635 256 522 c 2
 186 192 l 2
 183 180 182 168 182 157 c 0
 182 67 266 22 355 22 c 0
 458 22 576 77 601 192 c 2
 671 522 l 2
 674 534 675 546 675 557 c 0
 675 652 584 693 499 693 c 0
EndSplineSet
Validated: 1
EndChar

StartChar: R
Encoding: 82 82 51
Width: 642
VWidth: 1467
Flags: W
HStem: -3 21G<97 146.244 507 557.286> 343 40<223 434.379> 672 38<287 560.976>
VStem: 542 48<69.3432 261.945> 616 45<470.914 627.71>
LayerCount: 2
Fore
SplineSet
507 -3 m 1
 536 125 542 145 542 182 c 0
 542 303 439 339 306 343 c 2
 215 343 l 1
 142 -1 l 1
 97 -1 l 1
 248 710 l 1
 466 710 l 2
 569 710 661 681 661 571 c 0
 661 489 624 389 493 357 c 1
 568 325 590 265 590 203 c 0
 590 176 586 148 580 123 c 2
 553 -3 l 1
 507 -3 l 1
259 540 m 2
 248 488 239 457 223 383 c 1
 393 383 l 2
 476 390 616 390 616 558 c 0
 616 654 536 672 463 672 c 2
 287 672 l 1
 259 540 l 2
EndSplineSet
Validated: 1
EndChar

StartChar: S
Encoding: 83 83 52
Width: 695
VWidth: 1467
Flags: W
HStem: -16 35<241.437 447.104> 582 21G<643 693> 701 31<397.938 569.206>
VStem: 107 49<81.1052 144> 205 49<447.203 581.88> 598 46<139.823 282.734> 646 47<582 642.553>
LayerCount: 2
Fore
SplineSet
598 222 m 0
 598 412 205 282 205 494 c 0
 205 637 345 732 496 732 c 0
 584 732 691 697 693 582 c 1
 646 582 l 1
 640 677 554 701 483 701 c 0
 336 701 254 590 254 503 c 0
 254 325 644 451 644 236 c 0
 644 85 503 -16 334 -16 c 0
 211 -16 107 33 107 144 c 1
 156 144 l 1
 157 55 252 19 347 19 c 0
 479 19 598 105 598 222 c 0
EndSplineSet
Validated: 1
EndChar

StartChar: T
Encoding: 84 84 53
Width: 689
VWidth: 1467
Flags: W
HStem: 0 21G<314 365.245> 669 46<225 456 503 746>
LayerCount: 2
Fore
SplineSet
756 715 m 1
 746 668 l 1
 503 669 l 1
 361 0 l 1
 314 0 l 1
 456 669 l 1
 215 669 l 1
 225 715 l 1
 756 715 l 1
EndSplineSet
Validated: 1
EndChar

StartChar: U
Encoding: 85 85 54
Width: 705
VWidth: 1467
Flags: W
HStem: -15 37<264.847 457.206> 695 20G<245.756 297 707.755 759>
VStem: 131 51<88.7419 204.882>
LayerCount: 2
Fore
SplineSet
355 22 m 0
 458 22 576 77 601 192 c 2
 712 715 l 1
 759 715 l 1
 644 173 l 2
 616 41 464 -15 349 -15 c 0
 242 -15 131 31 131 137 c 0
 131 148 132 160 135 173 c 2
 250 715 l 1
 297 715 l 1
 186 192 l 2
 183 180 182 168 182 157 c 0
 182 67 266 22 355 22 c 0
EndSplineSet
Validated: 1
EndChar

StartChar: V
Encoding: 86 86 55
Width: 685
VWidth: 1467
Flags: W
HStem: -10 48<310.25 397.527> 695 20G<216 262.962 711.519 767>
VStem: 216 46<569.4 715> 237 50<62.3633 340.6>
LayerCount: 2
Fore
SplineSet
514 170 m 2xd0
 502 142 448 -10 337 -10 c 0
 231 -10 239 121 237 170 c 2xd0
 216 715 l 1
 262 715 l 1xe0
 287 195 l 2
 292 99 297 38 350 38 c 0
 381 38 409 58 447 137 c 2
 721 715 l 1
 767 715 l 1
 514 170 l 2xd0
EndSplineSet
Validated: 1
EndChar

StartChar: W
Encoding: 87 87 56
Width: 872
VWidth: 1467
Flags: W
HStem: -1 21G<186 275 585 669.882> 692 20G<217.102 262 872.5 943>
VStem: 186 56<60 154.969> 218 44<556.031 712>
LayerCount: 2
Fore
SplineSet
521 437 m 1xe0
 474 265 321 37 229 -1 c 1
 186 -1 l 1xe0
 218 712 l 1
 262 712 l 1xd0
 242 60 l 1
 403 193 485 442 545 566 c 1
 570 425 570 97 631 62 c 1
 738 322 847 581 898 712 c 1
 943 712 l 1
 662 -1 l 1
 619 -1 l 1
 551 30 519 236 519 383 c 0
 519 402 520 420 521 437 c 1xe0
EndSplineSet
Validated: 5
EndChar

StartChar: X
Encoding: 88 88 57
Width: 786
VWidth: 1467
Flags: W
HStem: -1 21G<98.6111 141 635 685.722> 696 20G<233 305.23 764.315 846>
LayerCount: 2
Fore
SplineSet
697 -1 m 1
 635 0 l 1
 455 320 l 1
 141 0 l 1
 79 -1 l 1
 432 359 l 1
 233 716 l 1
 294 716 l 1
 472 399 l 1
 784 716 l 1
 846 716 l 1
 494 359 l 1
 697 -1 l 1
EndSplineSet
Validated: 1
EndChar

StartChar: Y
Encoding: 89 89 58
Width: 679
VWidth: 1467
Flags: W
HStem: -3 21G<306 356.281> 692 20G<207 265.784 691.253 757>
LayerCount: 2
Fore
SplineSet
757 712 m 1
 468 340 l 2
 452 321 435 306 416 296 c 1
 352 -3 l 1
 306 -3 l 1
 370 295 l 1
 349 306 344 316 334 345 c 2
 207 712 l 1
 259 712 l 1
 375 370 l 2
 383 346 389 335 398 335 c 0
 407 335 418 345 433 364 c 2
 707 712 l 1
 757 712 l 1
EndSplineSet
Validated: 1
EndChar

StartChar: Z
Encoding: 90 90 59
Width: 752
VWidth: 1467
Flags: W
HStem: -1 49<186.224 648> 666 47<244 717>
LayerCount: 2
Fore
SplineSet
170 106 m 1
 175 58 211 48 250 48 c 2
 658 48 l 1
 648 -1 l 1
 224 -1 l 2
 134 -1 106 51 106 96 c 0
 106 103 107 110 108 117 c 1
 124 130 717 666 717 666 c 1
 234 668 l 1
 244 713 l 1
 800 713 l 1
 790 669 l 1
 170 106 l 1
EndSplineSet
Validated: 1
EndChar

StartChar: bracketleft
Encoding: 91 91 60
Width: 286
VWidth: 1467
Flags: W
HStem: -117 30<117 257> 694 29<283 430>
LayerCount: 2
Fore
SplineSet
72 -117 m 1
 251 723 l 1
 436 723 l 1
 430 694 l 1
 283 694 l 1
 117 -87 l 1
 264 -87 l 1
 257 -117 l 1
 72 -117 l 1
EndSplineSet
Validated: 1
EndChar

StartChar: backslash
Encoding: 92 92 61
Width: 390
VWidth: 1467
Flags: W
HStem: 702 20G<140 190.535>
VStem: 140 257
LayerCount: 2
Fore
SplineSet
140 722 m 1
 185 722 l 1
 397 -44 l 1
 356 -44 l 1
 140 722 l 1
EndSplineSet
Validated: 1
EndChar

StartChar: bracketright
Encoding: 93 93 62
Width: 284
VWidth: 1467
Flags: W
HStem: -117 30<-24 123> 694 29<148 289>
LayerCount: 2
Fore
SplineSet
-31 -117 m 1
 -24 -87 l 1
 123 -87 l 1
 289 694 l 1
 142 694 l 1
 148 723 l 1
 333 723 l 1
 154 -117 l 1
 -31 -117 l 1
EndSplineSet
Validated: 1
EndChar

StartChar: asciicircum
Encoding: 94 94 63
Width: 629
VWidth: 1467
Flags: W
HStem: 697 20G<434 462>
LayerCount: 2
Fore
SplineSet
437 588 m 1
 372 429 258 292 178 210 c 1
 124 210 l 1
 270 341 407 578 461 717 c 1
 463 611 483 375 586 210 c 1
 531 210 l 1
 440 397 437 533 437 588 c 1
EndSplineSet
Validated: 1
EndChar

StartChar: underscore
Encoding: 95 95 64
Width: 528
VWidth: 1467
Flags: W
HStem: -248 32<-52 469>
LayerCount: 2
Fore
SplineSet
-59 -248 m 1
 -52 -216 l 1
 476 -216 l 1
 469 -248 l 1
 -59 -248 l 1
EndSplineSet
Validated: 1
EndChar

StartChar: grave
Encoding: 96 96 65
Width: 316
VWidth: 1467
Flags: W
HStem: 527 207<286 332>
VStem: 257 75<684.034 734> 286 46<527 576.966>
LayerCount: 2
Fore
SplineSet
257 734 m 1xc0
 332 734 l 1xc0
 332 527 l 1
 286 527 l 1xa0
 257 734 l 1xc0
EndSplineSet
Validated: 1
EndChar

StartChar: a
Encoding: 97 97 66
Width: 560
VWidth: 1467
Flags: W
HStem: -13 39<149.216 324.498> -6 21G<450.5 467> 478 37<236.665 440.004>
VStem: 71 45<52.3481 165.403> 427 52<23.701 56> 490 53<307.045 438.557>
LayerCount: 2
Fore
SplineSet
479 299 m 1xbc
 438 274 403 256 355 248 c 2
 283 234 l 2
 152 209 116 160 116 104 c 0
 116 56 152 26 238 26 c 0
 286 26 344 44 392 76 c 2
 438 106 l 1
 479 299 l 1xbc
218 -13 m 0
 155 -13 71 7 71 95 c 0
 71 105 72 117 75 129 c 0
 104 263 251 258 362 283 c 0
 423 296 482 332 488 364 c 0
 489 370 490 376 490 382 c 0
 490 426 458 478 354 478 c 0
 297 478 222 460 156 431 c 1
 175 478 l 1
 225 500 284 515 348 515 c 0
 435 515 543 491 543 394 c 0
 543 384 541 374 539 362 c 2
 483 101 l 2
 480 88 479 77 479 68 c 0
 479 50 485 38 501 23 c 1
 486 10 473 3 461 -6 c 1x7c
 440 2 427 23 427 50 c 0
 427 56 l 1
 381 23 296 -13 218 -13 c 0
EndSplineSet
Validated: 1
Substitution2: "Single Substitution lookup 22 subtable" uni0E38
Substitution2: "Single Substitution lookup 22 subtable" uni0E38
EndChar

StartChar: b
Encoding: 98 98 67
Width: 630
VWidth: 1467
Flags: W
HStem: -6 37<253.904 413.643> 479 35<349.328 492.081> 684 20G<259.74 310>
VStem: 573 46<206.094 402.639>
LayerCount: 2
Fore
SplineSet
619 317 m 0
 619 195 528 -6 341 -6 c 0
 304 -6 242 2 201 34 c 2
 172 57 l 1
 162 28 139 3 113 -6 c 1
 102 7 94 11 86 25 c 1
 118 45 126 58 136 103 c 2
 264 704 l 1
 310 704 l 1
 255 446 l 1
 298 495 396 514 432 514 c 0
 537 514 619 440 619 317 c 0
333 31 m 0
 489 31 573 201 573 313 c 0
 573 417 504 479 426 479 c 0
 366 479 284 437 242 386 c 1
 183 107 l 1
 244 35 302 31 333 31 c 0
EndSplineSet
Validated: 1
Substitution2: "Single Substitution lookup 22 subtable" uni0E39
Substitution2: "Single Substitution lookup 22 subtable" uni0E39
EndChar

StartChar: c
Encoding: 99 99 68
Width: 619
VWidth: 1467
Flags: W
HStem: -5 34<249.307 432.467> 483 34<337.471 524.236>
VStem: 124 51<85.1529 176.714> 586 43<409.395 436.654>
LayerCount: 2
Fore
SplineSet
562 100 m 1
 489 -3 345 -5 322 -5 c 0
 179 -5 124 70 124 127 c 0
 124 133 125 139 126 145 c 2
 173 367 l 2
 189 443 299 517 433 517 c 0
 503 517 604 496 629 412 c 1
 586 396 l 1
 569 477 469 483 435 483 c 0
 302 483 228 403 216 348 c 2
 177 164 l 2
 176 157 175 151 175 144 c 0
 175 87 228 29 338 29 c 0
 372 29 475 35 527 116 c 1
 562 100 l 1
EndSplineSet
Validated: 1
Substitution2: "Single Substitution lookup 22 subtable" uni0E3A
Substitution2: "Single Substitution lookup 22 subtable" uni0E3A
EndChar

StartChar: d
Encoding: 100 100 69
Width: 595
VWidth: 1467
Flags: W
HStem: -6 37<228.466 389.594> 479 34<329.711 467.884> 684 20G<609.736 658>
VStem: 111 47<98.04 296.581> 476 49<25.6072 57>
LayerCount: 2
Fore
SplineSet
111 180 m 0
 111 368 260 513 404 513 c 0
 464 513 537 488 559 446 c 1
 614 704 l 1
 658 704 l 1
 530 103 l 2
 527 88 525 76 525 67 c 0
 525 48 531 38 546 25 c 1
 526 9 520 7 505 -6 c 1
 484 3 476 30 476 57 c 1
 437 34 l 2
 382 1 316 -6 279 -6 c 0
 146 -6 111 92 111 180 c 0
401 479 m 0
 283 479 158 350 158 192 c 0
 158 109 196 31 303 31 c 0
 336 31 394 35 487 107 c 1
 546 386 l 1
 524 434 462 479 401 479 c 0
EndSplineSet
Validated: 1
EndChar

StartChar: e
Encoding: 101 101 70
Width: 619
VWidth: 1467
Flags: W
HStem: -9 34<251.259 436.271> 220 40<199 536.842> 478 36<333.983 509.111>
VStem: 125 51<81.5484 172.571> 576 46<295.438 422.676>
LayerCount: 2
Fore
SplineSet
563 95 m 1
 491 -7 350 -9 325 -9 c 0
 193 -9 125 55 125 121 c 0
 125 128 126 134 127 141 c 2
 174 362 l 2
 192 447 320 514 425 514 c 0
 529 514 622 461 622 367 c 0
 622 357 620 346 618 334 c 0
 597 237 542 220 378 220 c 2
 191 220 l 1
 178 160 l 2
 177 154 176 148 176 141 c 0
 176 89 222 25 341 25 c 0
 382 25 477 32 527 112 c 1
 563 95 l 1
574 337 m 0
 576 345 576 353 576 360 c 0
 576 424 522 478 427 478 c 0
 312 478 229 401 217 343 c 2
 199 260 l 1
 436 260 l 2
 501 260 559 267 574 337 c 0
EndSplineSet
Validated: 1
EndChar

StartChar: f
Encoding: 102 102 71
Width: 369
VWidth: 1467
Flags: W
HStem: -25 21G<77 105.5> 465 40<251 357> 668 38<331.554 451>
LayerCount: 2
Fore
SplineSet
203 499 m 2
 236 653 286 706 435 706 c 2
 459 706 l 1
 451 668 l 1
 425 668 l 2
 327 668 279 633 256 528 c 2
 251 505 l 1
 365 505 l 1
 357 465 l 1
 243 465 l 1
 152 37 l 1
 141 7 119 -16 92 -25 c 1
 77 -12 l 2
 73 -8 68 -3 64 4 c 1
 92 22 104 35 114 82 c 2
 203 499 l 2
EndSplineSet
Validated: 1
EndChar

StartChar: g
Encoding: 103 103 72
Width: 595
VWidth: 1467
Flags: W
HStem: -224 36<231 364.392> -7 32<230.959 358.449> 474 37<299.277 464.021>
VStem: 97 45<102.781 296.978>
LayerCount: 2
Fore
SplineSet
97 185 m 0
 97 328 201 511 364 511 c 0
 480 511 511 478 544 447 c 1
 544 449 l 1
 555 477 575 501 603 511 c 1
 630 481 l 1
 597 459 588 444 580 403 c 2
 489 -23 l 2
 456 -181 406 -224 266 -224 c 2
 223 -224 l 1
 231 -188 l 1
 277 -188 l 2
 385 -188 420 -137 436 -60 c 2
 462 59 l 1
 423 21 360 -7 295 -7 c 0
 196 -7 97 49 97 185 c 0
382 474 m 0
 220 474 142 297 142 191 c 0
 142 80 223 25 295 25 c 0
 340 25 428 66 475 120 c 1
 534 399 l 1
 468 474 412 474 382 474 c 0
EndSplineSet
Validated: 1
EndChar

StartChar: h
Encoding: 104 104 73
Width: 591
VWidth: 1467
Flags: W
HStem: 0 22G<98 149.279 458 506.235> 470 45<350.582 500.38> 686 20G<241.5 258.5>
VStem: 229 53<610.983 675.345> 529 46<245.781 441.551>
LayerCount: 2
Fore
SplineSet
222 361 m 1
 268 456 333 515 452 515 c 0
 541 515 575 454 575 378 c 0
 575 355 572 332 567 308 c 2
 502 1 l 1
 458 1 l 1
 519 286 l 2
 526 318 529 344 529 367 c 0
 529 444 491 470 433 470 c 0
 303 470 225 323 194 229 c 2
 145 0 l 1
 98 0 l 1
 225 599 l 2
 228 612 229 623 229 632 c 0
 229 650 223 662 208 676 c 1
 224 692 235 696 248 706 c 1
 269 697 282 676 282 649 c 2
 282 644 l 1
 222 361 l 1
EndSplineSet
Validated: 1
EndChar

StartChar: i
Encoding: 105 105 74
Width: 246
VWidth: 1467
Flags: W
HStem: -26 21G<129 157> 584 115<233.057 282.888>
VStem: 103 54<3.6065 67.48> 213 89<602.638 679.393>
LayerCount: 2
Fore
SplineSet
138 -26 m 1
 120 -19 103 5 103 27 c 0
 103 30 103 32 104 35 c 2
 203 499 l 1
 251 499 l 1
 162 81 l 2
 159 65 157 53 157 44 c 0
 157 25 163 16 178 3 c 1
 171 -4 164 -9 157 -14 c 2
 138 -26 l 1
213 623 m 0
 213 658 239 699 271 699 c 0
 291 699 302 683 302 660 c 0
 302 622 275 584 246 584 c 0
 225 584 213 602 213 623 c 0
EndSplineSet
Validated: 1
EndChar

StartChar: j
Encoding: 106 106 75
Width: 313
VWidth: 1467
Flags: W
HStem: -226 40<-40 81.4094> 584 115<298.874 348.888>
VStem: 279 89<602.638 679.328>
LayerCount: 2
Fore
SplineSet
-14 -186 m 2
 120 -186 141 -119 162 -19 c 2
 272 499 l 1
 320 499 l 1
 210 -18 l 2
 181 -157 136 -226 -23 -226 c 2
 -48 -226 l 1
 -40 -186 l 1
 -14 -186 l 2
279 622 m 0
 279 654 302 699 337 699 c 0
 357 699 368 683 368 660 c 0
 368 622 341 584 312 584 c 0
 292 584 279 600 279 622 c 0
EndSplineSet
Validated: 1
EndChar

StartChar: k
Encoding: 107 107 76
Width: 559
VWidth: 1467
Flags: W
HStem: 1 21G<95 146.216 425 478.25> 482 20G<487.961 572> 687 20G<239 258>
VStem: 227 53<613.224 677.299> 465 50<91.6641 269.285>
LayerCount: 2
Fore
SplineSet
245 707 m 1
 271 697 280 670 280 653 c 0
 280 651 279 648 279 646 c 1
 195 248 l 1
 513 502 l 1
 572 502 l 1
 382 348 l 1
 465 335 515 297 515 217 c 0
 515 200 513 182 508 161 c 2
 474 1 l 1
 425 1 l 1
 461 168 l 2
 463 177 465 190 465 205 c 0
 465 247 446 303 343 314 c 1
 181 185 l 1
 142 0 l 1
 95 0 l 1
 223 600 l 2
 226 613 227 624 227 633 c 0
 227 651 221 663 205 678 c 1
 220 691 233 698 245 707 c 1
EndSplineSet
Validated: 1
EndChar

StartChar: l
Encoding: 108 108 77
Width: 240
VWidth: 1467
Flags: W
HStem: -26 21G<127.5 144.5> 684 20G<227 260>
VStem: 102 54<-6.54014 133.922> 227 55<610.545 674.393>
LayerCount: 2
Fore
SplineSet
247 704 m 1
 273 694 282 666 282 650 c 0
 282 647 281 645 281 643 c 1
 161 82 l 2
 158 67 156 55 156 46 c 0
 156 27 163 17 177 4 c 1
 162 -9 153 -14 136 -26 c 1
 119 -19 102 6 102 29 c 0
 102 31 102 34 103 37 c 2
 222 597 l 2
 225 613 227 625 227 634 c 0
 227 653 221 662 206 675 c 1
 214 682 221 687 227 692 c 1
 247 704 l 1
EndSplineSet
Validated: 1
EndChar

StartChar: m
Encoding: 109 109 78
Width: 724
VWidth: 1467
Flags: W
HStem: -8 7G<97 149.277 340 390.276 615 640> 470 39<317.538 403.017 562.379 648.107> 483 20G<184 216.5>
VStem: 186 54<411.667 473.346> 416 46<392 461.165> 589 50<-10.7898 125.352> 660 46<263.008 461.27>
LayerCount: 2
Fore
SplineSet
618 509 m 0xde
 671 509 706 479 706 401 c 0
 706 375 702 344 694 307 c 2
 644 72 l 2
 641 59 639 48 639 39 c 0
 639 23 645 12 660 -1 c 1
 653 -7 645 -12 640 -16 c 2
 622 -29 l 1
 608 -22 589 -0 589 21 c 0
 589 23 589 26 590 28 c 1
 644 283 l 2
 651 314 660 358 660 396 c 0
 660 437 649 470 611 470 c 0xde
 579 470 555 451 516 400 c 0
 461 328 433 223 417 144 c 2
 386 -1 l 1
 340 -1 l 1
 400 283 l 2
 407 316 416 360 416 396 c 0
 416 438 404 471 364 471 c 0
 325 471 286 430 237 329 c 0
 214 283 194 229 182 172 c 2
 145 -1 l 1
 97 -1 l 1
 181 395 l 2
 184 409 186 420 186 429 c 0
 186 449 178 460 164 474 c 1
 171 480 178 485 184 490 c 2
 204 503 l 1xbe
 229 493 240 465 240 448 c 0
 240 446 239 444 239 442 c 1
 225 377 l 1
 290 509 346 511 369 511 c 0
 449 511 462 449 462 410 c 0
 462 403 461 397 461 392 c 1
 529 505 592 509 618 509 c 0xde
EndSplineSet
Validated: 1
EndChar

StartChar: n
Encoding: 110 110 79
Width: 600
VWidth: 1467
Flags: W
HStem: -7 7G<95 148.255 483.5 514> 468 47<364.777 500.926> 485 20G<198 213>
VStem: 184 55<344.945 485.174> 463 50<0.607212 61> 529 46<242.156 440.199>
LayerCount: 2
Fore
SplineSet
452 515 m 256xdc
 541 515 575 454 575 378 c 0
 575 355 572 332 567 308 c 2
 519 78 l 2
 515 61 513 49 513 39 c 0
 513 23 518 13 532 0 c 1
 526 -6 520 -11 514 -16 c 2
 496 -28 l 1
 471 -18 463 7 463 22 c 0
 463 25 464 27 464 29 c 1
 519 285 l 2
 526 317 529 344 529 366 c 0
 529 444 490 468 432 468 c 0xdc
 319 468 232 331 184 188 c 2
 144 0 l 1
 95 0 l 1
 179 396 l 2
 183 412 184 424 184 434 c 0
 184 452 178 461 164 475 c 1
 179 487 192 497 204 505 c 1xbc
 222 496 239 474 239 451 c 0
 239 449 239 446 238 443 c 2
 212 318 l 1
 249 401 329 515 452 515 c 256xdc
EndSplineSet
Validated: 1
EndChar

StartChar: o
Encoding: 111 111 80
Width: 604
VWidth: 1467
Flags: W
HStem: -13 36<222.742 387.685> 474 35<309.372 477.262>
VStem: 102 50<80.8525 201.556> 549 49<239.984 414.198>
LayerCount: 2
Fore
SplineSet
562 172 m 2
 535 47 409 -13 297 -13 c 0
 197 -13 102 36 102 135 c 0
 102 146 103 159 106 172 c 2
 138 324 l 2
 165 450 293 509 405 509 c 0
 505 509 598 462 598 363 c 0
 598 351 597 338 594 324 c 2
 562 172 l 2
397 474 m 0
 302 474 204 413 181 307 c 2
 157 191 l 2
 154 177 152 164 152 151 c 0
 152 64 226 23 302 23 c 0
 384 23 496 75 521 191 c 2
 545 305 l 2
 548 319 549 331 549 343 c 0
 549 431 477 474 397 474 c 0
EndSplineSet
Validated: 1
EndChar

StartChar: p
Encoding: 112 112 81
Width: 619
VWidth: 1467
Flags: W
HStem: -5 33<250.704 382.198> 477 37<326.191 489.819>
VStem: 186 54<450 483.393> 558 46<207.559 409.223>
LayerCount: 2
Fore
SplineSet
604 331 m 0
 604 143 467 -5 301 -5 c 0
 254 -5 177 19 157 62 c 1
 104 -186 l 1
 55 -186 l 1
 181 406 l 2
 184 420 186 432 186 441 c 0
 186 461 178 471 164 484 c 1
 186 500 l 2
 194 506 200 510 206 514 c 1
 227 504 240 479 240 450 c 1
 297 490 344 514 446 514 c 0
 559 514 604 428 604 331 c 0
309 28 m 0
 426 28 558 153 558 315 c 0
 558 407 510 477 423 477 c 0
 388 477 324 476 229 402 c 1
 170 123 l 1
 192 67 263 28 309 28 c 0
EndSplineSet
Validated: 1
EndChar

StartChar: q
Encoding: 113 113 82
Width: 611
VWidth: 1467
Flags: W
HStem: -213 21G<456 472.5> -5 33<241.879 374.562> 477 37<312.412 474.974>
VStem: 111 46<106.815 301.809> 432 53<-181.394 -117.022>
LayerCount: 2
Fore
SplineSet
111 187 m 0
 111 317 208 514 379 514 c 0
 495 514 526 481 560 450 c 1
 562 463 580 497 619 514 c 1
 628 506 636 496 647 484 c 1
 613 462 607 447 598 406 c 2
 490 -104 l 2
 487 -120 485 -132 485 -142 c 0
 485 -160 491 -169 505 -182 c 1
 490 -196 480 -200 465 -213 c 1
 447 -204 432 -181 432 -157 c 2
 432 -150 l 1
 477 62 l 1
 436 18 358 -5 306 -5 c 0
 206 -5 111 55 111 187 c 0
386 477 m 0
 262 477 157 332 157 197 c 0
 157 84 236 28 310 28 c 0
 359 28 447 73 490 123 c 1
 549 402 l 1
 484 476 419 477 386 477 c 0
EndSplineSet
Validated: 1
EndChar

StartChar: r
Encoding: 114 114 83
Width: 365
VWidth: 1467
Flags: W
HStem: -26 21G<85.5 108.5> 467 36<320.044 408>
LayerCount: 2
Fore
SplineSet
385 505 m 2
 416 505 l 1
 408 467 l 1
 382 467 l 2
 268 467 210 312 188 209 c 2
 151 35 l 2
 148 20 126 -14 91 -26 c 1
 80 -18 72 -9 64 3 c 1
 99 26 104 38 113 81 c 2
 203 503 l 1
 247 503 l 1
 227 408 l 1
 279 479 331 505 385 505 c 2
EndSplineSet
Validated: 1
EndChar

StartChar: s
Encoding: 115 115 84
Width: 490
VWidth: 1467
Flags: W
HStem: -18 41<151.642 343.512> 475 43<256.849 443.588>
VStem: 72 50<51.4814 97> 148 52<303.494 420.53> 413 49<82.7573 202.389> 462 44<411 455.984>
LayerCount: 2
Fore
SplineSet
462 160 m 0
 462 53 359 -18 239 -18 c 0
 175 -18 72 3 72 97 c 1
 122 97 l 1
 126 38 176 23 253 23 c 0
 389 23 413 111 413 152 c 0
 413 205 367 231 278 244 c 0
 177 258 148 295 148 344 c 0
 148 457 252 518 355 518 c 0
 440 518 506 478 506 411 c 1
 462 411 l 1
 462 466 412 475 343 475 c 0
 230 475 200 401 200 351 c 0
 200 307 231 281 333 268 c 0
 408 258 462 229 462 160 c 0
EndSplineSet
Validated: 1
EndChar

StartChar: t
Encoding: 116 116 85
Width: 360
VWidth: 1467
Flags: W
HStem: -3 38<204.786 308> 464 38<251 357>
VStem: 128 47<61.2698 246.18> 226 53<532.016 675.595>
LayerCount: 2
Fore
SplineSet
182 179 m 2
 177 158 175 138 175 121 c 0
 175 67 202 35 290 35 c 2
 316 35 l 1
 308 -3 l 1
 284 -3 l 2
 171 -3 128 27 128 108 c 0
 128 135 133 167 141 205 c 2
 221 585 l 2
 224 599 226 610 226 619 c 0
 226 637 220 649 204 665 c 1
 219 676 232 686 245 694 c 1
 270 684 279 659 279 641 c 0
 279 638 279 635 278 632 c 2
 251 502 l 1
 365 502 l 1
 357 464 l 1
 243 464 l 1
 182 179 l 2
EndSplineSet
Validated: 1
EndChar

StartChar: u
Encoding: 117 117 86
Width: 592
VWidth: 1467
Flags: W
HStem: -16 37<232.938 370.488> 482 21G<199.732 251 548.714 600>
VStem: 129 51<69.7199 205.613> 456 52<16.6072 48>
LayerCount: 2
Fore
SplineSet
302 21 m 0
 361 21 461 72 487 194 c 2
 553 502 l 1
 600 502 l 1
 513 92 l 2
 510 77 508 65 508 56 c 0
 508 39 514 29 528 16 c 1
 521 10 514 5 508 0 c 1
 488 -12 l 1
 467 -1 456 22 456 48 c 1
 414 11 356 -16 292 -16 c 0
 206 -16 129 33 129 130 c 0
 129 144 131 159 134 175 c 2
 204 503 l 1
 251 503 l 1
 185 194 l 2
 181 177 180 161 180 146 c 0
 180 70 225 21 302 21 c 0
EndSplineSet
Validated: 1
EndChar

StartChar: v
Encoding: 118 118 87
Width: 473
VWidth: 1467
Flags: W
HStem: -10 38<218.01 264.739> 482 20G<158 205.352 460.32 516>
VStem: 164 47<29.0934 502>
LayerCount: 2
Fore
SplineSet
362 153 m 2
 324 76 301 -10 230 -10 c 256
 161 -10 169 52 164 136 c 2
 158 502 l 1
 205 502 l 1
 211 161 l 1
 211 155 l 2
 211 146 210 130 210 112 c 0
 210 74 214 28 238 28 c 0
 273 28 310 137 321 161 c 2
 469 502 l 1
 516 502 l 1
 362 153 l 2
EndSplineSet
Validated: 1
EndChar

StartChar: w
Encoding: 119 119 88
Width: 682
VWidth: 1467
Flags: W
HStem: 0 21G<139 208 456 531.873> 483 20G<160.125 208 667.749 722>
VStem: 139 54<54 160.045> 161 47<342.955 503>
LayerCount: 2
Fore
SplineSet
391 266 m 1xe0
 297 78 234 28 182 0 c 1
 139 0 l 1xe0
 161 503 l 1
 208 503 l 1xd0
 193 54 l 1
 266 96 345 254 417 393 c 1
 435 271 430 100 492 57 c 1
 676 503 l 1
 722 503 l 1
 524 0 l 1
 481 0 l 1
 431 30 407 67 391 266 c 1xe0
EndSplineSet
Validated: 5
EndChar

StartChar: x
Encoding: 120 120 89
Width: 536
VWidth: 1467
Flags: W
HStem: 0 21G<35 114.905 410.91 483> 482 20G<142 213.374 509.379 591>
LayerCount: 2
Fore
SplineSet
202 502 m 1
 322 291 l 1
 529 502 l 1
 591 502 l 1
 342 251 l 1
 483 0 l 1
 422 0 l 1
 305 211 l 1
 95 0 l 1
 35 0 l 1
 282 251 l 1
 142 502 l 1
 202 502 l 1
EndSplineSet
Validated: 1
EndChar

StartChar: y
Encoding: 121 121 90
Width: 592
VWidth: 1467
Flags: W
HStem: -226 40<237 362.003> -15 37<234.061 371.8> 483 20G<197.719 249>
VStem: 127 51<74.1271 206.52>
LayerCount: 2
Fore
SplineSet
303 22 m 0
 373 22 461 87 478 166 c 2
 543 472 l 2
 547 487 575 521 604 533 c 1
 618 520 l 1
 631 503 l 1
 598 482 591 469 582 427 c 2
 487 -18 l 2
 459 -149 421 -226 254 -226 c 2
 229 -226 l 1
 237 -186 l 1
 265 -186 l 2
 390 -186 416 -127 435 -38 c 2
 453 48 l 1
 444 40 380 -15 290 -15 c 0
 201 -15 127 39 127 134 c 0
 127 147 129 161 132 176 c 2
 202 503 l 1
 249 503 l 1
 183 195 l 2
 180 179 178 164 178 150 c 0
 178 74 224 22 303 22 c 0
EndSplineSet
Validated: 1
EndChar

StartChar: z
Encoding: 122 122 91
Width: 619
VWidth: 1467
Flags: W
HStem: -1 49<188.523 528> 456 47<199 552>
LayerCount: 2
Fore
SplineSet
538 48 m 1
 528 -1 l 1
 224 -1 l 2
 154 -1 107 35 107 92 c 0
 107 99 108 108 110 116 c 1
 116 121 130 132 153 150 c 2
 510 422 l 2
 531 438 546 450 552 456 c 1
 189 456 l 1
 199 503 l 1
 635 503 l 1
 626 459 l 1
 170 104 l 1
 171 91 178 78 188 66 c 0
 199 54 220 48 250 48 c 2
 538 48 l 1
EndSplineSet
Validated: 1
EndChar

StartChar: braceleft
Encoding: 123 123 92
Width: 255
VWidth: 1467
Flags: W
HStem: 715 35<364.726 403>
VStem: 117 43<-31.8522 190.5>
LayerCount: 2
Fore
SplineSet
226 -116 m 1
 202 -110 117 -84 117 42 c 0
 117 73 121 110 130 151 c 2
 153 260 l 1
 127 280 97 297 66 310 c 1
 102 322 141 343 175 362 c 1
 201 484 l 2
 219 568 246 631 283 672 c 0
 320 713 362 739 410 750 c 1
 403 715 l 1
 333 694 272 626 243 490 c 2
 216 364 l 2
 212 342 161 320 139 313 c 1
 187 295 194 275 194 263 c 0
 194 260 193 257 193 255 c 1
 170 144 l 2
 163 111 160 82 160 58 c 0
 160 -40 209 -68 234 -78 c 1
 226 -116 l 1
EndSplineSet
Validated: 1
EndChar

StartChar: bar
Encoding: 124 124 93
Width: 231
VWidth: 1467
Flags: W
VStem: 43 258
LayerCount: 2
Fore
SplineSet
43 -261 m 1
 266 791 l 1
 301 791 l 1
 78 -261 l 1
 43 -261 l 1
EndSplineSet
Validated: 1
EndChar

StartChar: braceright
Encoding: 125 125 94
Width: 262
VWidth: 1467
Flags: W
HStem: -116 38<-20 21.0298> 715 35<154.6 180.703>
VStem: 225 41<445.938 671.117>
LayerCount: 2
Fore
SplineSet
314 310 m 1
 278 297 240 279 206 260 c 1
 183 151 l 2
 165 66 136 2 100 -38 c 0
 61 -80 20 -105 -28 -116 c 1
 -20 -78 l 1
 17 -67 105 -27 141 144 c 2
 166 263 l 2
 170 283 217 304 244 313 c 1
 217 321 187 342 187 361 c 0
 187 362 187 363 187 364 c 2
 215 492 l 2
 222 526 225 555 225 581 c 0
 225 658 196 700 149 715 c 1
 156 750 l 1
 239 730 266 666 266 587 c 0
 266 555 262 520 254 484 c 2
 228 362 l 1
 268 332 295 317 314 310 c 1
EndSplineSet
Validated: 5
EndChar

StartChar: asciitilde
Encoding: 126 126 95
Width: 658
VWidth: 1467
Flags: W
HStem: 227 43<453.897 598.018> 332 42<186.999 313.216>
VStem: 107 26<227 260.478> 647 28<336.013 374>
LayerCount: 2
Fore
SplineSet
541 270 m 0
 588 270 634 311 647 374 c 1
 677 374 l 1
 675 364 l 2
 651 250 572 227 529 227 c 0
 404 227 324 332 245 332 c 0
 201 332 147 294 133 227 c 1
 104 227 l 1
 107 238 l 2
 128 339 206 374 253 374 c 0
 334 374 439 270 541 270 c 0
EndSplineSet
Validated: 1
EndChar

StartChar: uni0E33.alt1
Encoding: 65539 -1 96
Width: 422
VWidth: 1467
Flags: W
HStem: 0 21<282 328.275> 547 38<193.328 307.907> 717 25<-158.374 -98.6876> 864 24<-140.488 -80.7962>
VStem: -216 38<755.096 834.455> -60 36<773.076 849.546> 364 48<312.992 497.033>
LayerCount: 2
Back
SplineSet
271 593 m 0
 301.667 593 329 588 353 578 c 128
 377 568 396.5 554.5 411.5 537.5 c 128
 426.5 520.5 437.167 500.333 443.5 477 c 128
 449.833 453.667 450.333 428.667 445 402 c 2
 361 12 l 1
 317 12 l 1
 393 373 l 2
 399.667 401 401.667 425.5 399 446.5 c 128
 396.333 467.5 389.667 487 379 505 c 0
 356.333 538.333 320 555 270 555 c 0
 249.333 555 229.333 551.333 210 544 c 1
 229 590 l 1
 237 592 244.167 593 250.5 593 c 128
 260 593 260 593 271 593 c 0
-173 819 m 2
 -149.667 819 -130.833 810.667 -116.5 794 c 128
 -102.167 777.333 -97 757.333 -101 734 c 0
 -106.333 710 -119.5 689.833 -140.5 673.5 c 128
 -161.5 657.167 -184.667 649 -210 649 c 2
 -211 649 l 2
 -236.333 649 -256 657.167 -270 673.5 c 128
 -284 689.833 -289 710 -285 734 c 0
 -279.667 758 -266.333 778.167 -245 794.5 c 128
 -223.667 810.833 -200.333 819 -175 819 c 2
 -173 819 l 2
-202 673 m 2
 -195.333 673 -188.333 675 -181 679 c 128
 -173.667 683 -166.833 688 -160.5 694 c 128
 -154.167 700 -149 706.667 -145 714 c 128
 -141 721.333 -138 728 -136 734 c 1
 -134.667 745.333 -138 757.833 -146 771.5 c 128
 -154 785.167 -164.667 793 -178 795 c 1
 -179 795 l 2
 -187 795 -194.833 792.833 -202.5 788.5 c 128
 -210.167 784.167 -217.167 779 -223.5 773 c 128
 -229.833 767 -235.167 760.333 -239.5 753 c 128
 -243.833 745.667 -246.667 739.333 -248 734 c 2
 -250 728 -250.167 721.5 -248.5 714.5 c 128
 -246.833 707.5 -243.833 701.167 -239.5 695.5 c 128
 -235.167 689.833 -230.167 684.667 -224.5 680 c 128
 -218.833 675.333 -212 673 -204 673 c 2
 -202 673 l 2
EndSplineSet
Fore
Refer: 261 3634 N 1 0 0 1 0 0 2
Refer: 284 3661 N 1 0 0 1 -103 0 2
Validated: 1
EndChar

StartChar: quotedbl
Encoding: 34 34 97
Width: 318
VWidth: 1467
Flags: W
HStem: 525 207
VStem: 178 236
LayerCount: 2
Fore
SplineSet
355 525 m 1
 310 525 l 1
 339 732 l 1
 414 734 l 1
 355 525 l 1
223 525 m 1
 178 525 l 1
 207 732 l 1
 282 734 l 1
 223 525 l 1
EndSplineSet
Validated: 1
EndChar

StartChar: exclam
Encoding: 33 33 98
Width: 227
VWidth: 1467
Flags: W
HStem: 0 139<100.138 152.285> 705 20G<228.123 301>
VStem: 72 108<28.25 110.312>
LayerCount: 2
Fore
SplineSet
72 48 m 0
 72 94 107 139 141 139 c 0
 166 139 180 119 180 91 c 0
 180 44 146 1 111 0 c 0
 86 1 72 21 72 48 c 0
131 204 m 1
 232 725 l 1
 301 725 l 1
 178 204 l 1
 131 204 l 1
EndSplineSet
Validated: 1
EndChar

StartChar: uni0E4E.alt1
Encoding: 65540 -1 99
Width: 0
VWidth: 1467
Flags: W
HStem: 664 44<-205.265 -106.54> 697 20<-100 -89.5> 819 44<-114.812 -57> 970 44<-68.4711 85.5077>
VStem: -240 29<721.894 773.04> -150 31<872.417 924.469>
LayerCount: 2
Back
SplineSet
51 967 m 1
 32 933 l 1
 -35.3333 945 -74.3333 925 -85 873 c 0
 -91.6667 843 -75 827.333 -35 826 c 1
 -50 803 l 1
 -126 795.667 -168 767 -176 717 c 0
 -180 686.333 -149.333 674.667 -84 682 c 1
 -100 651 l 1
 -200.667 636.333 -246.667 655.667 -238 709 c 0
 -223.333 775 -177.667 812.667 -101 822 c 1
 -130.333 835.333 -142.667 855.667 -138 883 c 0
 -117.333 959.667 -54.3333 987.667 51 967 c 1
EndSplineSet
Fore
Refer: 285 3662 N 1 0 0 1 -77 0 2
Validated: 1
EndChar

StartChar: exclamdown
Encoding: 161 161 100
Width: 217
VWidth: 1467
Flags: W
HStem: 373 139<164.099 218>
VStem: 137 108<401 484.068>
LayerCount: 2
Fore
SplineSet
19 -210 m 1
 141 307 l 1
 188 307 l 1
 88 -210 l 1
 19 -210 l 1
245 465 m 0
 245 417 211 373 176 373 c 0
 151 373 137 393 137 421 c 0
 137 476 178 512 206 512 c 0
 220 512 245 502 245 465 c 0
EndSplineSet
Validated: 1
EndChar

StartChar: cent
Encoding: 162 162 101
Width: 626
VWidth: 1467
Flags: W
HStem: -18 21G<294 333.299> 91 35<261.673 317 359 457.375> 578 34<363.484 420 463 542.838> 700 20G<446.818 486>
VStem: 144 51<177.942 270.714> 606 43<503.395 532.472>
LayerCount: 2
Fore
SplineSet
582 194 m 1
 532 122 433 91 352 89 c 1
 329 -18 l 1
 294 -18 l 1
 317 91 l 1
 211 97 144 154 144 219 c 0
 144 225 144 232 146 239 c 2
 193 461 l 2
 206 523 295 601 428 610 c 1
 451 720 l 1
 486 720 l 1
 463 612 l 1
 554 610 631 573 649 506 c 1
 606 490 l 1
 590 571 489 578 456 578 c 1
 359 123 l 1
 392 123 498 130 547 210 c 1
 582 194 l 1
420 575 m 1
 277 555 242 469 236 442 c 2
 197 258 l 2
 196 253 195 247 195 240 c 0
 195 197 224 136 325 126 c 1
 420 575 l 1
EndSplineSet
Validated: 1
EndChar

StartChar: sterling
Encoding: 163 163 102
Width: 560
VWidth: 1467
Flags: W
HStem: -1 44<175 535> 321 41<168 288 328 498> 662 35<451.067 609.965>
VStem: 288 40<212.898 321 362 514.902>
LayerCount: 2
Fore
SplineSet
527 662 m 0
 447 662 328 610 328 375 c 2
 328 362 l 1
 505 362 l 1
 498 321 l 1
 326 321 l 1
 324 268 315 126 175 43 c 1
 544 43 l 1
 535 -1 l 1
 91 -1 l 1
 98 31 l 1
 182 72 282 144 288 321 c 1
 160 321 l 1
 168 362 l 1
 288 362 l 1
 288 379 l 2
 288 407 290 451 299 494 c 0
 323 607 419 697 535 697 c 0
 584 697 611 689 652 669 c 1
 628 637 l 1
 593 654 559 662 527 662 c 0
EndSplineSet
Validated: 1
EndChar

StartChar: currency
Encoding: 164 164 103
Width: 664
VWidth: 1467
Flags: W
HStem: 31 36<258.572 424.279> 518 36<345.415 514.175>
VStem: 141 48<123.596 245.556> 585 51<289.031 457.994>
LayerCount: 2
Fore
SplineSet
599 216 m 2
 591 178 572 148 553 123 c 1
 601 60 l 1
 569 34 l 1
 523 94 l 1
 465 48 395 31 338 31 c 0
 286 31 219 45 176 89 c 1
 107 31 l 1
 85 57 l 1
 155 119 l 1
 146 137 141 158 141 180 c 0
 141 191 142 203 145 216 c 2
 177 368 l 2
 186 410 204 446 234 475 c 1
 194 528 l 1
 229 558 l 1
 270 503 l 1
 326 543 394 554 441 554 c 0
 493 554 559 541 600 497 c 1
 671 556 l 1
 693 528 l 1
 621 468 l 1
 631 448 636 428 636 408 c 0
 636 395 634 382 631 368 c 2
 599 216 l 2
219 351 m 2
 194 235 l 2
 191 221 189 207 189 195 c 0
 189 107 263 67 339 67 c 0
 421 67 529 119 558 235 c 2
 582 349 l 2
 584 361 585 373 585 384 c 0
 585 473 515 518 434 518 c 0
 338 518 241 458 219 351 c 2
EndSplineSet
Validated: 1
EndChar

StartChar: yen
Encoding: 165 165 104
Width: 693
VWidth: 1467
Flags: W
HStem: -1 21G<318 369.186> 85 47<95 336 393 630> 251 47<130 371 428 665>
LayerCount: 2
Fore
SplineSet
481 342 m 2
 465 323 447 308 428 298 c 1
 675 298 l 1
 665 251 l 1
 418 251 l 1
 393 132 l 1
 640 132 l 1
 630 85 l 1
 383 85 l 1
 365 -1 l 1
 318 -1 l 1
 336 85 l 1
 85 85 l 1
 95 132 l 1
 346 132 l 1
 371 251 l 1
 120 251 l 1
 130 298 l 1
 378 298 l 1
 357 311 356 331 347 346 c 0
 331 379 310 431 278 519 c 2
 216 700 l 1
 269 700 l 1
 310 567 331 536 387 371 c 0
 395 348 401 336 411 336 c 0
 419 336 429 346 446 365 c 0
 455 376 682 654 717 700 c 1
 767 700 l 1
 624 518 l 1
 481 342 l 2
EndSplineSet
Validated: 1
EndChar

StartChar: brokenbar
Encoding: 166 166 105
Width: 224
VWidth: 1467
Flags: W
HStem: 695 20G<235.753 282>
VStem: 50 232
LayerCount: 2
Fore
SplineSet
161 343 m 1
 240 715 l 1
 282 715 l 1
 203 343 l 1
 161 343 l 1
50 -180 m 1
 129 192 l 1
 171 192 l 1
 92 -180 l 1
 50 -180 l 1
EndSplineSet
Validated: 1
EndChar

StartChar: section
Encoding: 167 167 106
Width: 544
VWidth: 1467
Flags: W
HStem: -63 41<162.989 358.036> 430 42<348.235 437.069> 672 41<322.961 499.365>
VStem: 86 50<3.58673 51> 162 51<258.942 376.318> 209 51<499.529 615.526> 426 50<34.8587 158.543> 474 48<277.5 397.909> 524 44<606 650.141>
LayerCount: 2
Fore
SplineSet
209 541 m 0xf480
 209 654 315 713 416 713 c 0
 494 713 568 677 568 606 c 1
 524 606 l 1
 523 624 520 672 412 672 c 0
 290 672 260 596 260 546 c 0
 260 513 279 486 348 471 c 1
 353 472 359 472 368 472 c 0
 436 472 522 447 522 355 c 0xf580
 522 311 505 242 418 202 c 1
 464 182 476 148 476 114 c 0
 476 1 364 -63 254 -63 c 0
 186 -63 86 -40 86 51 c 1
 136 51 l 1
 139 -8 184 -22 266 -22 c 0
 396 -22 426 55 426 105 c 0
 426 243 162 151 162 301 c 0xfa80
 162 387 228 437 276 455 c 1
 235 470 209 493 209 541 c 0xf480
352 222 m 1
 460 235 474 316 474 349 c 0
 474 386 453 412 383 430 c 1
 356 430 l 2
 245 430 213 357 213 308 c 0xf980
 213 240 287 231 352 222 c 1
EndSplineSet
Validated: 1
EndChar

StartChar: dieresis
Encoding: 168 168 107
Width: 316
VWidth: 1467
Flags: W
HStem: 587 109<167.978 219.125 356.606 406.552>
VStem: 151 85<602.33 679.414> 339 85<603.368 679.173>
LayerCount: 2
Fore
SplineSet
339 624 m 0
 339 659 365 696 393 696 c 0
 413 696 424 678 424 657 c 0
 424 623 398 587 370 587 c 256
 356 587 339 596 339 624 c 0
151 624 m 0
 151 656 173 696 206 696 c 0
 226 696 236 679 236 657 c 0
 236 627 214 587 182 587 c 256
 168 587 151 596 151 624 c 0
EndSplineSet
Validated: 1
EndChar

StartChar: copyright
Encoding: 169 169 108
Width: 831
VWidth: 1467
Flags: W
HStem: -20 37<290.609 542.801> 104 31<372.581 541.069> 566 32<456.86 625.966> 687 37<429.295 678.346>
VStem: 129 50<91.9121 253.375> 249 48<188.401 337.148> 687 41<496.268 519.84> 792 51<505.415 608.433>
LayerCount: 2
Fore
SplineSet
211 537 m 2
 235 649 388 724 558 724 c 0
 713 724 843 668 843 565 c 0
 843 556 842 547 840 537 c 2
 761 167 l 2
 737 53 581 -20 400 -20 c 0
 253 -20 129 39 129 140 c 0
 129 149 130 158 132 167 c 2
 211 537 l 2
182 186 m 2
 180 176 179 166 179 157 c 0
 179 55 308 17 408 17 c 0
 570 17 697 85 719 186 c 2
 789 516 l 2
 791 526 792 536 792 545 c 0
 792 651 659 687 557 687 c 0
 407 687 274 619 252 516 c 2
 182 186 l 2
544 566 m 0
 430 566 349 498 336 437 c 2
 299 264 l 2
 298 258 297 251 297 245 c 0
 297 184 361 135 453 135 c 0
 481 135 583 142 631 219 c 1
 665 202 l 1
 597 106 466 104 441 104 c 0
 304 104 249 174 249 229 c 0
 249 234 250 240 251 245 c 2
 296 456 l 2
 312 532 423 598 546 598 c 0
 569 598 700 595 728 499 c 1
 687 483 l 1
 675 538 615 566 544 566 c 0
EndSplineSet
Validated: 1
EndChar

StartChar: ordfeminine
Encoding: 170 170 109
Width: 369
VWidth: 1467
Flags: W
HStem: 276 33<157.366 286.209> 591 30<207.061 358.575>
VStem: 114 32<322.321 394.336> 344 35<301.374 321> 385 35<499.892 569.402>
LayerCount: 2
Fore
SplineSet
218 309 m 0
 291 309 332 347 350 359 c 1
 375 474 l 1
 294 421 281 447 190 415 c 0
 155 403 146 365 146 352 c 0
 146 332 160 309 218 309 c 0
393 301 m 1
 382 290 377 289 367 282 c 1
 352 287 344 303 344 321 c 1
 296 289 238 276 206 276 c 0
 170 276 114 290 114 349 c 0
 114 355 114 362 116 370 c 0
 140 486 300 438 372 503 c 0
 378 509 385 517 385 531 c 0
 385 553 370 591 296 591 c 0
 259 591 210 580 167 562 c 1
 180 597 l 1
 214 613 251 621 290 621 c 0
 347 621 420 604 420 541 c 0
 420 535 420 528 418 521 c 2
 382 351 l 2
 380 341 379 334 379 328 c 0
 379 315 384 309 393 301 c 1
EndSplineSet
Validated: 1
EndChar

StartChar: guillemotleft
Encoding: 171 171 110
Width: 648
VWidth: 1467
Flags: W
LayerCount: 2
Fore
SplineSet
158 266 m 1
 260 232 332 141 367 88 c 1
 355 32 l 1
 291 155 158 235 72 263 c 1
 201 305 348 391 453 496 c 1
 441 439 l 1
 299 319 216 284 158 266 c 1
383 266 m 1
 473 236 545 160 591 88 c 1
 579 32 l 1
 517 156 381 236 298 263 c 1
 396 295 549 368 677 496 c 1
 665 439 l 1
 529 323 441 284 383 266 c 1
EndSplineSet
Validated: 1
EndChar

StartChar: logicalnot
Encoding: 172 172 111
Width: 629
VWidth: 1467
Flags: W
HStem: 370 38<122 620>
LayerCount: 2
Fore
SplineSet
570 136 m 1
 620 370 l 1
 114 370 l 1
 122 408 l 1
 666 408 l 1
 608 136 l 1
 570 136 l 1
EndSplineSet
Validated: 1
EndChar

StartChar: registered
Encoding: 174 174 112
Width: 538
VWidth: 1467
Flags: W
HStem: 204 36<234.922 414.503> 453 39<310 409.749> 599 29<332 448.547> 695 31<328.593 493.931>
VStem: 117 43<299.419 418.556> 428 33<336.062 431.405> 460 32<512.078 588.697> 571 42<511.444 637.156>
LayerCount: 2
Fore
SplineSet
313 204 m 0xf9
 194 204 117 270 117 356 c 0
 117 367 119 378 121 389 c 2
 153 541 l 2
 180 666 308 726 420 726 c 0
 521 726 613 678 613 580 c 0
 613 568 612 555 609 541 c 2
 577 389 l 2
 550 264 425 204 313 204 c 0xf9
414 695 m 0
 315 695 215 640 193 534 c 2
 164 398 l 2
 161 386 160 375 160 365 c 0
 160 282 237 240 321 240 c 0
 413 240 515 290 536 392 c 2
 567 536 l 2
 570 548 571 560 571 570 c 0
 571 653 500 695 414 695 c 0
416 467 m 1
 451 451 461 423 461 395 c 0
 461 384 459 372 457 361 c 2
 445 304 l 1
 413 304 l 1
 424 359 l 2
 426 370 428 380 428 390 c 0xfd
 428 428 405 453 329 453 c 2
 301 453 l 1
 270 304 l 1
 237 304 l 1
 305 628 l 1
 404 628 l 2
 477 628 492 593 492 563 c 0xfb
 492 530 479 483 416 467 c 1
460 558 m 0xfb
 460 580 447 599 400 599 c 2
 332 599 l 1
 310 492 l 1
 375 492 l 2
 424 492 460 504 460 558 c 0xfb
EndSplineSet
Validated: 1
EndChar

StartChar: macron
Encoding: 175 175 113
Width: 316
VWidth: 1467
Flags: W
HStem: 625 41<177 401>
VStem: 168 242
LayerCount: 2
Fore
SplineSet
168 625 m 1
 177 666 l 1
 410 666 l 1
 401 625 l 1
 168 625 l 1
EndSplineSet
Validated: 1
EndChar

StartChar: degree
Encoding: 176 176 114
Width: 267
VWidth: 1467
Flags: W
HStem: 549 25<227.483 289.173> 695 24<247.798 306.234>
VStem: 171 38<586.137 665.566> 327 36<604.364 680.384>
LayerCount: 2
Fore
SplineSet
171 618 m 0
 171 667 221 719 285 719 c 0
 331 719 363 689 363 650 c 0
 363 601 311 549 250 549 c 0
 204 549 171 579 171 618 c 0
279 695 m 0
 248 695 209 654 209 627 c 0
 209 603 229 574 256 574 c 0
 289 574 327 614 327 641 c 0
 327 664 306 695 279 695 c 0
EndSplineSet
Validated: 1
EndChar

StartChar: plusminus
Encoding: 177 177 115
Width: 629
VWidth: 1467
Flags: W
HStem: 0 48<45 579> 335 46<116 353 407 650> 579 20G<404.78 453>
LayerCount: 2
Fore
SplineSet
397 335 m 1
 349 110 l 1
 305 110 l 1
 353 335 l 1
 106 335 l 1
 116 381 l 1
 363 381 l 1
 409 599 l 1
 453 599 l 1
 407 381 l 1
 660 381 l 1
 650 335 l 1
 397 335 l 1
35 0 m 1
 45 48 l 1
 589 48 l 1
 579 0 l 1
 35 0 l 1
EndSplineSet
Validated: 1
EndChar

StartChar: twosuperior
Encoding: 178 178 116
Width: 380
VWidth: 1467
Flags: W
HStem: 274 37<163 370> 600 21G<192.186 198> 662 39<262.933 399.73>
VStem: 410 41<566.204 652.063>
LayerCount: 2
Fore
SplineSet
163 311 m 1
 378 311 l 1
 370 274 l 1
 99 274 l 1
 107 311 l 1
 259 438 l 2
 385 548 410 580 410 615 c 0
 410 644 387 662 355 662 c 2
 327 662 l 2
 281 662 208 614 188 600 c 1
 197 643 l 1
 227 665 282 701 340 701 c 0
 396 701 451 685 451 627 c 0
 451 547 370 486 254 386 c 2
 192 334 l 2
 174 319 164 311 163 311 c 1
EndSplineSet
Validated: 1
EndChar

StartChar: threesuperior
Encoding: 179 179 117
Width: 377
VWidth: 1467
Flags: W
HStem: 273 33<142.84 292.421> 483 39<217 300.921> 663 37<208.091 382.293>
VStem: 365 39<358.756 449.838> 393 39<573.575 650.734>
LayerCount: 2
Fore
SplineSet
432 620 m 0xe8
 432 544 363 515 303 503 c 1
 303 502 l 1
 388 502 404 455 404 421 c 0
 404 351 328 273 226 273 c 0
 209 273 142 276 115 292 c 1
 121 332 l 1
 159 314 181 306 212 306 c 0
 284 306 365 346 365 407 c 0xf0
 365 436 344 483 228 483 c 2
 214 483 l 1
 217 522 l 1
 234 522 240 524 246 524 c 0
 293 524 393 551 393 619 c 0
 393 654 356 663 293 663 c 0
 274 663 264 663 196 643 c 1
 206 684 l 1
 251 693 278 700 316 700 c 0
 367 700 432 683 432 620 c 0xe8
EndSplineSet
Validated: 1
EndChar

StartChar: acute
Encoding: 180 180 118
Width: 311
VWidth: 1467
Flags: W
HStem: 518 207
VStem: 205 163
LayerCount: 2
Fore
SplineSet
251 518 m 1
 205 518 l 1
 293 725 l 1
 368 725 l 1
 251 518 l 1
EndSplineSet
Validated: 1
EndChar

StartChar: mu
Encoding: 181 181 119
AltUni2: 0003bc.ffffffff.0
Width: 619
VWidth: 1467
Flags: W
HStem: -4 36<224.806 366.786> 489 20G<200.762 244 565.793 611>
LayerCount: 2
Fore
SplineSet
296 32 m 0
 375 32 485 110 505 200 c 2
 570 509 l 1
 611 509 l 1
 530 125 l 2
 525 104 521 84 517 62 c 2
 506 0 l 1
 469 0 l 1
 487 98 l 1
 466 74 389 -4 275 -4 c 0
 206 -4 172 28 151 72 c 1
 84 -246 l 1
 45 -246 l 1
 205 509 l 1
 244 509 l 1
 183 219 l 2
 178 198 176 177 176 158 c 0
 176 86 210 32 296 32 c 0
EndSplineSet
Validated: 1
EndChar

StartChar: paragraph
Encoding: 182 182 120
Width: 560
VWidth: 1467
Flags: W
HStem: 663 50<461 574>
LayerCount: 2
Fore
SplineSet
140 416 m 0
 140 561 300 713 431 713 c 2
 624 713 l 1
 461 -51 l 1
 422 -51 l 1
 574 663 l 1
 461 663 l 1
 309 -51 l 1
 268 -51 l 1
 350 335 l 1
 323 320 284 305 244 305 c 0
 173 305 140 354 140 416 c 0
EndSplineSet
Validated: 1
EndChar

StartChar: periodcentered
Encoding: 183 183 121
Width: 337
VWidth: 1467
Flags: W
HStem: 252 190<192.246 282.654>
VStem: 139 195<303.906 388.315>
LayerCount: 2
Fore
SplineSet
139 327 m 0
 139 389 200 442 257 442 c 0
 302 442 334 411 334 366 c 0
 334 312 284 252 217 252 c 0
 174 252 139 283 139 327 c 0
EndSplineSet
Validated: 1
EndChar

StartChar: cedilla
Encoding: 184 184 122
Width: 313
VWidth: 1467
Flags: W
HStem: -203 32<22.9244 124.08> -79 27<127 173.033> -19 20G<141 159.741>
VStem: 177 27<-129.301 -84.7504>
LayerCount: 2
Fore
SplineSet
57 -171 m 0
 100 -171 177 -141 177 -103 c 0
 177 -84 153 -79 133 -79 c 0
 92 -79 84 -86 60 -97 c 1
 64 -90 62 -93 67 -88 c 2
 141 0 l 1
 179 1 l 1
 127 -53 l 1
 131 -53 136 -52 140 -52 c 0
 175 -52 204 -68 204 -100 c 0
 204 -159 122 -203 62 -203 c 0
 44 -203 28 -200 15 -192 c 1
 28 -164 l 1
 36 -168 46 -171 57 -171 c 0
EndSplineSet
Validated: 1
EndChar

StartChar: onesuperior
Encoding: 185 185 123
Width: 242
VWidth: 1467
Flags: W
VStem: 180 121
LayerCount: 2
Fore
SplineSet
261 663 m 1
 215 638 l 1
 220 663 l 1
 276 691 l 1
 301 691 l 1
 214 280 l 1
 180 280 l 1
 261 663 l 1
EndSplineSet
Validated: 1
EndChar

StartChar: ordmasculine
Encoding: 186 186 124
Width: 369
VWidth: 1467
Flags: W
HStem: 267 31<176.297 304.791> 594 28<238.879 357.336>
VStem: 102 36<331.136 463.148> 401 38<467.88 559.623>
LayerCount: 2
Fore
SplineSet
105 393 m 2
 127 497 l 2
 144 581 231 622 308 622 c 0
 376 622 439 589 439 522 c 0
 439 514 438 506 436 497 c 2
 414 393 l 2
 395 308 308 267 235 267 c 0
 167 267 102 301 102 368 c 0
 102 376 103 384 105 393 c 2
300 594 m 0
 247 594 175 563 157 481 c 2
 141 406 l 2
 139 397 138 389 138 381 c 0
 138 327 182 298 237 298 c 0
 284 298 365 325 382 406 c 2
 398 481 l 2
 400 490 401 499 401 507 c 0
 401 568 349 594 300 594 c 0
EndSplineSet
Validated: 1
EndChar

StartChar: guillemotright
Encoding: 187 187 125
Width: 432
VWidth: 1467
Flags: W
LayerCount: 2
Fore
SplineSet
245 72 m 1
 184 72 l 1
 390 266 l 1
 265 462 l 1
 328 462 l 1
 454 266 l 1
 245 72 l 1
88 72 m 1
 27 72 l 1
 233 266 l 1
 108 462 l 1
 171 462 l 1
 297 266 l 1
 88 72 l 1
EndSplineSet
Validated: 1
EndChar

StartChar: onequarter
Encoding: 188 188 126
Width: 802
VWidth: 1467
Flags: W
HStem: -15 21G<120 173.236> 117 31<525 669 707 750>
LayerCount: 2
Fore
SplineSet
271 662 m 1
 224 637 l 1
 230 662 l 1
 285 690 l 1
 311 690 l 1
 223 279 l 1
 189 279 l 1
 271 662 l 1
735 697 m 1
 157 -15 l 1
 120 -15 l 1
 697 697 l 1
 735 697 l 1
764 414 m 1
 707 148 l 1
 756 148 l 1
 750 117 l 1
 701 117 l 1
 677 3 l 1
 645 3 l 1
 669 117 l 1
 480 117 l 1
 485 139 l 1
 722 414 l 1
 764 414 l 1
675 148 m 1
 725 380 l 1
 525 148 l 1
 675 148 l 1
EndSplineSet
Validated: 1
LCarets2: 2 0 0 
Ligature2: "'frac' Diagonal Fractions in Latin lookup 0 subtable" one fraction four
Ligature2: "'frac' Diagonal Fractions in Latin lookup 0 subtable" one slash four
EndChar

StartChar: onehalf
Encoding: 189 189 127
Width: 884
VWidth: 1467
Flags: W
HStem: 3 37<566 774> 391 39<665.074 801.139>
VStem: 811 42<293.654 380.568>
LayerCount: 2
Fore
SplineSet
279 646 m 1
 233 621 l 1
 238 646 l 1
 293 673 l 1
 319 673 l 1
 232 263 l 1
 198 263 l 1
 279 646 l 1
743 681 m 1
 165 -31 l 1
 128 -31 l 1
 705 681 l 1
 743 681 l 1
566 40 m 1
 782 40 l 1
 774 3 l 1
 503 3 l 1
 511 40 l 1
 662 168 l 2
 701 202 811 287 811 344 c 0
 811 366 799 391 744 391 c 0
 716 391 672 385 591 329 c 1
 600 371 l 1
 629 392 685 430 742 430 c 0
 822 430 853 402 853 356 c 0
 853 291 807 239 656 114 c 2
 595 62 l 2
 576 48 567 40 566 40 c 1
EndSplineSet
Validated: 1
LCarets2: 2 0 0 
Ligature2: "'frac' Diagonal Fractions in Latin lookup 0 subtable" one fraction two
Ligature2: "'frac' Diagonal Fractions in Latin lookup 0 subtable" one slash two
EndChar

StartChar: threequarters
Encoding: 190 190 128
Width: 802
VWidth: 1467
Flags: W
HStem: -15 21G<191 243.236> 117 31<525 669 707 750> 273 31<135.104 306.257> 480 42<224 329.613> 663 37<215.679 390.959>
VStem: 376 36<362.6 450.931> 402 37<572.234 650.158>
LayerCount: 2
Fore
SplineSet
805 697 m 1xf8
 227 -15 l 1
 191 -15 l 1
 767 697 l 1
 805 697 l 1xf8
764 414 m 1
 707 148 l 1
 756 148 l 1
 750 117 l 1
 701 117 l 1
 677 3 l 1
 645 3 l 1
 669 117 l 1
 480 117 l 1
 485 139 l 1
 722 414 l 1
 764 414 l 1
675 148 m 1
 725 380 l 1
 525 148 l 1
 675 148 l 1
222 304 m 0
 355 304 376 388 376 415 c 0xfc
 376 445 351 480 231 480 c 2
 215 480 l 1
 224 522 l 1
 241 522 247 524 253 524 c 0
 371 524 402 586 402 620 c 0
 402 654 364 663 307 663 c 0
 267 663 255 657 203 643 c 1
 214 684 l 1
 276 696 288 700 318 700 c 0
 374 700 439 686 439 621 c 0xfa
 439 544 372 515 311 503 c 1
 311 502 l 1
 400 502 412 449 412 421 c 0xfc
 412 358 343 273 231 273 c 0
 209 273 153 277 122 292 c 1
 126 323 l 1
 168 304 192 304 222 304 c 0
EndSplineSet
Validated: 1
LCarets2: 2 0 0 
Ligature2: "'frac' Diagonal Fractions in Latin lookup 0 subtable" three fraction four
Ligature2: "'frac' Diagonal Fractions in Latin lookup 0 subtable" three slash four
EndChar

StartChar: questiondown
Encoding: 191 191 129
Width: 544
VWidth: 1467
Flags: W
HStem: -223 37<151.145 295.445> 36 26<379.094 421.347> 385 115<356.673 408.897>
VStem: 65 43<-148.977 -0.803123> 278 33<-144.926 -48.4354> 338 89<402.283 482.624> 339 37<256.203 321> 425 35<-63.1716 35.6515>
LayerCount: 2
Fore
SplineSet
278 -104 m 0xfb
 278 -34 348 62 408 62 c 0
 445 62 460 32 460 -3 c 0
 460 -98 348 -223 208 -223 c 0
 128 -223 65 -167 65 -82 c 0
 65 55 193 116 223 138 c 0
 311 199 327 261 339 323 c 1
 376 321 l 1
 376 297 358 245 335 200 c 0
 318 170 281 139 254 119 c 0
 228 99 108 36 108 -81 c 0
 108 -141 145 -186 215 -186 c 0
 249 -186 275 -178 304 -164 c 1
 286 -154 278 -130 278 -104 c 0xfb
333 -146 m 0
 365 -146 425 -61 425 3 c 0
 425 25 417 36 405 36 c 0
 373 36 311 -48 311 -109 c 0
 311 -130 318 -146 333 -146 c 0
427 463 m 0xfc
 427 426 405 385 371 385 c 0
 350 385 338 401 338 425 c 0
 338 458 361 500 395 500 c 0
 409 500 427 492 427 463 c 0xfc
EndSplineSet
Validated: 1
EndChar

StartChar: Aring
Encoding: 197 197 134
Width: 676
VWidth: 1467
Flags: W
HStem: 1 21G<60 115.52 564.039 610> 230 40<233 551> 678 48<457.245 516.339> 907 26<498.257 543.158>
VStem: 412 40<728.884 857.136> 555 38<777.888 900.637> 565 45<1 146.727>
LayerCount: 2
Fore
SplineSet
593 856 m 0xfc
 593 792 564 745 525 717 c 1
 581 697 590 634 590 546 c 2
 610 1 l 1
 565 1 l 1xfa
 554 230 l 1
 215 230 l 1
 106 1 l 1
 60 1 l 1
 312 546 l 2
 370 681 410 701 441 715 c 1
 431 723 412 744 412 784 c 0
 412 856 469 933 530 933 c 0
 557 933 593 915 593 856 c 0xfc
482 726 m 0
 511 726 555 786 555 853 c 0xfc
 555 898 529 907 522 907 c 0
 493 907 452 842 452 781 c 0
 452 750 463 726 482 726 c 0
551 270 m 1
 541 521 l 2
 535 603 538 678 482 678 c 0
 415 678 377 565 351 521 c 2
 233 270 l 1
 551 270 l 1
EndSplineSet
Validated: 1
EndChar

StartChar: AE
Encoding: 198 198 135
Width: 1115
VWidth: 1467
Flags: W
HStem: -10 36<730.406 1022> 219 39<297 607> 317 40<686 979> 667 48<595.343 683.708 846.16 1167>
VStem: 687 50<626 664.341>
LayerCount: 2
Fore
SplineSet
737 626 m 1
 766 658 816 709 975 709 c 2
 1175 709 l 1
 1167 671 l 1
 965 671 l 2
 873 671 752 648 716 489 c 2
 686 357 l 1
 988 357 l 1
 979 317 l 1
 677 317 l 1
 658 226 l 2
 653 204 651 184 651 167 c 0
 651 57 737 26 828 26 c 2
 1030 26 l 1
 1022 -10 l 1
 822 -10 l 2
 673 -10 640 30 621 67 c 1
 605 -10 l 1
 558 -10 l 1
 607 219 l 1
 268 219 l 1
 101 -10 l 1
 55 -10 l 1
 496 601 l 2
 548 673 605 715 661 715 c 0
 708 715 737 689 737 626 c 1
680 566 m 2
 685 589 687 607 687 621 c 0
 687 656 673 667 652 667 c 0
 602 667 562 617 523 564 c 2
 297 258 l 1
 615 258 l 1
 680 566 l 2
EndSplineSet
Validated: 1
EndChar

StartChar: Ccedilla
Encoding: 199 199 136
Width: 661
VWidth: 1467
Flags: W
HStem: -203 32<220.924 322.08> -79 27<325 371.033> -9 35<254.309 331> 599 21G<647 700> 687 34<387.46 586.701>
VStem: 126 51<82.9539 177.185> 375 27<-129.301 -84.7504> 657 43<612.395 637.266>
LayerCount: 2
Fore
SplineSet
179 164 m 2
 178 158 177 152 177 145 c 0
 177 95 216 26 350 26 c 0
 372 26 498 29 554 114 c 1
 590 98 l 1
 545 34 456 0 369 -7 c 1
 325 -53 l 1
 329 -53 334 -52 338 -52 c 0
 373 -52 402 -68 402 -100 c 0
 402 -159 320 -203 260 -203 c 0
 242 -203 226 -200 213 -192 c 1
 226 -164 l 1
 234 -168 244 -171 255 -171 c 0
 298 -171 375 -141 375 -103 c 0
 375 -84 351 -79 331 -79 c 0
 290 -79 282 -86 258 -97 c 1
 262 -90 260 -93 265 -88 c 2
 331 -9 l 2
 189 -9 126 60 126 124 c 0
 126 131 127 138 128 145 c 2
 218 568 l 2
 233 640 334 721 489 721 c 0
 587 721 680 687 700 615 c 1
 657 599 l 1
 637 684 512 687 490 687 c 0
 325 687 268 584 261 549 c 2
 179 164 l 2
EndSplineSet
Validated: 1
EndChar

StartChar: Eth
Encoding: 208 208 145
Width: 683
VWidth: 1467
Flags: W
HStem: -4 35<149 357.862> 327 40<76 168 220 422> 676 37<286 445.839>
VStem: 625 46<324.335 558.283>
LayerCount: 2
Fore
SplineSet
250 713 m 1
 492 713 671 686 671 469 c 0
 671 435 666 396 657 351 c 0
 596 67 439 -4 217 -4 c 2
 97 -4 l 1
 168 327 l 1
 68 327 l 1
 76 367 l 1
 176 367 l 1
 250 713 l 1
613 355 m 0
 621 393 625 427 625 458 c 0
 625 617 515 676 307 676 c 2
 286 676 l 1
 220 367 l 1
 430 367 l 1
 422 327 l 1
 212 327 l 1
 149 32 l 1
 164 31 179 31 193 31 c 0
 466 31 565 126 613 355 c 0
EndSplineSet
Validated: 1
EndChar

StartChar: multiply
Encoding: 215 215 152
Width: 629
VWidth: 1467
Flags: W
HStem: 0 21G<56.8571 128 533.066 569.571>
LayerCount: 2
Fore
SplineSet
549 0 m 1
 357 241 l 1
 357 241 178 93 78 0 c 1
 41 35 l 1
 329 277 l 1
 145 521 l 1
 189 556 l 1
 373 314 l 1
 659 556 l 1
 688 521 l 1
 401 277 l 1
 585 35 l 1
 549 0 l 1
EndSplineSet
Validated: 1
EndChar

StartChar: Oslash
Encoding: 216 216 153
Width: 696
VWidth: 1467
Flags: W
HStem: -7 29<291.373 429.104> 686 29<427.513 572.757>
VStem: 156 39<110.676 355.973> 646 41<339.726 607.451>
LayerCount: 2
Fore
SplineSet
156 213 m 0
 156 319 225 715 500 715 c 0
 536 715 596 709 628 676 c 1
 668 735 l 1
 713 735 l 1
 650 646 l 1
 664 620 687 586 687 500 c 0
 687 458 682 402 666 329 c 0
 611 70 454 -7 360 -7 c 0
 309 -7 262 12 227 40 c 1
 178 -31 l 1
 131 -31 l 1
 200 67 l 1
 166 112 156 163 156 213 c 0
501 686 m 0
 256 686 195 313 195 209 c 0
 195 152 208 119 222 97 c 1
 605 646 l 1
 584 672 552 686 501 686 c 0
363 22 m 0
 441 22 571 80 622 322 c 0
 639 402 646 457 646 499 c 0
 646 546 637 577 625 609 c 1
 246 66 l 1
 274 37 319 22 363 22 c 0
EndSplineSet
Validated: 1
EndChar

StartChar: Thorn
Encoding: 222 222 159
Width: 622
VWidth: 1467
Flags: W
HStem: 1 21G<97 149.342> 89 38<256.827 422.42> 575 34<358.803 496.442>
VStem: 578 47<299.661 500.769>
LayerCount: 2
Fore
SplineSet
625 414 m 0
 625 262 507 89 356 89 c 0
 255 89 224 115 178 153 c 1
 145 1 l 1
 97 1 l 1
 245 697 l 1
 293 697 l 1
 260 541 l 1
 304 590 401 609 438 609 c 0
 528 609 625 547 625 414 c 0
341 127 m 0
 497 127 578 297 578 410 c 0
 578 521 502 575 429 575 c 0
 375 575 292 534 247 481 c 1
 188 202 l 1
 249 130 308 127 341 127 c 0
EndSplineSet
Validated: 1
EndChar

StartChar: uni00DF
Encoding: 223 223 160
Width: 715
VWidth: 1467
Flags: W
HStem: -141 38<-28 86.2688> -19 38<296 510.739> 389 41<421 545.647> 656 37<374.385 610.656>
VStem: 640 48<144.356 310.488 511.896 630.585>
LayerCount: 2
Fore
SplineSet
684 585 m 0
 684 491 604 425 542 408 c 1
 627 388 688 337 688 246 c 0
 688 158 631 -19 402 -19 c 2
 288 -19 l 1
 296 19 l 1
 421 19 l 2
 578 19 640 151 640 235 c 0
 640 329 555 381 486 389 c 2
 413 389 l 1
 421 430 l 1
 494 430 l 2
 555 430 640 494 640 573 c 0
 640 620 609 656 556 656 c 2
 440 656 l 2
 379 656 329 625 304 508 c 2
 210 67 l 2
 174 -104 129 -141 -11 -141 c 2
 -36 -141 l 1
 -28 -103 l 1
 -3 -103 l 2
 120 -103 144 -36 166 65 c 2
 261 512 l 2
 289 644 352 693 437 693 c 2
 565 693 l 2
 644 693 684 647 684 585 c 0
EndSplineSet
Validated: 1
EndChar

StartChar: ae
Encoding: 230 230 167
Width: 962
VWidth: 1467
Flags: W
HStem: 3 40<169.895 350.953 586.06 767.755> 238 39<543 876.719> 494 38<257.314 466.315 670.341 856.538>
VStem: 97 45<68.2114 183.508> 918 46<312.016 442.432>
LayerCount: 2
Fore
SplineSet
377 532 m 0
 447 532 537 511 561 452 c 1
 610 498 689 531 768 531 c 0
 881 531 964 474 964 386 c 0
 964 375 962 364 960 353 c 0
 938 251 879 238 721 238 c 2
 535 238 l 1
 517 156 l 1
 518 140 531 43 684 43 c 0
 763 43 833 71 869 129 c 1
 906 113 l 1
 833 11 690 8 667 8 c 0
 522 8 487 88 486 92 c 1
 486 92 367 3 244 3 c 0
 189 3 97 22 97 112 c 0
 97 215 174 265 301 284 c 0
 432 304 516 330 516 398 c 0
 516 440 486 494 377 494 c 0
 302 494 226 468 181 447 c 1
 200 494 l 1
 252 517 312 532 377 532 c 0
769 496 m 0
 668 496 590 435 565 383 c 1
 543 277 l 1
 768 277 l 2
 843 277 901 282 916 355 c 0
 918 362 918 370 918 377 c 0
 918 435 871 496 769 496 c 0
262 43 m 0
 359 43 416 93 462 122 c 1
 503 313 l 1
 434 269 399 267 308 251 c 0
 172 226 142 171 142 118 c 0
 142 58 196 43 262 43 c 0
EndSplineSet
Validated: 1
EndChar

StartChar: ccedilla
Encoding: 231 231 168
Width: 578
VWidth: 1467
Flags: W
HStem: -203 32<189.924 291.08> -79 27<294 340.033> -5 34<234.988 304> 483 34<324.471 511.236>
VStem: 111 51<85.8174 176.714> 344 27<-129.301 -84.7504> 573 43<409.395 436.654>
LayerCount: 2
Fore
SplineSet
224 -171 m 0
 267 -171 344 -141 344 -103 c 0
 344 -84 320 -79 300 -79 c 0
 259 -79 251 -86 227 -97 c 1
 231 -90 229 -93 234 -88 c 2
 304 -5 l 1
 165 -3 111 71 111 127 c 0
 111 133 112 139 113 145 c 2
 160 367 l 2
 176 443 286 517 420 517 c 0
 490 517 591 496 616 412 c 1
 573 396 l 1
 556 477 456 483 422 483 c 0
 289 483 215 403 203 348 c 2
 164 164 l 2
 163 157 162 151 162 144 c 0
 162 87 215 29 325 29 c 0
 359 29 462 35 514 116 c 1
 549 100 l 1
 493 21 394 1 342 -3 c 1
 294 -53 l 1
 298 -53 303 -52 307 -52 c 0
 342 -52 371 -68 371 -100 c 0
 371 -159 289 -203 229 -203 c 0
 211 -203 195 -200 182 -192 c 1
 195 -164 l 1
 203 -168 213 -171 224 -171 c 0
EndSplineSet
Validated: 1
EndChar

StartChar: eth
Encoding: 240 240 177
Width: 664
VWidth: 1467
Flags: W
HStem: -9 30<254.539 425.734> 370 36<289.144 476.18> 684 20G<399 469>
VStem: 122 44<89.7132 260.83> 580 45<154.253 339.737>
LayerCount: 2
Fore
SplineSet
625 272 m 0
 625 42 448 -9 324 -9 c 0
 187 -9 122 70 122 164 c 0
 122 243 172 406 403 406 c 0
 474 406 532 381 569 357 c 1
 560 398 526 490 506 530 c 1
 354 468 l 1
 346 509 l 1
 487 565 l 1
 463 614 432 660 399 704 c 1
 458 704 l 1
 480 668 502 632 529 582 c 1
 665 637 l 1
 674 597 l 1
 547 546 l 1
 558 515 625 408 625 272 c 0
373 370 m 0
 208 370 166 243 166 171 c 0
 166 101 202 21 340 21 c 0
 460 21 580 99 580 262 c 0
 580 270 580 277 579 285 c 1
 530 347 439 370 373 370 c 0
EndSplineSet
Validated: 1
EndChar

StartChar: divide
Encoding: 247 247 184
Width: 629
VWidth: 1467
Flags: W
HStem: 51 115<309.715 361.016> 261 44<100 636> 403 115<384.715 435.304>
VStem: 291 89<69.8774 148.764> 366 89<421.562 500.764>
LayerCount: 2
Fore
SplineSet
90 261 m 1xe0
 100 305 l 1
 646 305 l 1
 636 261 l 1
 90 261 l 1xe0
291 89 m 0xf0
 291 129 317 166 347 166 c 0
 368 166 380 149 380 126 c 0
 380 90 354 51 323 51 c 0
 311 51 291 57 291 89 c 0xf0
366 441 m 0xe8
 366 481 392 518 422 518 c 0
 443 518 455 501 455 478 c 0
 455 448 432 403 398 403 c 0
 386 403 366 409 366 441 c 0xe8
EndSplineSet
Validated: 1
EndChar

StartChar: oslash
Encoding: 248 248 185
Width: 625
VWidth: 1467
Flags: W
HStem: -10 37<241.713 405.894> 477 36<328.386 489.369>
VStem: 120 49<83.5991 204.556> 565 50<298.243 418.552>
LayerCount: 2
Fore
SplineSet
184 25 m 1
 151 45 120 86 120 142 c 0
 120 153 121 164 123 175 c 2
 156 327 l 2
 182 450 307 513 421 513 c 0
 454 513 486 508 515 497 c 1
 561 565 l 1
 596 544 l 1
 549 480 l 1
 576 465 615 432 615 366 c 0
 615 354 614 341 611 327 c 2
 578 175 l 2
 552 51 422 -10 311 -10 c 0
 277 -10 245 -5 217 7 c 1
 173 -56 l 1
 139 -40 l 1
 184 25 l 1
198 310 m 2
 173 194 l 2
 170 180 169 167 169 156 c 0
 169 102 197 73 209 62 c 1
 490 462 l 1
 466 472 440 477 414 477 c 0
 320 477 221 417 198 310 c 2
319 27 m 0
 419 27 516 94 537 194 c 2
 561 308 l 2
 564 321 565 333 565 345 c 0
 565 384 550 419 522 442 c 1
 241 43 l 1
 260 33 288 27 319 27 c 0
EndSplineSet
Validated: 1
EndChar

StartChar: thorn
Encoding: 254 254 191
Width: 638
VWidth: 1467
Flags: W
HStem: -213 21G<53 106.259> -13 37<238.419 399.12> 472 34<337.403 477.516>
VStem: 558 46<202.501 396.219>
LayerCount: 2
Fore
SplineSet
604 309 m 0
 604 192 515 -13 326 -13 c 0
 219 -13 182 31 158 50 c 1
 102 -213 l 1
 53 -213 l 1
 246 694 l 1
 295 694 l 1
 240 439 l 1
 284 488 387 506 417 506 c 0
 530 506 604 424 604 309 c 0
320 24 m 0
 472 24 558 193 558 306 c 0
 558 405 495 472 410 472 c 0
 362 472 276 439 228 379 c 1
 168 100 l 1
 226 27 289 24 320 24 c 0
EndSplineSet
Validated: 1
EndChar

StartChar: Lslash
Encoding: 321 321 193
Width: 517
VWidth: 1467
Flags: W
HStem: 0 50<153 491> 482 20G<368.346 397.636> 690 20G<229.747 293>
LayerCount: 2
Fore
SplineSet
83 0 m 1
 149 310 l 1
 38 241 l 1
 49 293 l 1
 160 362 l 1
 234 710 l 1
 293 710 l 1
 227 398 l 1
 402 502 l 1
 390 447 l 1
 215 345 l 1
 153 50 l 1
 502 50 l 1
 491 0 l 1
 83 0 l 1
EndSplineSet
Validated: 1
EndChar

StartChar: lslash
Encoding: 322 322 194
Width: 237
VWidth: 1467
Flags: W
HStem: 0 21G<83 145.23> 482 20G<314.5 318.714>
VStem: 69 254
LayerCount: 2
Fore
SplineSet
222 383 m 1
 141 0 l 1
 83 0 l 1
 156 343 l 1
 69 280 l 1
 80 336 l 1
 167 396 l 1
 244 756 l 1
 302 756 l 1
 235 442 l 1
 305 490 306 489 323 502 c 1
 311 446 l 1
 222 383 l 1
EndSplineSet
Validated: 1
EndChar

StartChar: OE
Encoding: 338 338 195
Width: 1016
VWidth: 1467
Flags: W
HStem: -16 35<230.999 433.184 656.703 934> 315 40<599 893> 669 38<765.79 1079> 679 34<361.668 565.431>
VStem: 105 51<77.0566 170.109> 518 48<89.9553 296.359>
LayerCount: 2
Fore
SplineSet
664 638 m 1xdc
 696 670 743 705 888 707 c 2
 1087 707 l 1
 1079 669 l 1
 877 669 l 2xec
 708 669 646 572 622 460 c 2
 599 355 l 1
 901 355 l 1
 893 315 l 1
 591 315 l 1
 574 235 l 2
 569 212 566 189 566 167 c 0
 566 87 607 25 740 25 c 2
 942 25 l 1
 934 -12 l 1
 735 -12 l 2
 591 -8 560 27 541 59 c 1
 475 1 384 -16 315 -16 c 0
 170 -16 105 53 105 118 c 0
 105 125 106 131 107 138 c 2
 197 560 l 2
 216 647 334 713 471 713 c 0
 558 713 630 686 664 638 c 1xdc
633 602 m 1
 613 657 538 679 466 679 c 0xdc
 300 679 247 574 240 541 c 2
 158 157 l 2
 157 151 156 144 156 138 c 0
 156 85 198 19 329 19 c 0
 401 19 479 41 525 95 c 1
 520 112 518 131 518 151 c 0
 518 181 522 214 530 251 c 2
 572 445 l 2
 585 509 604 561 633 602 c 1
EndSplineSet
Validated: 1
EndChar

StartChar: oe
Encoding: 339 339 196
Width: 1009
VWidth: 1467
Flags: W
HStem: -14 36<220.184 389.755 627.782 817.672> 216 39<582 919.703> 472 36<307.384 478.442 713.211 896.393>
VStem: 104 49<80.1174 199.75> 960 45<289.027 420.058>
LayerCount: 2
Fore
SplineSet
1001 329 m 0
 980 231 924 216 762 216 c 2
 574 216 l 1
 561 156 l 2
 560 150 559 143 559 137 c 0
 559 84 603 21 724 21 c 0
 761 21 858 26 911 107 c 1
 946 91 l 1
 874 -11 730 -14 707 -14 c 0
 583 -14 531 46 517 78 c 1
 464 16 375 -14 298 -14 c 0
 163 -14 104 64 104 139 c 0
 104 150 105 160 107 170 c 2
 140 323 l 2
 167 451 298 508 407 508 c 0
 485 508 560 478 588 415 c 1
 611 440 688 509 808 509 c 0
 922 509 1005 452 1005 362 c 0
 1005 352 1003 341 1001 329 c 0
810 474 m 0
 697 474 612 397 600 339 c 2
 582 255 l 1
 796 255 l 2
 885 255 942 258 958 333 c 0
 960 341 960 348 960 356 c 0
 960 418 907 474 810 474 c 0
396 472 m 0
 315 472 207 425 182 305 c 2
 157 189 l 2
 154 176 153 163 153 151 c 0
 153 69 217 22 301 22 c 0
 395 22 496 81 521 186 c 2
 546 307 l 2
 548 319 550 331 550 342 c 0
 550 426 481 472 396 472 c 0
EndSplineSet
Validated: 1
EndChar

StartChar: florin
Encoding: 402 402 202
Width: 431
VWidth: 1467
Flags: W
HStem: 377 35<125 212 271 398> 662 38<398.212 521>
LayerCount: 2
Fore
SplineSet
533 700 m 1
 521 662 l 1
 494 662 l 2
 372 662 334 605 300 499 c 2
 271 412 l 1
 406 412 l 1
 398 377 l 1
 259 377 l 1
 120 -28 l 2
 113 -45 84 -79 51 -89 c 1
 38 -77 l 2
 33 -72 29 -67 25 -60 c 1
 56 -40 76 -22 90 18 c 2
 212 377 l 1
 117 377 l 1
 125 412 l 1
 224 412 l 1
 252 493 l 2
 302 645 357 700 508 700 c 2
 533 700 l 1
EndSplineSet
Validated: 1
EndChar

StartChar: circumflex
Encoding: 710 710 203
Width: 490
VWidth: 1467
Flags: W
HStem: 697 160
VStem: 245 283
LayerCount: 2
Fore
SplineSet
407 789 m 1
 393 768 346 722 308 697 c 1
 245 697 l 1
 282 718 384 793 420 857 c 1
 433 800 486 736 528 697 c 1
 465 697 l 1
 458 704 429 727 407 789 c 1
EndSplineSet
Validated: 1
EndChar

StartChar: caron
Encoding: 711 711 204
Width: 490
VWidth: 1467
Flags: W
HStem: 698 160
VStem: 279 283
LayerCount: 2
Fore
SplineSet
398 753 m 1
 405 768 473 836 513 858 c 1
 562 858 l 1
 524 838 420 759 387 698 c 1
 374 756 322 819 279 858 c 1
 326 858 l 1
 362 829 394 778 398 753 c 1
EndSplineSet
Validated: 1
EndChar

StartChar: breve
Encoding: 728 728 205
Width: 440
VWidth: 1467
Flags: W
HStem: 616 41<295.073 420.925>
VStem: 218 47<683.775 775> 491 45<725.222 775>
LayerCount: 2
Fore
SplineSet
354 657 m 256
 417 657 476 707 491 775 c 1
 536 775 l 1
 519 696 441 616 345 616 c 0
 269 616 218 671 218 741 c 0
 218 752 219 763 222 775 c 1
 268 775 l 1
 266 765 265 755 265 746 c 0
 265 695 297 657 354 657 c 256
EndSplineSet
Validated: 1
EndChar

StartChar: dotaccent
Encoding: 729 729 206
Width: 231
VWidth: 1467
Flags: W
HStem: 621 115<227.673 279.897>
VStem: 209 89<638.082 717.962>
LayerCount: 2
Fore
SplineSet
209 660 m 0
 209 693 232 736 266 736 c 0
 287 736 298 719 298 696 c 0
 298 662 276 621 242 621 c 0
 228 621 209 631 209 660 c 0
EndSplineSet
Validated: 1
EndChar

StartChar: ring
Encoding: 730 730 207
Width: 403
VWidth: 1467
Flags: W
HStem: 612 25<305.768 366.574> 759 23<325.547 383.228>
VStem: 249 37<650.291 728.783> 404 36<666.455 744.407>
LayerCount: 2
Fore
SplineSet
249 681 m 0
 249 736 305 782 363 782 c 0
 409 782 440 753 440 714 c 0
 440 664 390 612 327 612 c 0
 280 612 249 641 249 681 c 0
356 759 m 0
 320 759 286 712 286 691 c 0
 286 670 306 637 333 637 c 0
 366 637 404 677 404 704 c 0
 404 729 383 759 356 759 c 0
EndSplineSet
Validated: 1
EndChar

StartChar: ogonek
Encoding: 731 731 208
Width: 284
VWidth: 1467
Flags: W
HStem: -203 32<92.4356 183.868> -79 27<69.3562 131.835>
VStem: 31 28<-140.778 -89.3816>
LayerCount: 2
Fore
SplineSet
31 -126 m 0
 31 -82 72 -52 120 -52 c 0
 124 -52 129 -53 133 -53 c 1
 103 1 l 1
 141 0 l 1
 177 -88 l 1
 179 -90 180 -92 181 -95 c 1
 180 -97 l 1
 162 -86 156 -79 115 -79 c 0
 70 -79 59 -100 59 -115 c 0
 59 -145 110 -171 153 -171 c 0
 164 -171 174 -168 184 -164 c 1
 185 -192 l 1
 168 -200 152 -203 134 -203 c 0
 81 -203 31 -171 31 -126 c 0
EndSplineSet
Validated: 1
EndChar

StartChar: tilde
Encoding: 732 732 209
Width: 316
VWidth: 1467
Flags: W
HStem: 597 37<308.565 391.647> 653 37<191.617 267.976>
VStem: 139 29<594 622.284> 415 31<684 693>
LayerCount: 2
Fore
SplineSet
139 594 m 1
 139 594 158 690 239 690 c 0
 289 690 305 634 351 634 c 0
 385 635 404 660 415 693 c 1
 446 693 l 1
 444 684 l 2
 431 621 375 597 340 597 c 0
 284 597 270 653 233 653 c 0
 191 653 172 608 168 594 c 1
 139 594 l 1
EndSplineSet
Validated: 1
EndChar

StartChar: uni0E01
Encoding: 3585 3585 212
Width: 625
VWidth: 1467
Flags: W
HStem: 0 21G<95 140.221 475 525.242> 551 34<251 479.829>
VStem: 551 52<284.883 495.389>
LayerCount: 2
Fore
SplineSet
251 546 m 1
 254 542 303 489 305 486 c 1
 296 442 l 1
 290 438 222 407 201 308 c 2
 136 0 l 1
 95 0 l 1
 152 267 l 2
 173 366 203 431 269 471 c 1
 205 544 l 1
 213 585 l 1
 326 585 l 2
 477 585 567 584 596 481 c 0
 601 466 603 448 603 427 c 0
 603 400 599 367 591 330 c 2
 521 0 l 1
 475 0 l 1
 542 333 l 2
 548 363 551 390 551 412 c 0
 551 522 484 551 371 551 c 0
 324 551 323 548 251 546 c 1
EndSplineSet
Validated: 1
EndChar

StartChar: uni0E02
Encoding: 3586 3586 213
Width: 492
VWidth: 1467
Flags: W
HStem: -8 36<182.344 297.906> 360 26<208.055 249.65> 562 24<269.08 309.262>
VStem: 102 48<55.4353 195.14> 171 34<386.173 480.449> 314 35<462.822 560.652>
LayerCount: 2
Fore
SplineSet
171 422 m 0
 171 498 243 586 300 586 c 0
 340 586 349 541 349 502 c 0
 349 322 187 314 154 161 c 0
 151 148 150 135 150 123 c 0
 150 66 181 28 237 28 c 0
 283 28 360 65 382 170 c 2
 470 584 l 1
 516 584 l 1
 423 148 l 2
 400 37 297 -8 226 -8 c 0
 157 -8 102 33 102 107 c 0
 102 176 149 249 181 279 c 2
 227 323 l 2
 252 348 275 370 293 402 c 1
 269 374 239 360 221 360 c 0
 185 360 171 388 171 422 c 0
291 562 m 0
 261 562 205 473 205 416 c 0
 205 393 215 386 224 386 c 0
 255 386 314 468 314 529 c 0
 314 555 301 562 291 562 c 0
EndSplineSet
Validated: 1
EndChar

StartChar: uni0E03
Encoding: 3587 3587 214
Width: 569
VWidth: 1467
Flags: W
HStem: -7 37<258.788 376.778> 365 27<205.715 250.093> 570 20G<547.683 597> 571 26<267.753 310.701>
VStem: 170 32<393.191 486.795> 177 48<60.7684 201.745> 315 33<473 515> 383 45<415.248 493.282>
LayerCount: 2
Fore
SplineSet
428 509 m 0xdb
 428 324 225 306 225 127 c 0
 225 57 273 30 312 30 c 0
 361 30 441 66 464 175 c 2
 492 312 l 1
 552 590 l 1
 597 590 l 1
 505 153 l 2
 481 44 383 -7 307 -7 c 0
 254 -7 177 18 177 109 c 0xe7
 177 171 204 235 269 298 c 2
 327 355 l 1
 327 355 383 401 383 447 c 0
 383 463 376 479 355 500 c 1
 348 515 l 1
 348 471 285 365 218 365 c 0
 183 365 170 396 170 430 c 0
 170 508 239 597 301 597 c 0
 343 597 372 537 374 528 c 1
 399 593 l 1
 427 593 l 1
 427 533 l 2
 428 524 428 516 428 509 c 0xdb
225 392 m 0
 254 392 315 472 315 535 c 0
 315 557 307 571 292 571 c 0
 261 571 202 483 202 427 c 0xdb
 202 409 207 392 225 392 c 0
EndSplineSet
Validated: 1
EndChar

StartChar: uni0E04
Encoding: 3588 3588 215
Width: 670
VWidth: 1467
Flags: W
HStem: 0 21G<98 146.217 528 576.252> 213 35<303.57 437.037> 333 35<305.827 445.052> 558 32<351.765 549.855>
VStem: 260 25<269.925 290.213> 463 26<271.222 312.222> 620 47<396.463 509.288>
LayerCount: 2
Fore
SplineSet
489 299 m 0
 489 251 426 213 369 213 c 0
 314 213 260 239 260 284 c 2
 260 291 l 1
 225 260 190 226 177 166 c 2
 142 0 l 1
 98 0 l 1
 190 431 l 2
 219 569 376 590 460 590 c 0
 554 590 667 566 667 463 c 0
 667 452 666 441 663 428 c 2
 572 0 l 1
 528 0 l 1
 616 415 l 2
 618 427 620 437 620 447 c 0
 620 535 530 558 455 558 c 0
 370 558 255 530 230 415 c 2
 206 299 l 1
 261 349 330 368 383 368 c 0
 448 368 489 335 489 299 c 0
380 333 m 0
 331 333 285 315 285 289 c 0
 285 266 332 248 371 248 c 0
 412 248 463 266 463 292 c 0
 463 318 406 333 380 333 c 0
EndSplineSet
Validated: 1
EndChar

StartChar: uni0E05
Encoding: 3589 3589 216
Width: 674
VWidth: 1467
Flags: W
HStem: 0 21G<98 146.229 532 580.235> 224 36<310.234 447.817> 342 35<314.078 453.636> 568 20G<321 424.5 506.5 565.5>
VStem: 268 26<280.383 304.679> 473 25<282.2 320.19> 623 47<393.351 507.099>
LayerCount: 2
Fore
SplineSet
498 307 m 0
 498 258 432 224 373 224 c 0
 315 224 268 252 268 292 c 0
 268 296 269 300 270 305 c 1
 245 289 194 243 179 175 c 2
 142 0 l 1
 98 0 l 1
 190 431 l 2
 196 462 231 567 411 588 c 1
 438 517 434 526 445 500 c 1
 465 527 499 571 514 588 c 1
 617 576 670 537 670 464 c 0
 670 452 669 439 666 425 c 2
 576 0 l 1
 532 0 l 1
 619 408 l 2
 622 422 623 435 623 446 c 0
 623 529 551 538 524 544 c 1
 434 445 l 1
 386 543 l 1
 374 540 253 522 230 415 c 2
 207 308 l 1
 251 346 319 377 388 377 c 0
 462 377 498 341 498 307 c 0
385 342 m 0
 343 342 294 325 294 300 c 0
 294 277 340 260 373 260 c 0
 446 260 473 285 473 302 c 0
 473 325 419 342 385 342 c 0
EndSplineSet
Validated: 1
EndChar

StartChar: uni0E06
Encoding: 3590 3590 217
Width: 720
VWidth: 1467
Flags: W
HStem: -1 39<179.793 237.276 381.173 521.013> 235 38<213.436 267.011> 360 26<202.88 243.865> 566 26<263.768 307.65>
VStem: 126 47<36.3351 184.479> 166 33<386.763 483.785> 273 47<136 232.95> 380 45<397.552 492.133>
LayerCount: 2
Fore
SplineSet
166 425 m 0xf7
 166 508 242 592 295 592 c 0
 334 592 365 542 371 524 c 1
 395 587 l 1
 423 587 l 1
 423 528 l 1
 425 515 425 504 425 494 c 0
 425 437 399 385 389 370 c 2
 353 318 l 258
 323 281 320 222 320 191 c 2
 320 174 l 1
 322 136 l 1
 364 47 409 38 436 38 c 0
 495 38 595 68 621 188 c 2
 706 588 l 1
 750 588 l 1
 663 180 l 2
 641 74 552 -1 446 -1 c 0
 404 -1 346 6 298 87 c 1
 281 48 243 -4 197 -4 c 0
 156 -4 126 40 126 98 c 0xfb
 126 186 196 273 256 273 c 0
 269 273 278 270 286 264 c 1
 309 343 380 387 380 443 c 0
 380 458 374 476 354 497 c 1
 345 511 l 1
 344 506 344 502 343 497 c 0
 331 440 271 360 214 360 c 0
 179 360 166 391 166 425 c 0xf7
220 386 m 0
 248 386 312 467 312 531 c 0
 312 553 303 566 289 566 c 0
 259 566 199 483 199 421 c 0xf7
 199 399 206 386 220 386 c 0
205 34 m 256
 242 34 273 123 273 177 c 0
 273 209 265 235 245 235 c 256
 212 235 173 164 173 100 c 0xfb
 173 69 180 34 205 34 c 256
EndSplineSet
Validated: 1
EndChar

StartChar: uni0E07
Encoding: 3591 3591 218
Width: 507
VWidth: 1467
Flags: W
HStem: -4 21G<246.174 299> 362 24<379.409 421.224> 562 24<441.497 482.118>
VStem: 344 32<387.157 480.473> 486 35<464.897 561.521>
LayerCount: 2
Fore
SplineSet
344 421 m 0
 344 500 415 586 472 586 c 0
 508 586 521 560 521 528 c 0
 521 518 519 507 517 496 c 2
 447 163 l 2
 428 73 347 10 251 -4 c 1
 154 398 l 1
 196 417 l 1
 289 43 l 1
 339 62 389 97 406 179 c 2
 450 387 l 1
 436 375 413 362 392 362 c 0
 361 362 344 385 344 421 c 0
464 562 m 0
 434 562 376 479 376 416 c 0
 376 391 388 386 397 386 c 0
 429 386 486 471 486 532 c 0
 486 557 473 562 464 562 c 0
EndSplineSet
Validated: 1
EndChar

StartChar: uni0E08
Encoding: 3592 3592 219
Width: 607
VWidth: 1467
Flags: W
HStem: -6 21G<323 427> 160 25<294.724 336.755> 360 25<298.412 339.821> 550 34<285.47 486.759>
VStem: 238 37<199.528 333.814> 361 43<143.106 348.397> 553 52<404.712 502.796>
LayerCount: 2
Fore
SplineSet
238 262 m 0
 238 319 272 385 328 385 c 0
 348 385 404 368 404 266 c 0
 404 183 389 115 376 51 c 2
 372 31 l 1
 471 65 486 114 492 141 c 2
 550 415 l 2
 552 425 553 435 553 444 c 0
 553 532 453 550 397 550 c 0
 280 550 232 508 212 493 c 1
 168 508 l 1
 197 547 291 584 395 584 c 0
 492 584 605 559 605 465 c 0
 605 456 604 446 602 436 c 2
 539 141 l 2
 529 94 493 26 361 -6 c 1
 323 -6 l 1
 364 188 l 1
 364 187 345 160 316 160 c 0
 292 160 238 193 238 262 c 0
321 360 m 0
 293 360 275 314 275 267 c 0
 275 220 294 185 316 185 c 0
 337 185 361 226 361 275 c 0
 361 320 341 360 321 360 c 0
EndSplineSet
Validated: 1
EndChar

StartChar: uni0E09
Encoding: 3593 3593 220
Width: 738
VWidth: 1467
Flags: W
HStem: -4 45<318.47 447.169> -1 33<582.308 627.917> 149 26<177.8 222.308> 195 34<613.852 654.685> 356 26<239.909 283.039> 549 50<276.057 551.324>
VStem: 139 35<175.525 274.626> 239 48<73.4902 166.433> 286 35<254.329 355.476> 538 37<35.2615 133.788> 611 52<344.422 503.335> 661 39<70.4619 193.183>
LayerCount: 2
Fore
SplineSet
139 214 m 0xbf50
 139 289 214 382 270 382 c 0
 307 382 321 353 321 319 c 0xbec0
 321 306 319 278 308 255 c 1
 292 178 l 2
 289 163 287 150 287 137 c 0
 287 65 339 41 381 41 c 0
 435 41 541 107 566 227 c 2
 608 424 l 2
 610 433 611 441 611 449 c 0
 611 535 497 549 421 549 c 0
 308 549 242 519 216 493 c 1
 174 521 l 1
 200 554 288 599 431 599 c 0
 604 599 663 548 663 468 c 0xbf60
 663 453 661 438 657 421 c 2
 639 334 l 2
 631 296 622 257 613 220 c 1
 623 226 634 229 645 229 c 0
 675 229 700 198 700 150 c 0
 700 72 644 -1 596 -1 c 0x7e50
 558 -1 538 34 538 78 c 0
 538 89 539 101 542 113 c 1
 500 25 417 -4 365 -4 c 0
 251 -4 239 89 239 146 c 2
 239 167 l 1
 223 155 207 149 191 149 c 0
 154 149 139 179 139 214 c 0xbf50
603 32 m 0x7e50
 626 32 661 86 661 142 c 0
 661 167 654 194 635 195 c 0
 611 195 575 140 575 88 c 0
 575 63 581 34 603 32 c 0x7e50
196 175 m 0
 229 175 286 260 286 324 c 0x3ec0
 286 341 282 356 266 356 c 0
 229 356 174 265 174 208 c 0
 174 191 179 175 196 175 c 0
EndSplineSet
Validated: 1
EndChar

StartChar: uni0E0A
Encoding: 3594 3594 221
Width: 517
VWidth: 1467
Flags: W
HStem: -5 35<194.009 307.208> 362 24<217.184 258.351> 563 25<279.087 319.908>
VStem: 111 48<60.2813 197.395> 181 33<386.458 479.626> 325 31<469.46 561.019> 426 47<232.18 404.516> 500 55<566.234 625>
LayerCount: 2
Fore
SplineSet
181 422 m 0
 181 503 256 588 311 588 c 0
 331 588 356 577 356 523 c 0
 356 507 354 487 349 463 c 0
 316 308 192 296 164 163 c 0
 161 149 159 135 159 124 c 0
 159 54 210 30 249 30 c 0
 294 30 369 66 392 172 c 2
 419 299 l 2
 423 320 426 337 426 351 c 0
 426 374 419 392 402 412 c 2
 370 450 l 1
 432 474 475 525 500 625 c 1
 555 625 l 1
 533 542 489 476 421 446 c 1
 458 393 473 385 473 352 c 0
 473 344 472 334 470 321 c 2
 434 150 l 2
 410 39 310 -5 237 -5 c 0
 187 -5 111 18 111 107 c 0
 111 253 256 316 304 403 c 1
 280 378 254 362 230 362 c 0
 199 362 181 385 181 422 c 0
302 563 m 0
 273 563 214 479 214 415 c 0
 214 400 218 386 233 386 c 0
 267 386 325 473 325 527 c 0
 325 548 317 563 302 563 c 0
EndSplineSet
Validated: 1
EndChar

StartChar: uni0E0B
Encoding: 3595 3595 222
Width: 597
VWidth: 1467
Flags: W
HStem: -2 38<256.989 376.218> 368 24<206.877 245.424> 572 25<270.011 309.465>
VStem: 168 35<392.667 494.647> 176 48<64.9998 200.193> 314 113<515.861 564> 381 46<417.463 497.955> 494 46<237.156 420.93> 578 56<575.422 632>
LayerCount: 2
Fore
SplineSet
427 505 m 0xf380
 427 330 224 305 224 130 c 0
 224 50 287 36 313 36 c 0
 353 36 436 65 460 179 c 2
 486 302 l 2
 491 326 494 344 494 360 c 0
 494 384 487 402 470 424 c 2
 440 462 l 1
 479 473 557 530 578 632 c 1
 634 632 l 1
 629 607 599 511 493 459 c 1
 528 424 540 403 540 361 c 0
 540 333 538 318 532 290 c 2
 501 156 l 2
 476 47 376 -2 303 -2 c 0
 241 -2 176 34 176 114 c 0xeb80
 176 125 177 137 180 150 c 256
 213 308 381 359 381 450 c 0
 381 465 374 480 356 502 c 2
 345 515 l 1
 343 502 l 2
 330 414 258 368 220 368 c 0
 183 368 168 396 168 431 c 0
 168 511 244 597 300 597 c 0
 340 597 371 535 373 528 c 1
 396 593 l 1
 424 593 l 1
 425 533 l 2
 426 523 427 514 427 505 c 0xf380
222 392 m 0
 246 392 314 461 314 537 c 0
 314 564 302 572 293 572 c 0
 268 572 203 497 203 428 c 0xf580
 203 410 207 392 222 392 c 0
EndSplineSet
Validated: 1
EndChar

StartChar: uni0E0C
Encoding: 3596 3596 223
Width: 928
VWidth: 1467
Flags: W
HStem: -3 47<609.429 762.377> -1 25<146.86 188.145 438.688 478.416> 199 25<207.127 249.708 470.548 518.005> 546 35<251 477.856>
VStem: 109 35<24.1566 119.648> 253 34<102.617 198.363> 396 35<27.22 149.792> 523 35<100.632 199.938> 553 50<278.819 489.372>
LayerCount: 2
Fore
SplineSet
287 163 m 0xbe80
 287 82 211 -1 160 -1 c 0
 124 -1 109 28 109 60 c 0
 109 68 110 75 111 82 c 2
 150 263 l 2
 172 368 202 427 269 467 c 1
 204 540 l 1
 212 581 l 1
 318 581 l 2
 475 581 504 572 540 552 c 0
 590 524 603 469 603 420 c 0x7e80
 603 385 597 352 593 334 c 2
 560 178 l 2
 558 171 558 163 558 156 c 0x7f
 558 95 612 44 682 44 c 0
 751 44 799 64 826 195 c 2
 908 581 l 1
 950 581 l 1
 861 161 l 2
 833 30 750 -3 671 -3 c 0
 613 -3 567 45 546 88 c 1
 523 28 484 0 452 0 c 0
 416 0 396 33 396 78 c 0
 396 153 445 229 501 229 c 0
 510 229 516 227 522 223 c 1
 522 223 553 373 553 411 c 0
 553 517 476 546 369 546 c 0
 322 546 310 541 251 541 c 1
 253 537 301 487 304 481 c 1
 295 436 l 1
 248 415 215 363 203 304 c 2
 180 198 l 1
 209 222 226 224 239 224 c 0
 274 224 287 196 287 163 c 0xbe80
163 24 m 0
 194 24 253 102 253 167 c 0
 253 183 248 199 233 199 c 0
 196 199 144 109 144 52 c 0
 144 37 148 24 163 24 c 0
498 204 m 0
 468 204 431 137 431 72 c 0
 431 47 437 25 457 25 c 0
 483 25 523 90 523 153 c 0x3f
 523 182 515 204 498 204 c 0
EndSplineSet
Validated: 1
EndChar

StartChar: uni0E0D
Encoding: 3597 3597 224
Width: 908
VWidth: 1467
Flags: W
HStem: -194 33<486.122 603.534> -98 31<498.535 611.924> -1 35<529 649.204> -1 25<148.02 188.753> 200 25<208.961 251.679> 551 36<252 482.115>
VStem: 111 34<24.3008 121.3> 255 32<105.494 199.689> 456 26<-151.467 -115.489> 553 51<285.594 492.226> 617 28<-130.892 -106.801>
LayerCount: 2
Fore
SplineSet
287 163 m 0xdfe0
 287 81 213 -1 161 -1 c 0xdfe0
 124 -1 111 34 111 67 c 0
 111 75 111 84 113 91 c 2
 152 267 l 2
 171 359 204 434 270 471 c 1
 207 544 l 1
 215 585 l 1
 306 587 317 587 328 587 c 0
 470 587 567 586 598 482 c 0
 602 467 604 450 604 429 c 0
 604 402 600 369 593 332 c 2
 529 34 l 1xefe0
 661 34 772 78 809 253 c 2
 880 587 l 1
 930 587 l 1
 862 268 l 2
 812 33 683 -1 522 -1 c 1
 521 -3 l 1
 476 -3 l 1
 543 333 l 2
 548 357 553 385 553 413 c 0
 553 446 546 479 523 504 c 0
 488 544 431 551 375 551 c 0
 326 551 313 546 252 546 c 1
 254 540 283 516 306 487 c 1
 296 442 l 1
 284 434 225 407 203 308 c 2
 180 198 l 1
 197 213 219 225 241 225 c 0
 275 225 287 196 287 163 c 0xdfe0
165 24 m 0
 191 24 255 101 255 167 c 0
 255 184 251 200 237 200 c 0
 196 200 145 109 145 54 c 0
 145 38 150 24 165 24 c 0
456 -139 m 0
 456 -102 503 -67 563 -67 c 0
 597 -67 645 -82 645 -120 c 0
 645 -124 645 -127 644 -131 c 1
 688 -108 715 -87 744 -48 c 1
 795 -48 l 1
 750 -104 658 -194 555 -194 c 0
 470 -194 456 -159 456 -139 c 0
544 -161 m 0
 577 -161 617 -147 617 -125 c 0
 617 -103 576 -98 557 -98 c 0
 507 -98 482 -121 482 -135 c 0
 482 -156 523 -161 544 -161 c 0
EndSplineSet
Validated: 1
Substitution2: "Single Substitution lookup 22 subtable" uni0E0D.alt1
Substitution2: "Single Substitution lookup 22 subtable" uni0E0D.alt1
EndChar

StartChar: uni0E0E
Encoding: 3598 3598 225
Width: 657
VWidth: 1467
Flags: W
HStem: -233 28<155.715 272.595> -130 27<169.032 310.112> -1 25<162.745 204.508> 201 24<166.658 207.282> 550 35<290 517.788>
VStem: 104 37<41.0922 174.707> 114 32<-194.971 -147.418> 591 51<283.422 493.109>
LayerCount: 2
Fore
SplineSet
104 102 m 0xfd
 104 155 136 225 192 225 c 0
 214 225 231 212 241 200 c 1
 301 480 l 1
 243 543 l 1
 252 584 l 1
 357 585 l 2
 510 585 541 580 580 556 c 0
 630 527 642 473 642 424 c 0
 642 389 636 357 632 339 c 2
 507 -248 l 1
 460 -248 l 1
 461 -244 l 1
 451 -222 418 -189 358 -163 c 1
 304 -225 235 -233 210 -233 c 0
 156 -233 114 -211 114 -177 c 0xfb
 114 -139 167 -103 236 -103 c 0
 272 -103 311 -104 350 -117 c 1
 356 -105 361 -98 375 -54 c 1
 416 -54 l 1
 407 -81 395 -106 382 -129 c 1
 418 -145 449 -165 472 -192 c 1
 581 332 l 2
 588 364 591 393 591 417 c 0
 591 470 567 550 422 550 c 0
 396 550 382 548 290 544 c 1
 293 536 309 529 343 486 c 1
 343 486 263 98 262 94 c 0
 256 67 229 -1 175 -1 c 0
 137 -1 104 44 104 102 c 0xfd
189 201 m 0
 164 201 141 162 141 113 c 0xfd
 141 68 160 24 182 24 c 0
 209 24 227 67 227 115 c 0
 227 163 208 201 189 201 c 0
230 -130 m 0
 194 -130 146 -143 146 -173 c 0xfb
 146 -199 188 -205 212 -205 c 0
 283 -205 325 -153 325 -153 c 1
 326 -152 325 -150 324 -148 c 1
 281 -133 250 -130 230 -130 c 0
EndSplineSet
Validated: 1
Substitution2: "Single Substitution lookup 22 subtable" uni0E0E.alt1
Substitution2: "Single Substitution lookup 22 subtable" uni0E0E.alt1
EndChar

StartChar: uni0E0F
Encoding: 3599 3599 226
Width: 658
VWidth: 1467
Flags: W
HStem: -233 25<108.769 196.253> -128 25<121.58 215.292> -1 25<156.24 197.899> 199 25<159.822 201.967> 549 35<289 519.145>
VStem: 67 30<-197.68 -146.819> 100 36<39.7214 173.444> 221 35<47.646 143.139> 590 51<287.836 490.259>
LayerCount: 2
Fore
SplineSet
100 101 m 0
 100 170 142 224 187 224 c 0
 198 224 219 221 235 194 c 1
 296 478 l 1
 243 541 l 1
 252 582 l 1
 341 584 350 584 369 584 c 0
 508 584 603 583 634 480 c 0
 639 465 641 447 641 427 c 0
 641 399 637 367 629 330 c 2
 506 -248 l 1
 460 -248 l 1
 402 -134 l 1
 296 -248 l 1
 287 -226 278 -210 263 -183 c 1
 227 -215 189 -233 146 -233 c 0
 104 -233 67 -213 67 -178 c 0
 67 -129 131 -103 180 -103 c 0
 224 -103 242 -126 261 -138 c 1
 271 -123 281 -106 297 -56 c 1
 339 -56 l 1
 324 -95 307 -131 284 -160 c 1
 289 -166 308 -191 308 -195 c 1
 412 -84 l 1
 472 -195 l 1
 580 332 l 2
 586 363 590 390 590 413 c 0
 590 468 568 549 425 549 c 0
 398 549 370 545 289 543 c 1
 335 484 l 1
 256 110 l 1
 256 74 230 -1 169 -1 c 0
 129 -1 100 45 100 101 c 0
182 199 m 0
 155 199 136 155 136 108 c 0
 136 61 156 24 176 24 c 0
 203 24 221 68 221 117 c 0
 221 165 201 199 182 199 c 0
166 -128 m 0
 140 -128 97 -144 97 -174 c 0
 97 -194 122 -208 147 -208 c 0
 175 -208 218 -191 245 -161 c 1
 245 -161 213 -128 166 -128 c 0
EndSplineSet
Validated: 1
Substitution2: "Single Substitution lookup 22 subtable" uni0E0F.alt1
Substitution2: "Single Substitution lookup 22 subtable" uni0E0F.alt1
EndChar

StartChar: uni0E10
Encoding: 3600 3600 227
Width: 591
VWidth: 1467
Flags: W
HStem: -235 22<76.9615 152.495> -139 22<87.6267 169.873 357.546 426.655> -67 24<358.973 446.041> 1 21G<307 370.5> 96 24<276.913 316.452> 296 24<279.667 320.978> 550 36<302.325 583.985>
VStem: 38 28<-204.409 -155.315> 206 44<464.262 520.455> 218 38<134.571 270.673> 326 23<-107.632 -77.3961> 342 41<100.82 283.251> 449 21<-101.413 -73.9683> 509 47<267.719 337.794>
LayerCount: 2
Fore
SplineSet
218 198 m 0xff4c
 218 257 254 320 308 320 c 0
 346 320 383 275 383 202 c 0
 383 168 380 135 373 104 c 2
 362 50 l 1
 397 60 464 92 477 156 c 2
 508 299 l 2
 508 301 509 303 509 306 c 0
 509 383 206 394 206 479 c 0
 206 500 233 586 434 586 c 0
 513 586 589 574 625 565 c 1
 623 521 l 1
 575 540 472 550 413 550 c 0
 299 550 250 517 250 491 c 0xff9c
 250 431 556 399 556 317 c 0
 556 315 556 312 555 310 c 2
 522 156 l 2
 515 120 494 88 476 66 c 0
 444 27 390 15 351 1 c 1
 307 1 l 1
 312 24 323 69 335 114 c 1
 314 96 299 96 290 96 c 0
 250 96 218 142 218 198 c 0xff4c
303 296 m 0
 275 296 256 253 256 205 c 0xff5c
 256 156 277 120 296 120 c 0
 323 120 342 176 342 216 c 0
 342 263 319 296 303 296 c 0
38 -185 m 0
 38 -144 91 -117 139 -117 c 0
 178 -117 209 -142 215 -148 c 1
 229 -132 234 -120 241 -100 c 1
 277 -100 l 1
 267 -127 260 -136 234 -169 c 1
 240 -176 259 -205 260 -210 c 1
 335 -170 l 1
 408 -220 l 1
 427 -132 l 1
 417 -136 404 -138 389 -138 c 0
 354 -138 326 -122 326 -98 c 0xff2c
 326 -72 359 -43 409 -43 c 0
 449 -43 470 -62 470 -84 c 1
 435 -248 l 1
 394 -248 l 1
 328 -200 l 1
 245 -248 l 1
 238 -225 226 -208 215 -189 c 1
 184 -219 147 -235 107 -235 c 0
 69 -235 38 -215 38 -185 c 0
128 -139 m 0
 99 -139 66 -156 66 -181 c 0
 66 -201 88 -213 110 -213 c 0
 128 -213 168 -202 199 -170 c 1
 187 -155 151 -139 128 -139 c 0
394 -113 m 0
 405 -113 449 -108 449 -86 c 0
 449 -70 414 -67 404 -67 c 0
 394 -67 349 -71 349 -94 c 0
 349 -109 375 -113 394 -113 c 0
EndSplineSet
Validated: 1
Substitution2: "Single Substitution lookup 22 subtable" uni0E10.alt1
Substitution2: "Single Substitution lookup 22 subtable" uni0E10.alt1
EndChar

StartChar: uni0E11
Encoding: 3601 3601 228
Width: 839
VWidth: 1467
Flags: W
HStem: 0 21G<295 341.265 694 742.272> 355 26<203.258 246.128> 540 44<595.014 750.919> 558 26<265.938 307.481>
VStem: 167 34<381.554 473.809> 376 55<361 483.494> 383 48<503 582.905> 386 28<526.651 584> 782 50<381.319 508.676>
LayerCount: 2
Fore
SplineSet
167 415 m 0xec80
 167 491 235 584 295 584 c 0
 337 584 383 503 383 503 c 1xda80
 386 584 l 1
 414 584 l 1xd980
 425 561 431 515 431 475 c 0
 431 456 430 438 427 425 c 2
 408 333 l 1
 464 451 551 585 687 585 c 0
 754 585 832 559 832 461 c 0
 832 446 830 430 826 412 c 2
 738 0 l 1
 694 0 l 1
 776 386 l 2
 780 406 782 424 782 441 c 0
 782 507 746 540 674 540 c 0
 496 540 394 267 366 136 c 2
 337 0 l 1
 295 0 l 1
 372 361 l 2
 375 374 376 386 376 397 c 0
 376 458 344 500 344 500 c 1
 325 408 259 355 215 355 c 0
 177 355 167 386 167 415 c 0xec80
219 381 m 0
 253 381 312 462 312 523 c 0
 312 540 307 558 291 558 c 0
 259 558 201 471 201 409 c 0
 201 395 205 381 219 381 c 0
EndSplineSet
Validated: 1
EndChar

StartChar: uni0E12
Encoding: 3602 3602 229
Width: 953
VWidth: 1467
Flags: W
HStem: -4 41<660.559 782.055> -4 30<507.547 547.881> -1 45<147 236.199> 132 26<307.844 340.089> 173 31<529.954 571.771> 335 25<369.705 412.644> 565 20G<362 409 497 556 932.742 979>
VStem: 271 33<159.017 251.584> 416 34<237.366 334.685> 467 36<26.9952 139.976> 577 36<92.4466 172.014> 619 49<348.747 512.994>
LayerCount: 2
Fore
SplineSet
450 296 m 0x3ff0
 450 217 354 32 172 -1 c 1
 95 -1 l 1x3ff0
 188 437 l 2
 211 545 318 575 406 585 c 1
 412 562 437 500 439 496 c 1
 464 533 487 559 507 585 c 1
 605 574 646 545 661 496 c 0
 666 483 668 470 668 457 c 0
 668 423 638 318 624 256 c 2
 620 234 l 2
 615 210 613 189 613 170 c 0
 613 71 675 37 720 37 c 0
 781 37 832 88 848 164 c 2
 937 582 l 1
 979 582 l 1
 883 131 l 2
 874 88 818 -4 718 -4 c 0x9ff0
 702 -4 634 -3 599 67 c 1
 584 33 556 -4 518 -4 c 0x5ff0
 493 -4 467 23 467 70 c 0
 467 131 513 204 557 204 c 0
 561 204 566 203 571 202 c 1
 614 406 l 2
 617 422 619 436 619 449 c 0
 619 543 533 543 516 546 c 1
 427 436 l 1
 374 547 l 1
 336 541 246 509 226 415 c 2
 147 44 l 1
 217 44 290 86 341 135 c 1
 333 133 327 132 321 132 c 0
 289 132 271 157 271 194 c 0
 271 267 337 360 399 360 c 0
 432 360 450 335 450 296 c 0x3ff0
325 158 m 0
 356 158 416 238 416 304 c 0
 416 320 412 335 396 335 c 0
 358 335 304 242 304 189 c 0
 304 165 316 158 325 158 c 0
525 26 m 0x5ff0
 550 26 577 81 577 130 c 0
 577 151 572 173 553 173 c 0
 531 173 503 125 503 73 c 0
 503 49 508 26 525 26 c 0x5ff0
EndSplineSet
Validated: 1
EndChar

StartChar: uni0E13
Encoding: 3603 3603 230
Width: 921
VWidth: 1467
Flags: W
HStem: -5 23<153.065 193.081> -4 32<767.37 821.701> 172 39<687.76 762 785.4 802> 195 25<214.092 253.979> 548 34<257 480.353>
VStem: 116 33<19.0678 112.439> 258 34<96.3773 194.777> 483 44<1 36.4308> 559 49<279.062 490.548> 722 37<33.206 141.329> 849 36<60.5556 169.07>
LayerCount: 2
Fore
SplineSet
292 159 m 0x5fe0
 292 81 222 -5 166 -5 c 0
 144 -5 116 8 116 57 c 0
 116 68 118 82 121 97 c 2
 156 264 l 2
 177 361 207 429 275 468 c 1
 210 541 l 1
 219 582 l 1
 372 582 l 2
 493 582 608 576 608 423 c 0
 608 396 605 364 597 327 c 2
 550 110 l 1
 581 140 662 209 802 211 c 1xafe0
 881 582 l 1
 926 582 l 1
 846 208 l 1
 860 201 885 181 885 137 c 0
 885 54 830 -4 784 -4 c 0
 751 -4 722 25 722 71 c 0
 722 118 744 152 762 175 c 1
 683 175 576 133 527 1 c 1
 483 1 l 1
 548 330 l 2
 554 357 559 384 559 411 c 0
 559 521 479 548 370 548 c 0
 325 548 313 543 257 543 c 1
 259 539 307 488 310 483 c 1
 300 437 l 1
 252 412 220 359 209 305 c 2
 185 192 l 1
 202 210 229 220 246 220 c 0
 280 220 292 191 292 159 c 0x5fe0
170 18 m 0
 201 18 258 101 258 163 c 0
 258 187 247 195 239 195 c 0x9fe0
 206 195 149 107 149 51 c 0
 149 34 154 18 170 18 c 0
821 172 m 0x6fe0
 796 172 759 137 759 81 c 0
 759 55 768 28 794 28 c 0
 834 28 849 105 849 131 c 0
 849 167 828 172 821 172 c 0x6fe0
EndSplineSet
Validated: 1
EndChar

StartChar: uni0E14
Encoding: 3604 3604 231
Width: 688
VWidth: 1467
Flags: W
HStem: 0 45<149 234.604> 136 26<313.097 346.5> 344 25<378.085 420.353> 556 38<344.951 566.61>
VStem: 276 34<162.674 258.911> 424 36<241.215 343.266> 632 49<401.5 508.331>
LayerCount: 2
Fore
SplineSet
460 305 m 0
 460 244 373 34 173 0 c 1
 94 0 l 1
 184 425 l 2
 213 560 361 594 470 594 c 0
 567 594 681 568 681 466 c 0
 681 456 679 445 677 433 c 2
 585 1 l 1
 540 1 l 1
 629 418 l 2
 631 429 632 439 632 448 c 0
 632 533 541 556 460 556 c 0
 372 556 251 528 228 418 c 2
 149 45 l 1
 222 45 301 93 347 138 c 1
 341 137 335 136 329 136 c 0
 287 136 276 165 276 194 c 0
 276 265 341 369 407 369 c 0
 441 369 460 342 460 305 c 0
331 162 m 0
 364 162 424 245 424 310 c 0
 424 331 417 344 403 344 c 0
 366 344 310 249 310 193 c 0
 310 169 321 162 331 162 c 0
EndSplineSet
Validated: 1
EndChar

StartChar: uni0E15
Encoding: 3605 3605 232
Width: 680
VWidth: 1467
Flags: W
HStem: 0 45<149 240.701> 136 26<313.062 347.604> 344 26<375.542 420.625> 582 20G<391.5 419.5 503.5 547.5>
VStem: 275 35<162.427 263.43> 425 34<248.196 343.16> 632 49<404.608 521.553>
LayerCount: 2
Fore
SplineSet
459 308 m 0
 459 233 366 34 173 0 c 1
 95 0 l 1
 190 447 l 2
 217 576 369 595 414 602 c 1
 425 565 447 508 447 508 c 1
 473 546 490 564 517 602 c 1
 578 592 681 574 681 473 c 0
 681 462 680 450 677 436 c 2
 584 1 l 1
 538 1 l 1
 627 417 l 2
 630 432 632 446 632 458 c 0
 632 557 536 558 525 559 c 1
 434 446 l 1
 381 560 l 1
 360 558 252 533 229 425 c 2
 149 45 l 1
 221 45 299 92 348 139 c 1
 340 137 333 136 327 136 c 0
 286 136 275 167 275 199 c 0
 275 288 355 370 407 370 c 0
 440 370 459 346 459 308 c 0
331 162 m 0
 368 162 425 253 425 309 c 0
 425 331 417 344 403 344 c 0
 363 344 310 252 310 193 c 0
 310 169 321 162 331 162 c 0
EndSplineSet
Validated: 1
EndChar

StartChar: uni0E16
Encoding: 3606 3606 233
Width: 629
VWidth: 1467
Flags: W
HStem: -1 26<151.267 195.159> 199 26<211.127 256.267> 549 35<257 485.651>
VStem: 116 32<25.9874 114.405> 259 33<104.403 198.402> 560 50<285.305 489.705>
LayerCount: 2
Fore
SplineSet
560 416 m 0
 560 477 527 549 393 549 c 0
 366 549 338 545 257 543 c 1
 258 540 305 494 311 486 c 1
 302 440 l 1
 288 432 l 2
 266 418 224 378 209 305 c 2
 187 200 l 1
 207 217 225 225 244 225 c 0
 275 225 292 199 292 163 c 0
 292 85 220 -1 165 -1 c 0
 134 -1 116 24 116 61 c 0
 116 80 122 105 124 110 c 1
 123 109 l 1
 159 278 l 2
 183 389 222 438 276 471 c 1
 210 541 l 1
 219 584 l 1
 325 584 l 2
 485 584 574 581 604 480 c 0
 608 466 610 449 610 429 c 0
 610 401 606 368 598 330 c 2
 529 3 l 1
 484 3 l 1
 549 333 l 2
 556 365 560 393 560 416 c 0
168 25 m 0
 205 25 259 112 259 169 c 0
 259 185 254 199 237 199 c 0
 201 199 148 110 148 56 c 0
 148 33 159 25 168 25 c 0
EndSplineSet
Validated: 1
EndChar

StartChar: uni0E17
Encoding: 3607 3607 234
Width: 707
VWidth: 1467
Flags: W
HStem: 0 21G<188 234.248 562 610.271> 363 26<195.487 237.968> 541 44<502.639 623.81> 564 25<257.388 299.671>
VStem: 160 33<389.351 482.727> 303 32<470.187 563.136> 562 44<0 32.7805> 649 46<317.375 515.124>
LayerCount: 2
Fore
SplineSet
160 426 m 0xef
 160 500 231 589 287 589 c 0xdf
 319 589 335 563 335 528 c 0
 335 520 334 510 332 501 c 2
 285 279 l 1
 348 422 465 585 573 585 c 0
 661 585 695 525 695 449 c 0
 695 428 693 406 688 384 c 2
 606 0 l 1
 562 0 l 1
 639 362 l 2
 646 394 649 421 649 443 c 0
 649 519 611 541 554 541 c 0
 420 541 282 243 254 113 c 2
 230 0 l 1
 188 0 l 1
 272 393 l 1
 240 366 210 363 205 363 c 0
 179 363 160 388 160 426 c 0xef
283 564 m 0
 247 564 193 474 193 418 c 0
 193 402 198 389 213 389 c 0
 243 389 303 469 303 531 c 0
 303 548 299 564 283 564 c 0
EndSplineSet
Validated: 5
EndChar

StartChar: uni0E18
Encoding: 3608 3608 235
Width: 581
VWidth: 1467
Flags: W
HStem: -6 39<201.582 406.845> 516 21G<590 605.149> 543 42<269.304 585.284>
VStem: 121 50<57.5133 115.977> 173 37<468.321 510.901> 486 53<262.8 317.788>
LayerCount: 2
Fore
SplineSet
379 543 m 0
 251 543 210 507 210 485 c 0
 210 445 539 388 539 302 c 0
 539 300 538 297 538 295 c 1
 489 65 l 2
 480 24 390 -6 287 -6 c 0
 223 -6 121 10 121 71 c 0
 121 75 121 80 122 84 c 2
 165 285 l 1
 212 285 l 1
 172 98 l 2
 171 95 171 92 171 90 c 0
 171 45 255 33 305 33 c 0
 374 33 436 54 443 87 c 2
 485 280 l 1
 485 282 486 284 486 286 c 0
 486 363 173 399 173 473 c 0
 173 482 187 585 416 585 c 0
 482 585 557 576 604 563 c 1
 606 516 l 1
 574 530 460 543 379 543 c 0
EndSplineSet
Validated: 1
EndChar

StartChar: uni0E19
Encoding: 3609 3609 236
Width: 704
VWidth: 1467
Flags: W
HStem: -10 32<564.033 605.905> -3 38<294.284 424.284> 188 34<593.6 637.425> 353 26<195.883 241.572> 556 24<260.193 298.694>
VStem: 160 33<379.412 474.315> 214 48<64.125 181.692> 303 34<461.152 554.888> 518 40<23.2111 129.408> 642 41<60.3916 187.793>
LayerCount: 2
Fore
SplineSet
160 416 m 0x7fc0
 160 487 227 580 287 580 c 0
 323 580 337 549 337 515 c 0
 337 498 333 484 329 471 c 2
 268 183 l 2
 264 166 262 149 262 133 c 0
 262 80 285 35 359 35 c 0x7fc0
 441 35 526 125 542 202 c 2
 622 578 l 1
 666 578 l 1
 588 210 l 1
 600 218 612 222 625 222 c 0
 659 222 683 189 683 141 c 0
 683 74 635 -10 576 -10 c 0xbfc0
 539 -10 518 20 518 68 c 0
 518 81 520 96 523 112 c 1
 473 45 434 -3 347 -3 c 0
 279 -3 214 43 214 120 c 0
 214 130 215 140 217 151 c 2
 266 379 l 1
 241 359 216 353 205 353 c 0
 176 353 160 381 160 416 c 0x7fc0
282 556 m 0
 256 556 193 477 193 410 c 0
 193 394 198 379 213 379 c 0
 256 379 303 476 303 525 c 0
 303 549 291 556 282 556 c 0
620 188 m 0
 597 188 558 134 558 75 c 0
 558 47 565 22 582 22 c 0xbfc0
 606 22 642 79 642 139 c 0
 642 167 635 188 620 188 c 0
EndSplineSet
Validated: 1
EndChar

StartChar: uni0E1A
Encoding: 3610 3610 237
Width: 711
VWidth: 1467
Flags: W
HStem: -7 34<333.881 493.808> 360 26<196.934 237.99> 561 25<258.59 300.713>
VStem: 160 34<386.111 484.52> 223 46<73.3058 230.742> 304 40<459.341 560.373>
LayerCount: 2
Fore
SplineSet
160 424 m 0
 160 500 233 586 288 586 c 0
 315 586 344 562 344 510 c 0
 344 500 343 488 340 475 c 2
 272 156 l 2
 270 147 269 139 269 131 c 0
 269 46 372 27 415 27 c 0
 459 27 577 51 599 156 c 2
 690 582 l 1
 736 582 l 1
 642 141 l 2
 629 79 540 -7 409 -7 c 0
 326 -7 223 30 223 116 c 0
 223 124 224 132 226 141 c 2
 281 402 l 1
 248 364 215 360 206 360 c 0
 185 360 160 381 160 424 c 0
283 561 m 0
 254 561 194 485 194 419 c 0
 194 402 198 386 213 386 c 0
 242 386 304 464 304 531 c 0
 304 556 291 561 283 561 c 0
EndSplineSet
Validated: 1
EndChar

StartChar: uni0E1B
Encoding: 3611 3611 238
Width: 713
VWidth: 1467
Flags: W
HStem: -9 34<333.592 494.65> 359 26<197.812 239.131> 560 24<260.033 299.745>
VStem: 160 34<385.783 483.531> 223 47<72.5409 229.266> 303 41<458.224 559.596>
LayerCount: 2
Fore
SplineSet
160 422 m 0
 160 500 234 584 287 584 c 0
 306 584 344 566 344 509 c 0
 344 499 343 487 340 474 c 2
 273 161 l 2
 271 151 270 141 270 132 c 0
 270 42 372 25 412 25 c 0
 463 25 577 51 599 154 c 2
 743 833 l 1
 789 833 l 1
 642 139 l 2
 627 72 532 -9 407 -9 c 0
 315 -9 223 34 223 114 c 0
 223 122 224 130 226 139 c 2
 281 401 l 1
 251 365 221 359 206 359 c 0
 177 359 160 386 160 422 c 0
283 560 m 0
 255 560 194 483 194 420 c 0
 194 403 198 385 214 385 c 0
 245 385 303 468 303 531 c 0
 303 555 292 560 283 560 c 0
EndSplineSet
Validated: 1
EndChar

StartChar: uni0E1C
Encoding: 3612 3612 239
Width: 671
VWidth: 1467
Flags: W
HStem: 0 21G<98 193.5 504 575.263> 359 26<238.525 280.751> 557 20G<648.754 694> 560 24<301.375 340.516>
VStem: 344 32<463.332 559.454>
LayerCount: 2
Fore
SplineSet
376 523 m 0xd8
 376 451 306 359 248 359 c 0
 238 359 225 362 220 371 c 1
 150 41 l 1
 205 63 267 106 398 276 c 1
 413 203 485 53 539 40 c 1
 653 577 l 1
 694 577 l 1xe8
 571 0 l 1
 524 0 l 1
 484 23 437 57 380 195 c 1
 316 114 246 46 141 0 c 1
 98 0 l 1
 188 423 l 2
 212 538 293 584 328 584 c 0
 359 584 376 559 376 523 c 0xd8
324 560 m 0xd8
 298 560 235 484 235 420 c 0
 235 403 239 385 255 385 c 0
 286 385 344 464 344 527 c 0
 344 544 340 560 324 560 c 0xd8
EndSplineSet
Validated: 1
EndChar

StartChar: uni0E1D
Encoding: 3613 3613 240
Width: 671
VWidth: 1467
Flags: W
HStem: -1 21G<97 190.5 484.5 575.25> 362 26<236.732 279.915> 563 24<300.863 339.837>
VStem: 344 33<467.125 562.598>
LayerCount: 2
Fore
SplineSet
377 526 m 0
 377 447 304 362 247 362 c 0
 241 362 226 365 218 373 c 1
 148 40 l 1
 202 61 268 102 394 270 c 1
 414 180 491 52 536 38 c 1
 705 832 l 1
 748 832 l 1
 571 -1 l 1
 522 -1 l 1
 447 43 415 100 377 189 c 1
 311 103 242 44 139 -1 c 1
 97 -1 l 1
 187 424 l 2
 204 504 274 587 327 587 c 0
 363 587 377 560 377 526 c 0
253 388 m 0
 287 388 344 470 344 529 c 0
 344 546 339 563 324 563 c 0
 293 563 234 479 234 420 c 0
 234 404 238 388 253 388 c 0
EndSplineSet
Validated: 1
EndChar

StartChar: uni0E1E
Encoding: 3614 3614 241
Width: 736
VWidth: 1467
Flags: W
HStem: 0 21G<182 268 560.5 641.241> 358 25<223.006 258.715> 558 25<224.677 267.49>
VStem: 167 34<401.331 532.271> 287 36<404.73 542.986>
LayerCount: 2
Fore
SplineSet
167 462 m 0
 167 523 203 583 253 583 c 0
 300 583 323 529 323 481 c 0
 323 471 322 462 320 453 c 2
 232 39 l 1
 308 103 413 295 505 485 c 1
 555 166 581 59 604 41 c 1
 718 580 l 1
 760 580 l 1
 637 0 l 1
 596 0 l 1
 525 31 490 264 490 386 c 2
 490 400 l 1
 454 285 312 35 224 0 c 1
 182 0 l 1
 259 362 l 1
 257 360 253 358 240 358 c 0
 187 358 167 413 167 462 c 0
246 558 m 0
 210 558 201 474 201 461 c 0
 201 409 229 383 241 383 c 0
 268 383 287 426 287 474 c 0
 287 520 269 558 246 558 c 0
EndSplineSet
Validated: 1
EndChar

StartChar: uni0E1F
Encoding: 3615 3615 242
Width: 736
VWidth: 1467
Flags: W
HStem: 0 21G<182 268 560.5 641.248> 358 25<223.006 258.715> 558 25<224.677 267.49>
VStem: 167 34<401.331 532.271> 287 36<404.73 542.986>
LayerCount: 2
Fore
SplineSet
167 462 m 0
 167 523 203 583 253 583 c 0
 300 583 323 529 323 481 c 0
 323 471 322 462 320 453 c 2
 232 39 l 1
 308 103 413 295 505 485 c 1
 555 166 581 59 604 41 c 1
 773 838 l 1
 815 838 l 1
 637 0 l 1
 596 0 l 1
 525 31 490 264 490 386 c 2
 490 400 l 1
 454 285 312 35 224 0 c 1
 182 0 l 1
 259 362 l 1
 257 360 253 358 240 358 c 0
 187 358 167 413 167 462 c 0
246 558 m 0
 210 558 201 474 201 461 c 0
 201 409 229 383 241 383 c 0
 268 383 287 426 287 474 c 0
 287 520 269 558 246 558 c 0
EndSplineSet
Validated: 1
EndChar

StartChar: uni0E20
Encoding: 3616 3616 243
Width: 664
VWidth: 1467
Flags: W
HStem: -3 26<144.231 188.766> 198 24<151.544 189.094> 547 35<272 512.006>
VStem: 89 36<36.6581 169.893> 595 51<278.859 483.4>
LayerCount: 2
Fore
SplineSet
89 94 m 0
 89 139 113 222 176 222 c 0
 187 222 204 219 224 197 c 1
 283 477 l 1
 225 540 l 1
 234 582 l 1
 364 582 l 2
 501 582 600 579 637 479 c 0
 643 462 646 442 646 418 c 0
 646 392 642 363 635 329 c 2
 565 0 l 1
 518 0 l 1
 586 332 l 2
 592 361 595 386 595 408 c 0
 595 519 501 547 409 547 c 0
 382 547 368 545 272 541 c 1
 277 535 314 499 327 483 c 1
 247 107 l 2
 246 103 245 95 243 87 c 0
 229 19 185 -3 159 -3 c 0
 125 -3 89 34 89 94 c 0
171 198 m 0
 153 198 125 162 125 106 c 0
 125 66 138 23 168 23 c 0
 193 23 210 72 210 112 c 0
 210 160 189 198 171 198 c 0
EndSplineSet
Validated: 1
EndChar

StartChar: uni0E21
Encoding: 3617 3617 244
Width: 679
VWidth: 1467
Flags: W
HStem: -9 29<176.557 225.016> 1 40<360.541 494.716> 215 28<181.172 228.186> 356 24<232.118 273.06> 556 24<294.992 334.143>
VStem: 114 41<35.258 185.276> 194 35<380.796 478.469> 250 39<47.7614 114> 338 33<460.634 555.099>
LayerCount: 2
Fore
SplineSet
194 417 m 0xbf80
 194 493 269 580 321 580 c 0
 353 580 371 555 371 516 c 0
 371 506 369 495 367 483 c 2
 308 207 l 2
 306 198 305 188 305 178 c 0
 305 110 352 41 418 41 c 0
 521 41 564 122 578 188 c 2
 661 577 l 1
 704 577 l 1
 614 156 l 2
 596 69 499 1 415 1 c 0x7f80
 359 1 301 25 289 114 c 1
 289 69 251 -9 194 -9 c 0
 148 -9 114 43 114 106 c 0
 114 168 152 243 213 243 c 0
 225 243 246 240 266 211 c 1
 302 382 l 1
 288 370 265 356 244 356 c 0
 205 356 194 388 194 417 c 0xbf80
318 556 m 0
 287 556 229 474 229 412 c 0
 229 395 233 380 250 380 c 0
 277 380 338 460 338 526 c 0
 338 549 327 556 318 556 c 0
206 215 m 0
 179 215 155 170 155 116 c 0
 155 69 171 20 200 20 c 0xbf80
 228 20 250 65 250 117 c 0
 250 167 231 215 206 215 c 0
EndSplineSet
Validated: 1
EndChar

StartChar: uni0E22
Encoding: 3618 3618 245
Width: 638
VWidth: 1467
Flags: W
HStem: -1 38<174.278 504> 409 29<363.451 453.543> 548 31<310.324 403.283>
VStem: 93 54<61.679 196.99> 184 46<353.577 486.714> 279 27<486.504 515> 459 27<444.538 499.595>
LayerCount: 2
Fore
SplineSet
279 515 m 1
 238 488 230 435 230 419 c 0
 230 380 255 340 278 330 c 0
 288 325 301 323 318 323 c 1
 310 285 l 1
 253 279 236 276 205 249 c 0
 167 218 147 160 147 126 c 0
 147 104 153 84 166 65 c 0
 183 40 202 37 254 37 c 2
 504 37 l 1
 619 577 l 1
 663 577 l 1
 540 -1 l 1
 235 -1 l 2
 179 -1 143 16 120 47 c 0
 104 73 93 100 93 128 c 0
 93 151 103 196 152 246 c 0
 177 274 214 293 263 302 c 1
 210 321 184 368 184 414 c 0
 184 498 263 579 366 579 c 0
 438 579 486 527 486 479 c 0
 486 448 462 409 396 409 c 0
 324 409 279 461 279 509 c 0
 279 515 l 1
423 438 m 0
 444 438 459 451 459 470 c 0
 459 504 402 548 341 548 c 0
 313 548 306 530 306 518 c 0
 306 485 359 438 423 438 c 0
EndSplineSet
Validated: 1
EndChar

StartChar: uni0E23
Encoding: 3619 3619 246
Width: 595
VWidth: 1467
Flags: W
HStem: -6 32<259.198 353.483> 135 31<210.537 305.509> 512 21G<588.5 607.574> 542 39<269.69 569.865>
VStem: 164 50<461.645 507.068> 178 28<73.2921 128.694> 359 28<44.302 88.2432> 456 56<241.244 312.129>
LayerCount: 2
Fore
SplineSet
388 542 m 0xfb
 247 542 214 490 214 482 c 0xfb
 214 440 512 384 512 296 c 0
 512 294 512 291 511 288 c 2
 464 66 l 2
 454 19 359 -6 300 -6 c 0
 244 -6 178 34 178 92 c 0xf7
 178 151 235 166 270 166 c 0
 337 166 387 114 387 70 c 0
 387 67 387 63 386 60 c 2
 382 44 l 1
 401 56 412 70 415 87 c 2
 455 273 l 1
 455 275 456 277 456 279 c 0
 456 355 164 394 164 469 c 0
 164 491 198 581 414 581 c 0
 493 581 570 567 607 559 c 1
 608 512 l 1
 569 526 479 542 388 542 c 0xfb
243 135 m 0
 216 135 206 118 206 105 c 0xf7
 206 74 255 26 323 26 c 0
 348 26 359 44 359 56 c 0
 359 86 312 135 243 135 c 0
EndSplineSet
Validated: 1
EndChar

StartChar: uni0E24
Encoding: 3620 3620 247
Width: 625
VWidth: 1467
Flags: W
HStem: 2 26<150.697 192.629> 202 26<210.363 253.183> 551 34<255 479.873>
VStem: 114 33<28.6945 124.424> 257 32<108.191 200.577> 427 45<-248 -215.258> 556 51<288.07 495.15>
LayerCount: 2
Fore
SplineSet
289 170 m 0
 289 87 218 2 162 2 c 0
 131 2 114 26 114 65 c 0
 114 75 115 87 118 99 c 2
 154 267 l 2
 174 364 205 432 273 471 c 1
 208 544 l 1
 216 585 l 1
 357 585 l 2
 481 585 570 581 600 482 c 0
 605 467 607 448 607 427 c 0
 607 400 603 369 596 332 c 2
 472 -248 l 1
 427 -248 l 1
 546 335 l 2
 552 365 556 392 556 417 c 0
 556 498 513 551 368 551 c 0
 323 551 311 546 255 546 c 1
 256 541 307 492 310 486 c 1
 299 440 l 1
 286 431 281 432 272 423 c 0
 238 392 216 354 206 308 c 2
 184 202 l 1
 195 214 217 228 241 228 c 0
 275 228 289 202 289 170 c 0
166 28 m 0
 202 28 257 111 257 169 c 0
 257 186 252 202 235 202 c 0
 209 202 147 127 147 63 c 0
 147 46 151 28 166 28 c 0
EndSplineSet
Validated: 1
EndChar

StartChar: uni0E25
Encoding: 3621 3621 248
Width: 651
VWidth: 1467
Flags: W
HStem: -5 35<177.016 313.974> 117 34<219.489 352.372> 549 33<334.036 544.711>
VStem: 106 47<82.8116 193.543> 357 25<67.1219 106.627> 600 51<396.12 508.403>
LayerCount: 2
Fore
SplineSet
382 92 m 0
 382 49 320 -5 237 -5 c 0
 151 -5 106 62 106 130 c 0
 106 236 220 310 292 320 c 0
 419 338 483 306 573 391 c 0
 587 403 600 422 600 451 c 0
 600 496 568 549 458 549 c 0
 408 549 325 540 247 500 c 1
 264 547 l 1
 300 562 373 582 456 582 c 0
 552 582 651 552 651 461 c 0
 651 452 649 441 647 430 c 2
 556 0 l 1
 509 0 l 1
 584 352 l 1
 458 267 415 311 279 276 c 0
 226 263 153 209 153 108 c 0
 153 99 154 91 155 82 c 1
 179 122 238 151 294 151 c 0
 343 151 382 128 382 92 c 0
237 30 m 0
 306 30 357 65 357 89 c 0
 357 112 315 117 295 117 c 0
 227 117 173 81 173 57 c 0
 173 41 201 30 237 30 c 0
EndSplineSet
Validated: 1
EndChar

StartChar: uni0E26
Encoding: 3622 3622 249
Width: 663
VWidth: 1467
Flags: W
HStem: -3 26<146.094 190.223> 198 24<152.131 191.268> 547 35<273 513.043>
VStem: 90 37<36.0395 171.726> 466 47<-248 -215.163> 596 51<280.773 483.989>
LayerCount: 2
Fore
SplineSet
90 97 m 0
 90 160 126 222 178 222 c 0
 188 222 206 220 225 197 c 1
 284 477 l 1
 226 540 l 1
 235 582 l 1
 366 582 l 2
 505 582 601 579 638 479 c 0
 644 462 647 442 647 418 c 0
 647 392 643 363 636 329 c 2
 513 -248 l 1
 466 -248 l 1
 587 332 l 2
 593 361 596 387 596 410 c 0
 596 520 499 547 410 547 c 0
 383 547 369 545 273 541 c 1
 278 535 318 496 329 483 c 1
 244 87 l 2
 228 11 180 -3 160 -3 c 0
 123 -3 90 39 90 97 c 0
172 198 m 0
 145 198 127 146 127 105 c 0
 127 65 140 23 170 23 c 0
 195 23 212 73 212 114 c 0
 212 161 192 198 172 198 c 0
EndSplineSet
Validated: 1
EndChar

StartChar: uni0E27
Encoding: 3623 3623 250
Width: 603
VWidth: 1467
Flags: W
HStem: -1 30<307.98 399.973> 138 31<258.58 353.094> 502 21G<178.571 179> 540 40<248.147 464.233>
VStem: 226 28<76.7158 131.845> 405 29<67 90.0793> 526 55<294.5 488.922>
LayerCount: 2
Fore
SplineSet
226 95 m 0
 226 149 275 169 316 169 c 0
 374 169 434 127 434 76 c 0
 434 73 433 70 433 67 c 1
 457 91 468 113 471 125 c 2
 516 341 l 2
 521 362 526 389 526 416 c 0
 526 477 497 540 359 540 c 0
 289 540 188 503 170 502 c 1
 188 544 l 1
 229 557 318 580 392 580 c 0
 535 580 581 515 581 428 c 0
 581 405 578 380 572 354 c 2
 522 119 l 2
 513 76 437 -1 337 -1 c 0
 286 -1 226 40 226 95 c 0
367 29 m 0
 390 29 405 40 405 57 c 0
 405 84 366 138 289 138 c 0
 263 138 254 120 254 108 c 0
 254 77 304 29 367 29 c 0
EndSplineSet
Validated: 1
EndChar

StartChar: uni0E28
Encoding: 3624 3624 251
Width: 693
VWidth: 1467
Flags: W
HStem: 0 21G<100 146.224 528 575.242> 209 36<298.951 436.626> 329 34<304.652 441.468> 555 32<347.425 549.686> 619 28<754.346 776>
VStem: 257 27<264.604 285.948> 462 25<267.379 306.964>
LayerCount: 2
Fore
SplineSet
487 296 m 0
 487 257 440 209 364 209 c 0
 309 209 257 237 257 280 c 0
 257 286 l 1
 247 277 l 2
 189 223 180 178 176 161 c 2
 142 0 l 1
 100 0 l 1
 190 424 l 2
 220 566 370 587 460 587 c 0
 596 587 634 544 650 515 c 1
 650 544 694 635 772 647 c 1
 788 619 l 1
 767 617 697 593 669 462 c 2
 571 0 l 1
 528 0 l 1
 615 408 l 2
 618 421 619 432 619 443 c 0
 619 532 532 555 454 555 c 0
 357 555 254 526 229 408 c 2
 205 295 l 1
 264 348 341 363 380 363 c 0
 438 363 487 337 487 296 c 0
375 329 m 0
 302 329 284 297 284 284 c 0
 284 262 326 245 366 245 c 0
 423 245 462 265 462 288 c 0
 462 313 407 329 375 329 c 0
EndSplineSet
Validated: 1
EndChar

StartChar: uni0E29
Encoding: 3625 3625 252
Width: 758
VWidth: 1467
Flags: W
HStem: 2 37<333.374 502.198> 227 55<420.924 560.433> 349 35<426.13 550.847> 359 26<197.547 241.327> 558 20G<686.766 736> 561 25<259.518 299.797>
VStem: 161 34<385.446 481.385> 229 46<85.1632 193.593> 304 40<456.631 560.609> 380 30<293.905 332.196> 555 31<300.775 339.854>
LayerCount: 2
Fore
SplineSet
380 308 m 0xd7e0
 380 340 426 384 497 384 c 256
 546 384 586 362 586 327 c 0
 586 286 539 263 524 258 c 1
 568 266 612 292 633 304 c 1
 691 578 l 1
 736 578 l 1xebe0
 687 346 l 1
 708 366 723 385 734 403 c 1
 789 403 l 1
 754 359 716 322 675 293 c 1
 648 163 l 2
 627 65 513 2 407 2 c 0
 343 2 229 30 229 131 c 0
 229 141 231 151 233 163 c 2
 283 399 l 1
 264 379 235 359 209 359 c 0
 178 359 161 385 161 422 c 0
 161 494 228 586 288 586 c 0
 324 586 344 551 344 507 c 0
 344 497 343 486 341 475 c 2
 279 185 l 2
 276 172 275 160 275 149 c 0
 275 57 367 39 419 39 c 0
 475 39 582 67 606 179 c 2
 623 261 l 1
 576 237 532 227 496 227 c 0
 436 227 380 266 380 308 c 0xd7e0
489 349 m 256
 454 349 410 334 410 312 c 0
 410 294 446 282 475 282 c 256
 507 282 555 298 555 322 c 0
 555 344 512 349 489 349 c 256
283 561 m 0xd7e0
 251 561 195 475 195 414 c 0
 195 398 199 385 214 385 c 0
 250 385 304 468 304 528 c 0
 304 545 299 561 283 561 c 0xd7e0
EndSplineSet
Validated: 1
EndChar

StartChar: uni0E2A
Encoding: 3626 3626 253
Width: 679
VWidth: 1467
Flags: W
HStem: -5 36<175.159 312> 117 35<214.457 351.695> 505 21G<254.085 274.5> 557 30<351.968 535.646> 626 30<737.85 758.433>
VStem: 105 48<85.028 197.36> 355 25<67.0605 107.721>
LayerCount: 2
Fore
SplineSet
380 93 m 0
 380 36 299 -5 234 -5 c 0
 156 -5 105 59 105 132 c 0
 105 240 224 310 290 320 c 0
 392 335 457 314 532 361 c 0
 582 391 599 416 599 452 c 0
 599 508 549 557 461 557 c 0
 380 557 303 530 246 505 c 1
 265 552 l 1
 298 569 379 587 449 587 c 0
 560 587 630 546 634 516 c 1
 647 577 696 640 754 656 c 1
 773 626 l 1
 690 614 660 489 650 441 c 2
 556 0 l 1
 509 0 l 1
 584 352 l 1
 551 332 l 2
 454 277 391 306 278 276 c 0
 218 261 169 204 161 167 c 0
 159 158 153 114 153 93 c 0
 153 89 153 86 154 84 c 1
 176 124 237 152 291 152 c 0
 342 152 380 129 380 93 c 0
301 117 m 0
 233 117 173 89 173 56 c 0
 173 36 213 31 227 31 c 0
 307 31 355 66 355 89 c 0
 355 111 322 117 301 117 c 0
EndSplineSet
Validated: 1
EndChar

StartChar: uni0E2B
Encoding: 3627 3627 254
Width: 717
VWidth: 1467
Flags: W
HStem: 0 21G<183 231.189 574 622.244> 357 26<197.075 238.185> 422 37<504.246 610.439> 547 38<517.463 675.944> 560 24<257.601 299.156>
VStem: 161 33<383.075 480.054> 303 33<463.359 559.397> 459 28<477.89 520.826> 574 44<0 32.9848> 641 48<233.805 395.922> 686 28<486.913 530.849>
LayerCount: 2
Fore
SplineSet
714 515 m 0xf7a0
 714 468 654 442 643 437 c 1
 649 429 689 423 689 357 c 0
 689 344 688 329 684 311 c 2
 618 0 l 1
 574 0 l 1
 634 283 l 2
 637 299 641 318 641 337 c 0
 641 380 622 422 534 422 c 0
 431 422 294 317 258 148 c 2
 227 0 l 1
 183 0 l 1
 264 381 l 1
 247 367 227 357 208 357 c 0
 174 357 161 387 161 420 c 0
 161 501 234 584 286 584 c 0xefc0
 318 584 336 559 336 523 c 0
 336 513 335 498 328 474 c 2
 290 298 l 1
 377 413 441 439 482 450 c 1
 466 463 459 478 459 494 c 0
 459 538 519 585 604 585 c 0
 659 585 714 560 714 515 c 0xf7a0
282 560 m 0
 252 560 194 481 194 413 c 0
 194 389 204 383 212 383 c 0
 244 383 303 465 303 529 c 0
 303 555 291 560 282 560 c 0
578 459 m 0
 624 459 686 479 686 510 c 0
 686 534 646 547 596 547 c 256xf7a0
 579 547 487 537 487 498 c 0
 487 467 566 459 578 459 c 0
EndSplineSet
Validated: 1
EndChar

StartChar: uni0E2C
Encoding: 3628 3628 255
Width: 765
VWidth: 1467
Flags: W
HStem: 0 21G<185 257.5 562 642.246> 360 25<225.743 262.333> 431 41<548.121 690.096> 550 41<560.937 705.164> 562 24<228.932 270.553>
VStem: 168 38<398.697 537.263> 291 36<405.671 546.128> 506 36<484.568 530.797> 710 37<518 538.226> 801 47<556.75 615>
LayerCount: 2
Fore
SplineSet
506 498 m 0xefc0
 506 547 568 591 645 591 c 0xf7c0
 707 591 747 559 747 518 c 1
 778 540 791 567 801 615 c 1
 848 615 l 1
 827 528 778 490 738 471 c 1
 638 0 l 1
 597 0 l 1
 527 36 483 158 465 270 c 1
 393 123 288 33 227 0 c 1
 185 0 l 1
 263 365 l 1
 260 364 259 364 257 364 c 0
 256 364 254 360 238 360 c 0
 204 360 168 402 168 463 c 0
 168 525 205 586 256 586 c 0
 297 586 327 545 327 488 c 0
 327 477 326 465 323 452 c 2
 235 38 l 1
 306 98 409 212 480 355 c 1
 497 245 564 77 605 41 c 1
 691 449 l 1
 660 438 642 431 611 431 c 0
 553 431 506 457 506 498 c 0xefc0
252 562 m 0xefc0
 224 562 206 517 206 468 c 0
 206 421 225 385 246 385 c 0
 273 385 291 431 291 476 c 0
 291 524 271 562 252 562 c 0xefc0
636 550 m 256xf7c0
 592 550 542 532 542 506 c 0
 542 479 597 472 619 472 c 0
 649 472 710 486 710 518 c 0
 710 544 658 550 636 550 c 256xf7c0
EndSplineSet
Validated: 1
Substitution2: "Single Substitution lookup 22 subtable" uni0E2C.alt1
Substitution2: "Single Substitution lookup 22 subtable" uni0E2C.alt1
EndChar

StartChar: uni0E2D
Encoding: 3629 3629 256
Width: 644
VWidth: 1467
Flags: W
HStem: -4 37<230.279 422.821> 224 33<237.835 348.032> 356 33<309.781 417.677> 554 34<315.889 520.387>
VStem: 113 48<89.4371 238.48> 210 27<260.152 282.787> 418 26<311.766 353.025> 590 50<354.75 506.238>
LayerCount: 2
Fore
SplineSet
211 283 m 1
 169 233 161 180 161 153 c 0
 161 70 238 33 323 33 c 0
 408 33 512 72 529 151 c 2
 587 423 l 2
 589 432 590 441 590 449 c 0
 590 536 484 554 420 554 c 0
 366 554 293 542 245 497 c 1
 209 514 l 1
 234 543 313 588 433 588 c 0
 515 588 640 565 640 469 c 0
 640 460 639 452 637 442 c 2
 577 162 l 2
 551 39 404 -4 313 -4 c 0
 229 -4 113 28 113 150 c 0
 113 329 298 389 373 389 c 0
 417 389 444 368 444 338 c 0
 444 284 362 224 283 224 c 0
 240 224 210 246 210 274 c 0
 210 277 210 280 211 283 c 1
271 257 m 0
 353 257 418 309 418 337 c 0
 418 353 402 356 384 356 c 0
 318 356 237 311 237 278 c 0
 237 268 243 257 271 257 c 0
EndSplineSet
Validated: 1
EndChar

StartChar: uni0E2E
Encoding: 3630 3630 257
Width: 666
VWidth: 1467
Flags: W
HStem: -2 38<212.976 412.533> 173 33<198.599 311.128> 305 32<269.587 379.852> 392 32<313.33 524.057> 551 34<327.664 521.407>
VStem: 114 49<76.3607 200.034> 199 49<457.623 507.132> 381 26<258.883 301.435>
LayerCount: 2
Fore
SplineSet
199 475 m 0
 199 504 264 585 428 585 c 0
 512 585 590 563 622 525 c 1
 643 550 681 589 727 609 c 1
 749 578 l 1
 724 564 l 2
 710 557 654 519 633 417 c 2
 577 153 l 2
 554 47 425 -2 306 -2 c 0
 188 -2 114 49 114 128 c 0
 114 229 232 337 331 337 c 0
 376 337 407 317 407 286 c 0
 407 236 324 173 244 173 c 0
 218 173 189 181 178 202 c 1
 171 189 163 160 163 135 c 0
 163 57 240 36 308 36 c 0
 387 36 515 75 532 153 c 2
 588 421 l 1
 555 405 503 392 406 392 c 0
 266 392 199 440 199 475 c 0
235 206 m 0
 305 206 381 251 381 285 c 0
 381 294 375 305 348 305 c 0
 264 305 198 251 198 226 c 0
 198 210 214 206 235 206 c 0
416 424 m 0
 487 424 601 456 601 476 c 0
 601 504 519 551 423 551 c 0
 338 551 248 507 248 482 c 0
 248 454 338 424 416 424 c 0
EndSplineSet
Validated: 1
EndChar

StartChar: uni0E2F
Encoding: 3631 3631 258
Width: 523
VWidth: 1467
Flags: W
HStem: -1 21G<373 426.241> 389 36<270.957 354.814> 552 30<245.537 293.851>
VStem: 207 34<459.964 549.625> 329 33<427.622 514.166>
LayerCount: 2
Fore
SplineSet
207 500 m 0
 207 556 245 582 275 582 c 0
 309 582 362 545 362 481 c 0
 362 460 356 442 349 427 c 1
 407 441 463 512 489 546 c 1
 538 546 l 1
 422 -1 l 1
 373 -1 l 1
 472 468 l 1
 428 424 380 389 303 389 c 0
 254 389 207 441 207 500 c 0
266 552 m 0
 256 552 241 544 241 516 c 0
 241 478 271 425 302 425 c 0
 321 425 329 444 329 464 c 0
 329 511 287 552 266 552 c 0
EndSplineSet
Validated: 1
EndChar

StartChar: uni0E30
Encoding: 3632 3632 259
Width: 528
VWidth: 1467
Flags: W
HStem: 64 36<154.658 280.14> 169 33<167.722 288.564> 373 36<220.815 343.618> 477 35<230.044 355.654>
VStem: 118 32<109.479 150.981> 184 32<418.983 460.206> 296 29<135.38 156.636> 362 29<442.464 464.625>
LayerCount: 2
Fore
SplineSet
184 432 m 0
 184 472 234 512 303 512 c 256
 351 512 391 489 391 453 c 0
 391 449 391 446 390 442 c 1
 437 463 465 489 500 531 c 1
 556 531 l 1
 531 501 427 373 284 373 c 0
 226 373 184 396 184 432 c 0
295 477 m 256
 286 477 216 471 216 438 c 0
 216 414 264 409 281 409 c 256
 310 409 362 425 362 448 c 0
 362 471 306 477 295 477 c 256
118 124 m 0
 118 172 181 202 237 202 c 256
 279 202 325 184 325 144 c 0
 325 140 325 136 324 132 c 1
 372 156 400 180 434 223 c 1
 490 223 l 1
 421 137 327 64 220 64 c 0
 158 64 118 88 118 124 c 0
215 100 m 256
 248 100 296 115 296 138 c 0
 296 163 244 169 230 169 c 256
 219 169 150 159 150 130 c 0
 150 106 192 100 215 100 c 256
EndSplineSet
Validated: 5
EndChar

StartChar: uni0E31
Encoding: 3633 3633 260
Width: 0
VWidth: 1467
Flags: W
HStem: 697 35<-97.8843 20.7607> 801 35<-89.8902 33.4805>
VStem: -136 32<742.409 784.868> 38 32<766.2 790.984>
LayerCount: 2
Fore
SplineSet
-136 757 m 0
 -136 794 -90 836 -19 836 c 256
 33 836 70 813 70 778 c 0
 70 774 70 770 69 766 c 1
 93 777 125 793 180 855 c 1
 236 855 l 1
 184 793 81 697 -32 697 c 0
 -106 697 -136 726 -136 757 c 0
-27 801 m 0
 -41 801 -104 793 -104 762 c 0
 -104 737 -52 732 -41 732 c 256
 -9 732 38 748 38 773 c 0
 38 796 -13 801 -27 801 c 0
EndSplineSet
Validated: 1
Substitution2: "Single Substitution lookup 22 subtable" uni0E31.alt1
Substitution2: "Single Substitution lookup 22 subtable" uni0E31.alt1
EndChar

StartChar: uni0E32
Encoding: 3634 3634 261
Width: 422
VWidth: 1467
Flags: W
HStem: 0 21G<282 328.275> 547 38<193.328 307.907>
VStem: 364 48<312.992 497.033>
LayerCount: 2
Fore
SplineSet
359 364 m 2
 362 379 364 397 364 414 c 0
 364 478 337 547 235 547 c 0
 214 547 194 544 173 537 c 1
 193 582 l 1
 200 584 207 585 214 585 c 2
 237 585 l 2
 350 585 412 514 412 431 c 0
 412 418 411 406 408 393 c 2
 324 0 l 1
 282 0 l 1
 359 364 l 2
EndSplineSet
Validated: 1
EndChar

StartChar: uni0E33
Encoding: 3635 3635 262
Width: 422
VWidth: 1467
Flags: W
HStem: 0 21<282 328.275> 547 38<193.328 307.907> 717 25<-55.3741 4.31244> 864 24<-37.4878 22.2038>
VStem: -113 38<755.096 834.455> 43 36<773.076 849.546> 364 48<312.992 497.033>
LayerCount: 2
Back
SplineSet
280 582 m 0
 310.667 582 338 577.167 362 567.5 c 128
 386 557.833 405.5 544.5 420.5 527.5 c 128
 435.5 510.5 446 490.167 452 466.5 c 128
 458 442.833 458 418 452 392 c 2
 370 1 l 1
 326 1 l 1
 402 362 l 2
 408 390.667 409.5 415.5 406.5 436.5 c 128
 403.5 457.5 396.667 476.667 386 494 c 0
 364.667 527.333 328.333 544 277 544 c 0
 257.667 544 238.333 540.667 219 534 c 1
 236 580 l 1
 244 581.333 251.333 582 258 582 c 128
 268 582 268 582 280 582 c 0
-37 817 m 2
 -14.3333 817 4.66667 808.667 20 792 c 128
 35.3333 775.333 40 755.333 34 732 c 0
 28.6667 708.667 15.8333 688.667 -4.5 672 c 128
 -24.8333 655.333 -47.6667 647 -73 647 c 2
 -75 647 l 2
 -100.333 647 -119.833 655.333 -133.5 672 c 128
 -147.167 688.667 -152.667 708.667 -150 732 c 0
 -144.667 756.667 -131 777 -109 793 c 128
 -87 809 -63.3333 817 -38 817 c 2
 -37 817 l 2
-66 672 m 2
 -51.3333 671.333 -36.8333 676.833 -22.5 688.5 c 128
 -8.16667 700.167 -0.333333 714.667 1 732 c 0
 3 750.667 0.166667 765.167 -7.5 775.5 c 128
 -15.1667 785.833 -26 792 -40 794 c 1
 -41 794 l 2
 -57.6667 794 -72.6667 787.833 -86 775.5 c 128
 -99.3333 763.167 -108.333 748.667 -113 732 c 0
 -117 714.667 -114.333 699.833 -105 687.5 c 128
 -95.6667 675.167 -83 670 -67 672 c 2
 -66 672 l 2
EndSplineSet
Fore
Refer: 284 3661 N 1 0 0 1 0 0 2
Refer: 261 3634 N 1 0 0 1 0 0 2
Validated: 1
Substitution2: "Single Substitution lookup 22 subtable" uni0E33.alt1
Substitution2: "Single Substitution lookup 22 subtable" uni0E33.alt1
EndChar

StartChar: uni0E34
Encoding: 3636 3636 263
Width: 0
VWidth: 1467
Flags: W
HStem: 697 29<-327 10> 796 40<-242.592 -36.0543>
LayerCount: 2
Fore
SplineSet
-367 708 m 2
 -356 759 -263 836 -133 836 c 0
 -62 836 30 813 48 726 c 2
 54 697 l 1
 -369 697 l 1
 -367 708 l 2
10 726 m 1
 -3 774 -66 796 -132 796 c 0
 -200 796 -285 778 -327 726 c 1
 10 726 l 1
EndSplineSet
Validated: 1
Substitution2: "Single Substitution lookup 22 subtable" uni0E34.alt1
Substitution2: "Single Substitution lookup 22 subtable" uni0E34.alt1
EndChar

StartChar: uni0E35
Encoding: 3637 3637 264
Width: 0
VWidth: 1467
Flags: W
HStem: 697 29<-327 9> 796 39<-243.851 -36.3868>
LayerCount: 2
Fore
SplineSet
-367 708 m 2
 -356 758 -266 835 -134 835 c 0
 -65 835 -12 815 21 781 c 1
 39 864 l 1
 87 864 l 1
 51 697 l 1
 -369 697 l 1
 -367 708 l 2
10 729 m 1
 -5 777 -71 796 -136 796 c 0
 -199 796 -287 777 -327 726 c 1
 9 726 l 1
 10 729 l 1
EndSplineSet
Validated: 1
Substitution2: "Single Substitution lookup 22 subtable" uni0E35.alt1
Substitution2: "Single Substitution lookup 22 subtable" uni0E35.alt1
EndChar

StartChar: uni0E36
Encoding: 3638 3638 265
Width: 0
VWidth: 1467
Flags: W
HStem: 697 29<-310 28> 796 40<-222.887 -37.6219> 855 35<-16.4586 90.723>
VStem: 109 21<787.984 830.565>
LayerCount: 2
Fore
SplineSet
130 820 m 0
 130 787 106 754 64 738 c 1
 64 735 72 701 72 697 c 1
 -351 697 l 1
 -349 708 l 2
 -337 762 -240 836 -113 836 c 0
 -93 836 -74 834 -56 830 c 1
 -40 864 0 890 44 890 c 0
 99 890 130 856 130 820 c 0
28 726 m 1
 15 774 -48 796 -114 796 c 0
 -235 796 -291 750 -310 726 c 1
 28 726 l 1
50 767 m 1
 90 774 109 792 109 809 c 0
 109 837 65 855 38 855 c 0
 11 855 -19 845 -35 825 c 1
 -6 816 29 800 50 767 c 1
EndSplineSet
Validated: 1
Substitution2: "Single Substitution lookup 22 subtable" uni0E36.alt1
Substitution2: "Single Substitution lookup 22 subtable" uni0E36.alt1
EndChar

StartChar: uni0E37
Encoding: 3639 3639 266
Width: 0
VWidth: 1467
Flags: W
HStem: 697 29<-327 9> 796 38<-236.245 -61.8558>
LayerCount: 2
Fore
SplineSet
-128 834 m 0
 -105 834 -83 832 -63 828 c 1
 -55 864 l 1
 -7 864 l 1
 -19 810 l 1
 -2 800 11 790 21 781 c 1
 39 864 l 1
 87 864 l 1
 51 697 l 1
 -369 697 l 1
 -367 708 l 2
 -356 757 -262 834 -128 834 c 0
10 729 m 1
 -5 777 -71 796 -136 796 c 0
 -199 796 -287 777 -327 726 c 1
 9 726 l 1
 10 729 l 1
EndSplineSet
Validated: 1
Substitution2: "Single Substitution lookup 22 subtable" uni0E37.alt1
Substitution2: "Single Substitution lookup 22 subtable" uni0E37.alt1
EndChar

StartChar: uni0E38
Encoding: 3640 3640 267
Width: 0
VWidth: 1467
Flags: W
HStem: -228 25<-236.739 -196.372> -101 26<-185.368 -145.414>
VStem: -265 28<-202.845 -155.19> -145 22<-143.273 -101.37>
LayerCount: 2
Fore
SplineSet
-265 -195 m 0
 -265 -140 -206 -75 -156 -75 c 0
 -132 -75 -123 -89 -123 -113 c 0
 -123 -130 -128 -152 -133 -177 c 2
 -158 -295 l 1
 -195 -295 l 1
 -175 -204 l 1
 -192 -218 -208 -228 -232 -228 c 0
 -257 -228 -265 -214 -265 -195 c 0
-159 -101 m 0
 -183 -101 -237 -157 -237 -190 c 0
 -237 -198 -233 -203 -224 -203 c 0
 -193 -203 -145 -139 -145 -113 c 0
 -145 -107 -149 -101 -159 -101 c 0
EndSplineSet
Validated: 1
Substitution2: "Single Substitution lookup 21 subtable" a
Substitution2: "Single Substitution lookup 22 subtable" uni0E38.alt1
Substitution2: "Single Substitution lookup 21 subtable" a
Substitution2: "Single Substitution lookup 22 subtable" uni0E38.alt1
EndChar

StartChar: uni0E39
Encoding: 3641 3641 268
Width: 0
VWidth: 1467
Flags: W
HStem: -293 36<-271 -189.374> -238 31<-380.5 -320.711> -96 26<-310.72 -267.591>
VStem: -397 30<-206.948 -154.621> -267 26<-141.764 -96.5524>
LayerCount: 2
Fore
SplineSet
-397 -199 m 0
 -397 -142 -331 -70 -278 -70 c 0
 -245 -70 -241 -94 -241 -111 c 2
 -241 -119 l 1
 -271 -257 l 1
 -221 -257 l 2
 -200 -257 -181 -237 -175 -208 c 2
 -146 -69 l 1
 -109 -69 l 1
 -137 -202 l 2
 -156 -292 -208 -293 -254 -293 c 2
 -316 -293 l 1
 -298 -208 l 1
 -318 -227 -343 -238 -368 -238 c 0
 -393 -238 -397 -215 -397 -199 c 0
-280 -96 m 0
 -315 -96 -367 -162 -367 -192 c 0
 -367 -204 -358 -207 -352 -207 c 0
 -319 -207 -267 -137 -267 -108 c 0
 -267 -101 -270 -96 -280 -96 c 0
EndSplineSet
Validated: 1
Substitution2: "Single Substitution lookup 21 subtable" b
Substitution2: "Single Substitution lookup 22 subtable" uni0E39.alt1
Substitution2: "Single Substitution lookup 21 subtable" b
Substitution2: "Single Substitution lookup 22 subtable" uni0E39.alt1
EndChar

StartChar: uni0E3A
Encoding: 3642 3642 269
Width: 0
VWidth: 1467
Flags: W
HStem: -195 115<-190.016 -139.112>
VStem: -209 89<-176.446 -97.7365>
LayerCount: 2
Fore
SplineSet
-209 -156 m 0
 -209 -123 -186 -80 -152 -80 c 0
 -132 -80 -120 -96 -120 -120 c 0
 -120 -157 -147 -195 -176 -195 c 0
 -197 -195 -209 -179 -209 -156 c 0
EndSplineSet
Validated: 1
Substitution2: "Single Substitution lookup 21 subtable" c
Substitution2: "Single Substitution lookup 22 subtable" uni0E3A.alt1
Substitution2: "Single Substitution lookup 21 subtable" c
Substitution2: "Single Substitution lookup 22 subtable" uni0E3A.alt1
EndChar

StartChar: uni0E3F
Encoding: 3647 3647 270
Width: 658
VWidth: 1467
Flags: W
HStem: 4 39<138 241 296 451.742> 412 41<383 483.197> 679 37<273 384 439 550.401>
VStem: 579 48<171.15 333.277 536.414 655.156>
LayerCount: 2
Fore
SplineSet
623 608 m 0
 623 521 550 450 481 431 c 1
 605 401 627 323 627 268 c 0
 627 245 623 227 621 217 c 0
 585 47 443 4 341 4 c 2
 287 4 l 1
 259 -125 l 1
 213 -125 l 1
 241 4 l 1
 86 4 l 1
 237 716 l 1
 392 716 l 1
 420 845 l 1
 467 845 l 1
 439 716 l 1
 504 716 l 2
 591 716 623 664 623 608 c 0
433 453 m 2
 494 453 579 517 579 596 c 0
 579 642 550 679 500 679 c 2
 431 679 l 1
 383 453 l 1
 433 453 l 2
249 43 m 1
 384 679 l 1
 273 679 l 1
 138 43 l 1
 249 43 l 1
360 43 m 2
 522 43 579 181 579 259 c 0
 579 351 498 404 425 412 c 2
 375 412 l 1
 296 43 l 1
 360 43 l 2
EndSplineSet
Validated: 1
EndChar

StartChar: uni0E40
Encoding: 3648 3648 271
Width: 315
VWidth: 1467
Flags: W
HStem: -4 27<147.024 192.156> 198 24<210.568 250.047> 562 20G<216.747 266>
VStem: 111 33<23.5466 116.084> 254 34<98.5251 197.443>
LayerCount: 2
Fore
SplineSet
288 163 m 0
 288 81 217 -4 158 -4 c 0
 135 -4 111 18 111 60 c 0
 111 79 116 98 120 107 c 1
 221 582 l 1
 266 582 l 1
 185 201 l 1
 205 215 221 222 238 222 c 0
 276 222 288 193 288 163 c 0
234 198 m 0
 204 198 144 115 144 55 c 0
 144 36 150 23 163 23 c 0
 199 23 254 103 254 164 c 0
 254 181 250 198 234 198 c 0
EndSplineSet
Validated: 1
EndChar

StartChar: uni0E41
Encoding: 3649 3649 272
Width: 573
VWidth: 1467
Flags: W
HStem: -1 26<147.524 189.543 410.039 451.716> 200 25<210.288 250.406 472.706 513.543> 561 20G<213.787 264 476.781 526>
VStem: 112 32<25.6787 117.005> 253 33<106.334 199.518> 374 33<25.5028 119.393> 518 31<107.322 198.612>
LayerCount: 2
Fore
SplineSet
286 163 m 0
 286 91 221 -1 157 -1 c 0
 128 -1 112 25 112 62 c 0
 112 71 113 81 115 92 c 2
 218 581 l 1
 264 581 l 1
 184 202 l 1
 201 217 220 225 238 225 c 0
 274 225 286 195 286 163 c 0
235 200 m 0
 207 200 144 123 144 56 c 0
 144 32 155 25 164 25 c 0
 200 25 253 115 253 169 c 0
 253 185 249 200 235 200 c 0
549 163 m 0
 549 92 487 -1 420 -1 c 0
 392 -1 374 25 374 61 c 0
 374 70 375 79 377 88 c 2
 481 581 l 1
 526 581 l 1
 446 202 l 1
 472 224 496 225 501 225 c 0
 537 225 549 196 549 163 c 0
497 200 m 0
 469 200 407 125 407 56 c 0
 407 32 418 25 427 25 c 0
 454 25 518 102 518 164 c 0
 518 184 511 200 497 200 c 0
EndSplineSet
Validated: 1
EndChar

StartChar: uni0E42
Encoding: 3650 3650 273
Width: 381
VWidth: 1467
Flags: W
HStem: -10 26<208.872 251.481> 192 24<271.559 312.615> 985 38<320.099 536.146>
VStem: 174 32<16.657 105.919> 218 50<882.622 949.108> 316 34<94.1861 191.466> 327 45<746.38 829.796>
LayerCount: 2
Fore
SplineSet
411 985 m 0xfa
 345 985 268 953 268 917 c 0
 268 864 372 866 372 794 c 0xfa
 372 789 371 784 370 778 c 2
 246 194 l 1
 273 216 295 216 300 216 c 0
 335 216 350 188 350 155 c 0xfc
 350 94 288 -10 220 -10 c 0
 199 -10 174 10 174 53 c 0
 174 61 175 70 177 80 c 2
 326 779 l 2
 327 784 327 788 327 792 c 0
 327 854 218 845 218 901 c 0
 218 955 293 1023 417 1023 c 0
 475 1023 572 1002 572 1002 c 1
 573 955 l 1
 513 976 453 985 411 985 c 0xfa
296 192 m 0
 267 192 206 114 206 46 c 0
 206 21 218 16 227 16 c 0
 257 16 316 96 316 160 c 0xfc
 316 177 312 192 296 192 c 0
EndSplineSet
Validated: 1
EndChar

StartChar: uni0E43
Encoding: 3651 3651 274
Width: 384
VWidth: 1467
Flags: W
HStem: -1 26<200.218 245.327> 199 25<262.454 304.874> 752 25<230.898 277.127> 978 33<317.867 430.537>
VStem: 165 33<25.3994 114.726> 189 32<783.086 896.787> 309 33<103.863 197.61> 324 29<835.556 939.642> 469 42<818.293 946.2>
LayerCount: 2
Fore
SplineSet
189 828 m 0xf580
 189 931 276 1011 377 1011 c 0
 445 1011 511 968 511 893 c 0
 511 823 462 764 414 719 c 2
 374 688 l 2
 348 667 334 654 333 647 c 2
 238 201 l 1
 256 216 275 224 294 224 c 0
 329 224 342 195 342 162 c 0
 342 79 265 -1 214 -1 c 0
 179 -1 165 26 165 59 c 0xfa80
 165 68 166 77 168 87 c 2
 292 666 l 2
 295 681 303 682 322 695 c 2
 377 737 l 2
 455 799 469 859 469 890 c 0
 469 944 429 978 372 978 c 0
 355 978 337 976 317 971 c 1
 341 961 353 932 353 897 c 0
 353 813 289 752 247 752 c 0
 210 752 189 784 189 828 c 0xf580
292 952 m 0
 258 952 221 885 221 830 c 0
 221 799 233 777 252 777 c 0
 282 777 324 842 324 890 c 0xf580
 324 924 307 952 292 952 c 0
286 199 m 0
 255 199 198 111 198 52 c 0
 198 36 203 25 218 25 c 0
 255 25 309 110 309 166 c 0xfa80
 309 192 296 199 286 199 c 0
EndSplineSet
Validated: 1
EndChar

StartChar: uni0E44
Encoding: 3652 3652 275
Width: 432
VWidth: 1467
Flags: W
HStem: -6 24<260.031 301.443> 195 23<322.485 362.909> 980 41<305.906 387.392>
VStem: 224 33<18.4334 112.378> 368 34<98.4616 193.768> 397 44<766.788 974.139>
LayerCount: 2
Fore
SplineSet
402 158 m 0xf8
 402 76 325 -6 273 -6 c 0
 253 -6 224 11 224 54 c 0
 224 61 225 70 227 79 c 0
 236 114 380 787 380 787 c 2
 387 822 397 870 397 909 c 0
 397 949 387 980 356 980 c 0
 289 980 239 873 210 814 c 1
 205 835 172 958 115 967 c 1
 126 1023 l 1
 210 988 221 931 221 888 c 1
 265 967 276 985 312 1005 c 0
 331 1016 348 1021 364 1021 c 0
 397 1021 441 995 441 918 c 0xf4
 441 885 430 813 420 769 c 2
 296 195 l 1
 326 216 342 218 352 218 c 0
 391 218 402 187 402 158 c 0xf8
346 195 m 0
 315 195 257 111 257 48 c 0
 257 32 262 18 277 18 c 0
 310 18 368 103 368 161 c 0xf8
 368 182 360 195 346 195 c 0
EndSplineSet
Validated: 1
EndChar

StartChar: uni0E45
Encoding: 3653 3653 276
Width: 409
VWidth: 1467
Flags: W
HStem: 547 38<178.328 294.143>
VStem: 349 48<314.531 496.629>
LayerCount: 2
Fore
SplineSet
344 364 m 2
 347 379 349 397 349 414 c 0
 349 478 322 547 220 547 c 0
 199 547 179 544 158 537 c 1
 178 582 l 1
 185 584 192 585 199 585 c 2
 222 585 l 2
 338 585 397 513 397 430 c 0
 397 418 396 405 393 393 c 2
 256 -248 l 1
 214 -248 l 1
 344 364 l 2
EndSplineSet
Validated: 1
EndChar

StartChar: uni0E46
Encoding: 3654 3654 277
Width: 603
VWidth: 1467
Flags: W
HStem: 291 38<210.031 260.122> 565 20G<341.5 401 485.5 530>
VStem: 158 45<330.723 468.145> 296 46<371.625 508.818> 405 44<-248 -215.158> 554 47<363.133 519.394>
LayerCount: 2
Fore
SplineSet
342 460 m 0
 342 382 285 291 222 291 c 0
 186 291 158 327 158 382 c 0
 158 394 159 406 162 420 c 256
 187 535 289 571 394 585 c 1
 408 540 414 532 423 496 c 1
 482 568 474 560 497 585 c 1
 563 578 601 551 601 486 c 0
 601 471 599 455 595 437 c 2
 449 -248 l 1
 405 -248 l 1
 544 405 l 2
 550 434 554 456 554 474 c 0
 554 507 540 523 499 533 c 1
 407 418 l 1
 367 533 l 1
 353 530 339 526 325 521 c 1
 337 503 342 481 342 460 c 0
266 511 m 0
 241 511 203 449 203 388 c 0
 203 357 212 329 232 329 c 0
 264 329 296 401 296 449 c 0
 296 482 285 511 266 511 c 0
EndSplineSet
Validated: 1
EndChar

StartChar: uni0E47
Encoding: 3655 3655 278
Width: 0
VWidth: 1467
Flags: W
HStem: 686 29<-75.7717 -29.3148> 687 35<-240.26 -190> 819 21<-28.1619 13.4> 874 36<-204.278 8.66949>
VStem: -289 33<737.299 825.893> 14 21<774.632 818.397>
LayerCount: 2
Fore
SplineSet
-147 874 m 2x7c
 -214 874 -256 819 -256 783 c 0
 -256 755 -239 722 -208 722 c 0x7c
 -198 722 -188 727 -181 738 c 2
 -114 817 l 1
 -110 809 -88 760 -88 760 c 1
 -79 804 -32 840 -1 840 c 0
 26 840 35 827 35 810 c 0
 35 760 -19 686 -69 686 c 0xbc
 -91 686 -98 702 -100 713 c 1
 -122 770 l 1
 -190 687 l 1
 -219 687 -289 704 -289 770 c 0
 -289 851 -208 910 -131 910 c 0
 -38 910 -1 915 21 936 c 2
 47 961 l 1
 76 938 l 1
 48 914 l 2
 11 881 -52 874 -122 874 c 2
 -147 874 l 2x7c
-1 819 m 0
 -34 819 -76 763 -76 732 c 0
 -76 723 -72 715 -59 715 c 0xbc
 -23 715 14 784 14 804 c 0
 14 816 5 819 -1 819 c 0
EndSplineSet
Validated: 1
Substitution2: "Single Substitution lookup 22 subtable" uni0E47.alt1
Substitution2: "Single Substitution lookup 22 subtable" uni0E47.alt1
EndChar

StartChar: uni0E48
Encoding: 3656 3656 279
Width: 0
VWidth: 1467
Flags: W
HStem: 954 123<91 110>
VStem: 65 71
LayerCount: 2
Fore
SplineSet
110 954 m 1
 65 954 l 1
 91 1077 l 1
 136 1077 l 1
 110 954 l 1
EndSplineSet
Validated: 1
Substitution2: "Single Substitution lookup 22 subtable" uni0E48.alt2
Substitution2: "Single Substitution lookup 22 subtable" uni0E48.alt2
EndChar

StartChar: uni0E49
Encoding: 3657 3657 280
Width: 0
VWidth: 1467
Flags: W
HStem: 923 26<-43 14.81> 975 17<11.1499 40.0284> 1100 14<52.7888 75.974>
VStem: -11 21<992.197 1050.61> 78 22<1038.78 1099.62>
LayerCount: 2
Fore
SplineSet
-11 1015 m 0
 -11 1058 32 1114 69 1114 c 0
 77 1114 100 1110 100 1077 c 0
 100 1037 69 974 32 949 c 1
 142 962 187 1010 227 1093 c 1
 267 1093 l 1
 219 970 144 923 -1 923 c 2
 -49 923 l 1
 -43 949 l 1
 -5 949 l 1
 16 965 23 963 43 983 c 1
 35 978 26 975 18 975 c 0
 -1 975 -11 992 -11 1015 c 0
65 1100 m 0
 53 1100 10 1055 10 1009 c 0
 10 998 13 992 23 992 c 0
 45 992 78 1044 78 1081 c 0
 78 1092 75 1100 65 1100 c 0
EndSplineSet
Validated: 1
Substitution2: "Single Substitution lookup 22 subtable" uni0E49.alt2
Substitution2: "Single Substitution lookup 22 subtable" uni0E49.alt2
EndChar

StartChar: uni0E4A
Encoding: 3658 3658 281
Width: 0
VWidth: 1467
Flags: W
HStem: 931 21<-12.7982 44.6305> 1012 20<-19.7849 23.2761>
VStem: -61 25<970.589 1008.92> 49 16<958.341 990.216> 184 31<987.12 1071.01>
LayerCount: 2
Fore
SplineSet
65 978 m 0
 65 965 56 931 18 931 c 0
 9 931 -61 936 -61 995 c 0
 -61 1054 -2 1115 52 1115 c 1
 93 1073 l 1
 134 1115 l 1
 166 1115 215 1100 215 1043 c 0
 215 1018 209 998 192 976 c 1
 256 1007 287 1058 317 1146 c 1
 357 1146 l 1
 317 1027 232 942 146 939 c 1
 150 958 l 1
 172 978 184 1003 184 1032 c 0
 184 1084 134 1087 134 1087 c 1
 113 1070 101 1054 86 1042 c 1
 40 1089 l 1
 -19 1063 -18 1041 -20 1030 c 1
 -14 1031 -8 1032 -2 1032 c 0
 41 1032 65 1004 65 978 c 0
20 1005 m 0
 19 1005 4 1012 -12 1012 c 0
 -27 1012 -36 999 -36 990 c 0
 -36 972 -3 952 23 952 c 0
 42 952 49 967 49 974 c 0
 49 990 24 1005 20 1005 c 0
EndSplineSet
Validated: 1
Substitution2: "Single Substitution lookup 22 subtable" uni0E4A.alt2
Substitution2: "Single Substitution lookup 22 subtable" uni0E4A.alt2
EndChar

StartChar: uni0E4B
Encoding: 3659 3659 282
Width: 0
VWidth: 1467
Flags: W
HStem: 1012 39<-5 73 129 203>
VStem: -13 224
LayerCount: 2
Fore
SplineSet
203 1012 m 1
 121 1012 l 1
 102 924 l 1
 54 924 l 1
 73 1012 l 1
 -13 1012 l 1
 -5 1051 l 1
 81 1051 l 1
 101 1141 l 1
 149 1141 l 1
 129 1051 l 1
 211 1051 l 1
 203 1012 l 1
EndSplineSet
Validated: 1
Substitution2: "Single Substitution lookup 22 subtable" uni0E4B.alt2
Substitution2: "Single Substitution lookup 22 subtable" uni0E4B.alt2
EndChar

StartChar: uni0E4C
Encoding: 3660 3660 283
Width: 0
VWidth: 1467
Flags: W
HStem: 936 25<37.334 70.8697>
VStem: 2 31<961.591 1057.61> 95 30<989.282 1085.64> 201 33<1213 1234.64>
LayerCount: 2
Fore
SplineSet
125 1047 m 0
 125 1007 94 936 49 936 c 0
 17 936 2 967 2 1001 c 0
 2 1128 158 1134 191 1210 c 0
 195 1217 198 1226 201 1237 c 1
 234 1234 l 1
 230 1213 l 2
 221 1172 122 1117 99 1103 c 1
 116 1092 125 1070 125 1047 c 0
52 961 m 0
 66 961 95 992 95 1045 c 0
 95 1071 86 1086 78 1086 c 0
 60 1086 33 1046 33 998 c 0
 33 981 37 961 52 961 c 0
EndSplineSet
Validated: 1
Substitution2: "Single Substitution lookup 22 subtable" uni0E4C.alt2
Substitution2: "Single Substitution lookup 22 subtable" uni0E4C.alt2
EndChar

StartChar: uni0E4D
Encoding: 3661 3661 284
Width: 0
VWidth: 1467
Flags: W
HStem: 717 25<-55.3741 4.31244> 864 24<-37.4878 22.2038>
VStem: -113 38<755.096 834.455> 43 36<773.076 849.546>
LayerCount: 2
Fore
SplineSet
-113 786 m 0
 -113 847 -50 888 2 888 c 0
 47 888 79 858 79 819 c 0
 79 765 22 717 -35 717 c 0
 -81 717 -113 746 -113 786 c 0
-6 864 m 0
 -40 864 -75 819 -75 795 c 0
 -75 771 -52 742 -28 742 c 0
 1 742 43 780 43 810 c 0
 43 834 21 864 -6 864 c 0
EndSplineSet
Validated: 1
Substitution2: "Single Substitution lookup 22 subtable" uni0E4D.alt1
Substitution2: "Single Substitution lookup 22 subtable" uni0E4D.alt1
EndChar

StartChar: uni0E4E
Encoding: 3662 3662 285
Width: 0
VWidth: 1467
Flags: W
HStem: 664 44<-128.265 -29.5402> 697 20G<-23 -12.5> 819 44<-37.8125 20> 970 44<8.52893 162.508>
VStem: -163 29<721.894 773.04> -73 31<872.417 924.469>
LayerCount: 2
Fore
SplineSet
94 970 m 0xbc
 23 970 -42 930 -42 896 c 0
 -42 877 -24 868 -1 863 c 1
 16 863 l 2
 32 863 30 860 36 860 c 1
 20 819 l 1
 -1 819 l 2
 -39 819 -134 789 -134 745 c 0
 -134 714 -88 708 -57 708 c 0xbc
 -35 708 -30 712 -23 714 c 2
 -8 717 l 1x7c
 -17 701 -26 684 -34 666 c 1
 -44 665 -52 664 -60 664 c 0
 -113 664 -163 691 -163 740 c 0
 -163 784 -122 828 -60 850 c 1
 -67 860 -73 875 -73 892 c 0
 -73 955 16 1014 98 1014 c 0
 151 1014 175 988 180 982 c 1
 156 957 l 1
 147 963 133 970 94 970 c 0xbc
EndSplineSet
Validated: 1
Substitution2: "Single Substitution lookup 22 subtable" uni0E4E.alt1
Substitution2: "Single Substitution lookup 22 subtable" uni0E4E.alt1
EndChar

StartChar: uni0E4F
Encoding: 3663 3663 286
Width: 660
VWidth: 1467
Flags: W
HStem: -9 50<248.168 425.77> 92 53<299.066 420.096> 333 51<331.434 449.475> 436 51<324.585 500.906>
VStem: 121 53<115.652 287.141> 227 52<165.228 280.829> 471 52<196.348 312.389> 577 51<190.787 362.632>
LayerCount: 2
Fore
SplineSet
395 333 m 256
 332 333 279 276 279 218 c 0
 279 175 311 145 355 145 c 256
 421 145 471 204 471 258 c 0
 471 299 443 333 395 333 c 256
227 208 m 0
 227 303 316 384 406 384 c 256
 478 384 523 335 523 270 c 0
 523 180 438 92 344 92 c 256
 274 92 227 143 227 208 c 0
417 436 m 0
 283 436 174 313 174 196 c 0
 174 106 240 41 333 41 c 0
 455 41 577 153 577 282 c 0
 577 373 510 436 417 436 c 0
628 290 m 0
 628 136 482 -9 322 -9 c 256
 199 -9 121 75 121 186 c 0
 121 344 269 487 428 487 c 0
 546 487 628 403 628 290 c 0
EndSplineSet
Validated: 1
EndChar

StartChar: uni0E50
Encoding: 3664 3664 287
Width: 815
VWidth: 1467
Flags: W
HStem: -1 45<324.391 523.509> 443 47<404.138 613.128>
VStem: 180 46<137.533 291.217> 703 42<201.797 357.89>
LayerCount: 2
Fore
SplineSet
180 203 m 0
 180 347 352 490 515 490 c 0
 650 490 745 393 745 283 c 0
 745 148 586 -1 411 -1 c 0
 274 -1 180 93 180 203 c 0
505 443 m 0
 329 443 226 305 226 214 c 0
 226 128 300 44 421 44 c 0
 563 44 703 157 703 283 c 0
 703 370 636 443 505 443 c 0
EndSplineSet
Validated: 1
EndChar

StartChar: uni0E51
Encoding: 3665 3665 288
Width: 815
VWidth: 1467
Flags: W
HStem: 0 39<293.535 542.598> 153 35<328.376 475.099> 278 36<400.075 528.01> 442 36<385.991 598.662>
VStem: 199 43<231.99 336.512> 321 26<201.21 237.199> 529 26<230.666 271.734> 696 45<262.632 371.871>
LayerCount: 2
Fore
SplineSet
321 207 m 0
 321 269 417 314 472 314 c 0
 522 314 555 292 555 258 c 0
 555 205 482 153 383 153 c 0
 303 153 199 178 199 261 c 0
 199 359 308 478 513 478 c 0
 611 478 741 446 741 342 c 2
 741 329 l 2
 741 313 738 299 735 282 c 2
 713 180 l 2
 705 141 672 78 607 44 c 0
 533 6 441 0 402 0 c 0
 263 0 187 54 177 88 c 1
 236 106 l 1
 245 91 l 2
 264 61 332 39 408 39 c 0
 474 39 543 53 591 76 c 0
 637 101 665 155 677 214 c 2
 694 291 l 2
 696 299 696 306 696 313 c 0
 696 391 605 442 491 442 c 0
 323 442 242 342 242 276 c 0
 242 254 254 221 322 201 c 1
 321 202 321 204 321 207 c 0
482 278 m 0
 417 278 347 247 347 212 c 0
 347 197 360 188 398 188 c 0
 470 188 529 228 529 255 c 0
 529 274 500 278 482 278 c 0
EndSplineSet
Validated: 1
EndChar

StartChar: uni0E52
Encoding: 3666 3666 289
Width: 815
VWidth: 1467
Flags: W
HStem: 0 37<255.424 561.574> 244 26<339.205 379.727> 455 25<367.336 407.269>
VStem: 116 50<119.424 316.594> 210 46<624.193 657> 290 37<275.214 404.662> 418 37<316.567 380> 753 47<278.273 407.101>
LayerCount: 2
Fore
SplineSet
290 326 m 0
 290 395 338 480 396 480 c 0
 414 480 428 472 440 456 c 1
 541 355 l 1
 571 383 643 432 679 477 c 1
 752 467 800 422 800 344 c 0
 800 329 798 313 794 295 c 2
 782 238 l 2
 754 108 627 0 494 0 c 2
 307 0 l 2
 190 0 116 84 116 189 c 0
 116 205 117 221 121 238 c 2
 210 657 l 1
 256 657 l 1
 173 268 l 2
 168 245 166 225 166 206 c 0
 166 73 277 37 332 37 c 2
 483 37 l 2
 547 39 703 83 742 267 c 2
 748 298 l 2
 751 314 753 328 753 341 c 0
 753 396 724 422 689 439 c 1
 537 305 l 1
 455 380 l 1
 455 358 427 244 349 244 c 0
 314 244 290 277 290 326 c 0
389 455 m 256
 361 455 327 383 327 338 c 0
 327 309 335 270 359 270 c 0
 388 270 418 342 418 390 c 0
 418 420 411 455 389 455 c 256
EndSplineSet
Validated: 1
EndChar

StartChar: uni0E53
Encoding: 3667 3667 290
Width: 815
VWidth: 1467
Flags: W
HStem: -3 36<254.502 388.05> 126 34<303.115 436.716>
VStem: 152 48<81.2937 270.242> 440 27<74.4351 118.459> 715 49<282.7 394.312>
LayerCount: 2
Fore
SplineSet
467 103 m 0
 467 46 385 -3 308 -3 c 0
 255 -3 152 40 152 146 c 0
 152 159 153 172 156 186 c 2
 183 314 l 2
 205 421 319 481 448 493 c 1
 484 373 l 1
 518 413 538 451 571 493 c 1
 683 482 764 433 764 346 c 0
 764 336 763 325 761 314 c 2
 694 1 l 1
 647 1 l 1
 711 301 l 2
 713 312 715 323 715 333 c 0
 715 408 647 435 578 447 c 1
 467 293 l 1
 422 447 l 1
 375 440 252 418 227 301 c 2
 207 208 l 2
 202 185 200 166 200 151 c 0
 200 99 221 82 229 73 c 1
 246 128 322 160 382 160 c 0
 425 160 467 142 467 103 c 0
306 33 m 0
 364 33 440 65 440 99 c 0
 440 120 414 126 385 126 c 0
 318 126 252 91 252 59 c 0
 252 38 284 33 306 33 c 0
EndSplineSet
Validated: 1
EndChar

StartChar: uni0E54
Encoding: 3668 3668 291
Width: 815
VWidth: 1467
Flags: W
HStem: 0 41<291.776 505 555.123 706> 119 30<519.109 571.704> 292 30<604.679 671.143> 442 39<403.147 677.891>
VStem: 155 53<120.527 276.178> 470 34<119.775 199.751> 672 26<243.519 290.218> 796 46<608.682 654>
LayerCount: 2
Fore
SplineSet
470 127 m 0
 470 235 576 322 649 322 c 0
 680 322 698 301 698 273 c 0
 698 208 602 119 529 119 c 0
 525 119 523 120 519 120 c 1
 537 42 601 40 644 40 c 2
 715 41 l 1
 706 0 l 1
 336 0 l 2
 281 0 155 54 155 182 c 0
 155 307 283 481 497 481 c 2
 568 481 l 2
 658 481 749 502 796 654 c 1
 842 654 l 1
 794 533 727 442 584 442 c 2
 503 442 l 2
 350 442 208 320 208 199 c 0
 208 122 262 54 349 41 c 1
 505 41 l 1
 476 69 470 103 470 127 c 0
650 292 m 0
 595 292 504 200 504 168 c 0
 504 157 513 149 525 149 c 0
 587 149 672 241 672 273 c 0
 672 284 662 292 650 292 c 0
EndSplineSet
Validated: 1
EndChar

StartChar: uni0E55
Encoding: 3669 3669 292
Width: 815
VWidth: 1467
Flags: W
HStem: 0 40<298.341 495 543.127 689> 118 30<508.03 561.423> 286 28<593.963 656.485> 433 37<440.674 580.697> 555 35<451.727 585.922>
VStem: 156 48<117.215 259.368> 397 26<488.494 531.887> 462 30<111 198.446> 602 26<494.186 535.18> 657 27<235.426 284.755> 779 42<595.384 638>
LayerCount: 2
Fore
SplineSet
684 267 m 0
 684 201 583 118 519 118 c 0
 516 118 512 119 508 119 c 1
 513 84 541 56 568 45 c 0
 581 41 601 38 630 38 c 2
 698 40 l 1
 689 0 l 1
 331 0 l 1
 295 6 156 37 156 165 c 0
 156 277 258 420 415 461 c 1
 401 475 397 488 397 499 c 0
 397 560 472 590 527 590 c 0
 583 590 628 564 628 526 c 0
 628 516 626 493 600 471 c 1
 644 476 735 495 779 638 c 1
 821 638 l 1
 772 516 710 433 571 433 c 2
 490 433 l 2
 361 433 204 310 204 186 c 0
 204 94 295 58 343 40 c 1
 495 40 l 1
 471 62 462 94 462 128 c 0
 462 144 464 160 467 176 c 0
 480 234 560 314 637 314 c 0
 671 314 684 291 684 267 c 0
514 148 m 0
 571 148 657 230 657 268 c 0
 657 282 645 286 636 286 c 0
 590 286 492 205 492 165 c 0
 492 155 502 148 514 148 c 0
520 555 m 0
 473 555 423 537 423 510 c 0
 423 487 461 470 502 470 c 0
 547 470 602 488 602 516 c 0
 602 540 554 555 520 555 c 0
EndSplineSet
Validated: 1
EndChar

StartChar: uni0E56
Encoding: 3670 3670 293
Width: 815
VWidth: 1459
Flags: W
HStem: -3 44<361.637 534.771> 249 26<310.181 353.658> 453 35<351.273 597.436>
VStem: 245 49<536.389 659.97> 248 38<81.0059 223.962> 252 42<601.845 661> 373 38<92.3362 235.135> 707 51<191.297 358.816>
LayerCount: 2
Fore
SplineSet
248 150 m 0xeb
 248 217 291 275 335 275 c 0
 381 275 411 225 411 168 c 0
 411 118 389 76 361 57 c 1
 386 45 410 41 432 41 c 0
 546 41 707 137 707 276 c 0
 707 371 629 453 515 453 c 2
 438 453 l 2
 339 453 245 485 245 601 c 0xf3
 245 619 247 639 252 661 c 1
 294 661 l 1xe7
 294 642 l 2xf3
 294 538 313 488 455 488 c 2
 526 488 l 2
 680 488 758 387 758 282 c 0
 758 108 558 -3 429 -3 c 0
 373 -3 323 18 276 58 c 0
 261 74 248 111 248 150 c 0xeb
324 68 m 0
 363 68 373 135 373 165 c 0
 373 213 353 249 334 249 c 0
 302 249 286 196 286 155 c 0xeb
 286 108 304 68 324 68 c 0
EndSplineSet
Validated: 1
EndChar

StartChar: uni0E57
Encoding: 3671 3671 294
Width: 890
VWidth: 1463
Flags: W
HStem: -5 35<205.998 340.79> 122 35<254.933 391.046>
VStem: 103 48<77.0553 262.438> 393 26<74.1178 113.955> 665 46<203.672 392.33>
LayerCount: 2
Fore
SplineSet
419 98 m 0
 419 39 330 -5 263 -5 c 0
 189 -5 103 42 103 142 c 0
 103 155 105 169 108 184 c 2
 135 310 l 2
 158 418 262 474 399 490 c 1
 437 370 l 1
 473 416 478 431 522 490 c 1
 668 473 711 416 711 338 c 0
 711 317 708 294 703 270 c 2
 677 144 l 2
 672 123 650 79 601 37 c 1
 625 39 670 48 733 108 c 0
 777 149 806 201 819 264 c 2
 896 624 l 1
 941 624 l 1
 858 235 l 2
 831 109 746 17 614 5 c 0
 604 4 573 0 513 0 c 1
 526 31 l 1
 548 41 607 60 634 159 c 2
 663 297 l 2
 664 307 665 315 665 324 c 0
 665 395 618 422 578 432 c 2
 529 445 l 1
 420 291 l 1
 374 445 l 1
 320 432 l 2
 285 425 199 391 179 297 c 2
 159 204 l 2
 153 178 151 158 151 141 c 0
 151 105 163 89 179 69 c 1
 197 129 282 157 334 157 c 0
 364 157 419 144 419 98 c 0
336 122 m 0
 283 122 203 92 203 56 c 0
 203 32 243 30 266 30 c 0
 331 30 393 71 393 97 c 0
 393 117 359 122 336 122 c 0
EndSplineSet
Validated: 1
EndChar

StartChar: uni0E58
Encoding: 3672 3672 295
Width: 815
VWidth: 1464
Flags: W
HStem: 0 21G<267.5 329.252 480.977 573> 120 28<634.846 678.5> 287 29<583.459 649.987> 431 40<408.833 669.525>
VStem: 158 49<110.115 260.16> 549 29<208.826 281.161> 705 28<154.475 226.298> 776 47<573.247 635>
LayerCount: 2
Fore
SplineSet
549 235 m 0
 549 281 580 316 623 316 c 0
 674 316 733 270 733 202 c 0
 733 121 656 24 490 0 c 1
 430 133 l 1
 423 124 415 114 405 103 c 2
 311 0 l 1
 224 10 158 81 158 167 c 0
 158 292 299 471 484 471 c 2
 553 471 l 2
 675 471 747 499 776 635 c 1
 823 635 l 1
 788 472 663 431 553 431 c 2
 501 431 l 2
 353 431 207 291 207 189 c 0
 207 126 251 56 305 47 c 1
 443 192 l 1
 509 47 l 1
 558 58 l 2
 603 68 649 97 671 122 c 1
 666 121 660 120 654 120 c 0
 602 120 549 174 549 235 c 0
672 148 m 0
 685 148 705 155 705 183 c 0
 705 226 655 287 611 287 c 0
 599 287 578 280 578 253 c 0
 578 211 629 148 672 148 c 0
EndSplineSet
Validated: 1
EndChar

StartChar: uni0E59
Encoding: 3673 3673 296
Width: 883
VWidth: 1458
Flags: W
HStem: -3 27<247.5 314.665> 205 25<336.862 378.184> 444 37<660 827.036>
VStem: 108 49<87.5945 260.945> 234 34<38.4796 121.421> 382 34<106.3 204.146> 934 50<596.597 654>
LayerCount: 2
Fore
SplineSet
416 168 m 0
 416 101 358 -3 271 -3 c 0
 224 -3 108 38 108 162 c 0
 108 295 246 479 437 488 c 1
 507 315 l 1
 562 381 585 416 642 481 c 1
 706 481 l 2
 844 481 905 516 934 654 c 1
 984 654 l 1
 940 502 859 444 707 444 c 2
 660 444 l 1
 525 270 l 1
 611 47 l 1
 581 1 l 1
 402 447 l 1
 260 422 157 281 157 167 c 0
 157 121 174 66 237 38 c 1
 235 45 234 53 234 61 c 0
 234 140 308 230 364 230 c 0
 405 230 416 199 416 168 c 0
290 24 m 0
 318 24 382 103 382 171 c 0
 382 189 377 205 361 205 c 0
 334 205 268 125 268 59 c 0
 268 41 273 24 290 24 c 0
EndSplineSet
Validated: 1
EndChar

StartChar: uni0E5A
Encoding: 3674 3674 297
Width: 686
VWidth: 1467
Flags: W
HStem: -1 22G<358 412.238 543 597.241> 389 36<256.15 339.916> 552 30<230.654 279.43>
VStem: 192 34<461.051 549.883> 314 34<427.282 515.622>
LayerCount: 2
Fore
SplineSet
192 499 m 0
 192 555 230 582 260 582 c 0
 300 582 348 539 348 480 c 0
 348 453 339 436 334 427 c 1
 392 441 448 512 474 546 c 1
 524 546 l 1
 498 423 l 1
 565 442 615 482 659 547 c 1
 709 547 l 1
 593 0 l 1
 543 0 l 1
 643 470 l 1
 638 466 591 403 490 386 c 1
 408 -1 l 1
 358 -1 l 1
 457 468 l 1
 413 424 365 389 288 389 c 0
 243 389 192 438 192 499 c 0
251 552 m 0
 246 552 226 547 226 516 c 0
 226 477 258 425 287 425 c 0
 298 425 314 431 314 464 c 0
 314 509 274 552 251 552 c 0
EndSplineSet
Validated: 1
EndChar

StartChar: uni0E5B
Encoding: 3675 3675 298
Width: 1142
VWidth: 1467
Flags: W
HStem: 12 49<254.528 452.662> 195 28<358.503 403.964> 347 29<988.062 1102.68> 402 28<421.268 469.294> 525 44<332.195 448.922>
VStem: 146 49<126.694 330.712> 324 32<223.455 318.025> 472 42<311.263 499.475> 623 39<283.105 383> 690 40<211.551 366.299>
LayerCount: 2
Fore
SplineSet
623 401 m 0
 623 456 612 452 607 462 c 1
 651 462 l 1
 705 413 730 344 730 271 c 0
 730 258 729 244 727 230 c 1
 799 312 818 459 818 461 c 1
 828 424 836 394 841 370 c 2
 853 314 l 2
 857 294 862 276 877 260 c 1
 916 298 921 361 926 408 c 2
 930 443 l 1
 946 431 969 376 1051 376 c 0
 1092 376 1139 390 1181 425 c 1
 1161 397 1113 347 1035 347 c 0
 1021 347 992 348 950 376 c 1
 950 372 945 343 943 334 c 0
 929 268 907 246 887 224 c 1
 860 222 l 1
 841 249 829 273 825 294 c 2
 815 349 l 1
 789 251 761 219 719 191 c 1
 675 191 l 1
 683 222 690 243 690 277 c 0
 690 306 684 343 662 383 c 1
 662 373 l 2
 662 299 632 205 571 125 c 0
 492 35 428 12 343 12 c 0
 290 12 251 23 207 50 c 0
 164 75 146 131 146 198 c 0
 146 351 242 569 417 569 c 0
 492 569 514 504 514 435 c 0
 514 280 432 195 376 195 c 0
 339 195 324 226 324 261 c 0
 324 334 392 430 451 430 c 0
 460 430 470 427 472 427 c 1
 470 465 458 525 407 525 c 0
 281 525 195 366 195 229 c 0
 195 151 223 76 300 66 c 0
 321 63 342 61 362 61 c 0
 413 61 463 76 530 139 c 0
 578 191 623 309 623 401 c 0
450 402 m 0
 412 402 356 315 356 252 c 0
 356 237 361 223 376 223 c 0
 412 223 472 308 472 371 c 0
 472 387 467 402 450 402 c 0
EndSplineSet
Validated: 1
EndChar

StartChar: zerowidthnonjoiner
Encoding: 8204 8204 299
Width: 0
VWidth: 1467
Flags: W
LayerCount: 2
Back
SplineSet
-53 -393 m 1
 -101 -393 l 1
 59 411 l 1
 107 411 l 1
 -53 -393 l 1
EndSplineSet
EndChar

StartChar: zerowidthjoiner
Encoding: 8205 8205 300
Width: 0
VWidth: 1467
Flags: W
LayerCount: 2
Back
SplineSet
-66 -452 m 1
 -114 -452 l 1
 18 220 l 1
 -13 189 l 1
 -34 214 l 1
 29 270 l 1
 -10 327 l 1
 18 352 l 1
 57 296 l 1
 125 352 l 1
 144 327 l 1
 78 270 l 1
 120 214 l 1
 88 189 l 1
 66 220 l 1
 -66 -452 l 1
EndSplineSet
EndChar

StartChar: lefttorightmark
Encoding: 8206 8206 301
Width: 0
VWidth: 1467
Flags: W
LayerCount: 2
Back
SplineSet
-66 -452 m 1
 -114 -452 l 1
 35 299 l 1
 227 299 l 1
 208 326 l 1
 236 351 l 1
 298 273 l 1
 204 195 l 1
 186 222 l 1
 216 246 l 1
 72 246 l 1
 -66 -452 l 1
EndSplineSet
EndChar

StartChar: righttoleftmark
Encoding: 8207 8207 302
Width: 0
VWidth: 1467
Flags: W
LayerCount: 2
Back
SplineSet
-66 -452 m 1
 -114 -452 l 1
 23 246 l 1
 -110 246 l 1
 -92 222 l 1
 -119 195 l 1
 -180 273 l 1
 -89 351 l 1
 -70 326 l 1
 -101 299 l 1
 84 299 l 1
 -66 -452 l 1
EndSplineSet
EndChar

StartChar: endash
Encoding: 8211 8211 303
Width: 528
VWidth: 1467
Flags: W
HStem: 245 43<85 540>
LayerCount: 2
Fore
SplineSet
76 245 m 1
 85 288 l 1
 549 288 l 1
 540 245 l 1
 76 245 l 1
EndSplineSet
Validated: 1
EndChar

StartChar: emdash
Encoding: 8212 8212 304
Width: 1056
VWidth: 1467
Flags: W
HStem: 245 43<87 1064>
LayerCount: 2
Fore
SplineSet
78 245 m 1
 87 288 l 1
 1073 288 l 1
 1064 245 l 1
 78 245 l 1
EndSplineSet
Validated: 1
EndChar

StartChar: quoteleft
Encoding: 8216 8216 305
Width: 299
VWidth: 1467
Flags: W
HStem: 489 196 569 20G<288.5 300.5>
VStem: 208 113<518.105 579.979>
LayerCount: 2
Fore
SplineSet
321 564 m 0x60
 321 534 284 489 242 489 c 0
 222 489 208 504 208 526 c 0
 208 564 249 646 320 685 c 1
 354 685 l 1xa0
 317 664 277 625 261 581 c 1
 274 586 284 589 293 589 c 0
 308 589 321 581 321 564 c 0x60
EndSplineSet
Validated: 1
EndChar

StartChar: quoteright
Encoding: 8217 8217 306
Width: 303
VWidth: 1467
Flags: W
HStem: 490 196 586 21G<252.5 262>
VStem: 228 113<595.074 656.895>
LayerCount: 2
Fore
SplineSet
228 611 m 0x60
 228 641 265 686 307 686 c 0
 327 686 341 670 341 648 c 0
 341 622 315 542 229 490 c 1
 195 490 l 1xa0
 231 513 272 550 287 594 c 1
 276 589 266 586 258 586 c 0
 247 586 228 591 228 611 c 0x60
EndSplineSet
Validated: 1
EndChar

StartChar: quotesinglbase
Encoding: 8218 8218 307
Width: 184
VWidth: 1467
Flags: W
HStem: -109 196 -12 21G<63 75.5>
VStem: 44 113<-3.37646 59.0259>
LayerCount: 2
Fore
SplineSet
44 13 m 0x60
 44 49 87 87 122 87 c 0
 144 87 157 68 157 48 c 0
 157 30 141 -18 109 -54 c 0
 86 -78 64 -97 44 -109 c 1
 11 -109 l 1xa0
 48 -86 87 -50 103 -4 c 1
 91 -9 80 -12 71 -12 c 0
 55 -12 44 -3 44 13 c 0x60
EndSplineSet
Validated: 1
EndChar

StartChar: quotedblleft
Encoding: 8220 8220 308
Width: 500
VWidth: 1467
Flags: W
HStem: 489 100<261.607 291.574 452.606 482.574>
VStem: 208 113<518.105 579.979> 399 113<518.105 579.033>
LayerCount: 2
Fore
SplineSet
321 564 m 0
 321 534 284 489 242 489 c 0
 222 489 208 504 208 526 c 0
 208 564 249 646 320 685 c 1
 354 685 l 1
 317 664 277 625 261 581 c 1
 274 586 284 589 293 589 c 0
 308 589 321 581 321 564 c 0
512 564 m 0
 512 534 475 489 433 489 c 0
 411 489 399 506 399 526 c 0
 399 558 434 642 511 685 c 1
 545 685 l 1
 508 664 468 625 452 581 c 1
 465 586 474 589 483 589 c 0
 495 589 512 584 512 564 c 0
EndSplineSet
Validated: 1
EndChar

StartChar: quotedblright
Encoding: 8221 8221 309
Width: 516
VWidth: 1467
Flags: W
HStem: 586 100<257.426 286.485 462.434 492.44>
VStem: 228 113<595.074 656.895> 434 112<594.634 657.221>
LayerCount: 2
Fore
SplineSet
228 611 m 0
 228 641 265 686 307 686 c 0
 327 686 341 670 341 648 c 0
 341 622 315 542 229 490 c 1
 195 490 l 1
 231 513 272 550 287 594 c 1
 276 589 266 586 258 586 c 0
 247 586 228 591 228 611 c 0
434 611 m 0
 434 642 472 686 512 686 c 0
 534 686 546 669 546 649 c 0
 546 617 515 538 434 490 c 1
 400 490 l 1
 437 513 477 549 493 594 c 1
 481 589 472 586 463 586 c 0
 451 586 434 591 434 611 c 0
EndSplineSet
Validated: 1
EndChar

StartChar: quotedblbase
Encoding: 8222 8222 310
Width: 443
VWidth: 1467
Flags: W
HStem: -12 99<94.57 126.438 286.364 316.439>
VStem: 67 113<-3.69922 59.0414> 258 113<-3.52888 59.0414>
LayerCount: 2
Fore
SplineSet
67 13 m 0
 67 48 107 87 145 87 c 0
 168 87 180 69 180 49 c 0
 180 26 159 -52 68 -109 c 1
 34 -109 l 1
 71 -86 111 -49 127 -4 c 1
 115 -9 104 -12 95 -12 c 0
 84 -12 67 -7 67 13 c 0
258 13 m 0
 258 48 300 87 336 87 c 0
 357 87 371 71 371 50 c 0
 371 18 340 -58 259 -109 c 1
 225 -109 l 1
 262 -86 301 -50 317 -4 c 1
 305 -9 295 -12 286 -12 c 0
 275 -12 258 -7 258 13 c 0
EndSplineSet
Validated: 1
EndChar

StartChar: dagger
Encoding: 8224 8224 311
Width: 450
VWidth: 1467
Flags: W
HStem: 439 35<152 294 337 482> 695 20G<348.768 388>
LayerCount: 2
Fore
SplineSet
490 474 m 1
 482 439 l 1
 329 439 l 1
 225 -53 l 1
 190 -53 l 1
 294 439 l 1
 144 439 l 1
 152 474 l 1
 302 474 l 1
 353 715 l 1
 388 715 l 1
 337 474 l 1
 490 474 l 1
EndSplineSet
Validated: 1
EndChar

StartChar: daggerdbl
Encoding: 8225 8225 312
Width: 450
VWidth: 1467
Flags: W
HStem: 292 35<121 263 306 451> 439 35<152 294 337 482> 695 20G<348.768 388>
LayerCount: 2
Fore
SplineSet
482 439 m 1
 329 439 l 1
 306 327 l 1
 459 327 l 1
 451 292 l 1
 298 292 l 1
 225 -53 l 1
 190 -53 l 1
 263 292 l 1
 113 292 l 1
 121 327 l 1
 271 327 l 1
 294 439 l 1
 144 439 l 1
 152 474 l 1
 302 474 l 1
 353 715 l 1
 388 715 l 1
 337 474 l 1
 490 474 l 1
 482 439 l 1
EndSplineSet
Validated: 1
EndChar

StartChar: bullet
Encoding: 8226 8226 313
Width: 463
VWidth: 1467
Flags: W
VStem: 154 298<293.992 390.906>
LayerCount: 2
Fore
SplineSet
154 282 m 0
 154 407 242 536 344 536 c 0
 414 536 452 477 452 399 c 0
 452 279 362 153 263 153 c 0
 215 153 154 186 154 282 c 0
EndSplineSet
Validated: 1
EndChar

StartChar: ellipsis
Encoding: 8230 8230 314
Width: 1035
VWidth: 1467
Flags: W
HStem: 3 115<157.375 208.341 507.984 558.888 853.936 905.375>
VStem: 139 89<21.9844 100.129> 489 89<21.5544 100.263> 833 90<19.6699 97.1788>
LayerCount: 2
Fore
SplineSet
139 40 m 0
 139 75 161 118 195 118 c 0
 216 118 228 102 228 78 c 0
 228 41 200 3 171 3 c 0
 157 3 139 11 139 40 c 0
489 42 m 0
 489 75 512 118 546 118 c 0
 566 118 578 102 578 78 c 0
 578 41 551 3 522 3 c 0
 501 3 489 19 489 42 c 0
833 38 m 0
 833 74 856 116 891 116 c 0
 912 116 923 98 923 75 c 0
 923 39 895 1 866 1 c 0
 844 1 833 16 833 38 c 0
EndSplineSet
Validated: 1
EndChar

StartChar: perthousand
Encoding: 8240 8240 315
Width: 1203
VWidth: 1467
Flags: W
HStem: -13 21G<157 223.203> 4 41<581.119 674.262 975.636 1059.84> 289 41<205.817 297.434> 368 41<636.781 733.273 1022.35 1120.63> 653 41<263.166 351.528>
VStem: 124 53<358.652 543.077> 385 55<441.617 618.064> 500 54<71.139 258.165> 763 53<159.491 336.836> 887 55<79.7597 258.173> 1151 53<162.384 335.116>
LayerCount: 2
Fore
SplineSet
207 -13 m 1xbfe0
 157 -13 l 1
 733 698 l 1
 783 698 l 1
 207 -13 l 1xbfe0
324 694 m 0
 399 694 440 629 440 548 c 0
 440 423 347 289 235 289 c 0
 173 289 124 346 124 435 c 0
 124 567 221 694 324 694 c 0
385 531 m 0
 385 590 359 653 311 653 c 0
 255 653 177 551 177 442 c 0
 177 379 203 330 249 330 c 0
 318 330 385 449 385 531 c 0
613 4 m 0x7fe0
 549 4 500 62 500 151 c 0
 500 271 590 409 700 409 c 0
 775 409 816 345 816 264 c 0
 816 143 726 4 613 4 c 0x7fe0
763 253 m 0
 763 308 743 368 686 368 c 0
 620 368 554 256 554 154 c 0
 554 92 578 45 626 45 c 0
 691 45 763 157 763 253 c 0
1000 7 m 0
 936 7 887 65 887 153 c 0
 887 282 986 412 1088 412 c 0
 1163 412 1204 350 1204 268 c 0
 1204 141 1111 7 1000 7 c 0
1151 251 m 0
 1151 311 1123 371 1077 371 c 256
 1011 371 942 263 942 168 c 0
 942 108 966 48 1014 48 c 0
 1086 48 1151 167 1151 251 c 0
EndSplineSet
Validated: 1
EndChar

StartChar: minute
Encoding: 8242 8242 316
Width: 190
VWidth: 1467
Flags: W
HStem: 505 192
VStem: 149 147
LayerCount: 2
Fore
SplineSet
189 505 m 1
 149 505 l 1
 227 697 l 1
 296 697 l 1
 189 505 l 1
EndSplineSet
Validated: 1
EndChar

StartChar: second
Encoding: 8243 8243 317
Width: 318
VWidth: 1467
Flags: W
HStem: 503 192
VStem: 149 275
LayerCount: 2
Fore
SplineSet
317 503 m 1
 277 503 l 1
 355 695 l 1
 424 695 l 1
 317 503 l 1
189 503 m 1
 149 503 l 1
 227 695 l 1
 296 695 l 1
 189 503 l 1
EndSplineSet
Validated: 1
EndChar

StartChar: guilsinglleft
Encoding: 8249 8249 318
Width: 325
VWidth: 1467
Flags: W
VStem: 72 321
LayerCount: 2
Fore
SplineSet
72 263 m 1
 150 295 258 355 344 449 c 1
 393 449 l 1
 310 356 181 276 148 266 c 1
 192 247 290 143 316 85 c 1
 270 85 l 1
 195 201 122 248 72 263 c 1
EndSplineSet
Validated: 1
EndChar

StartChar: guilsinglright
Encoding: 8250 8250 319
Width: 302
VWidth: 1467
Flags: W
VStem: 28 323
LayerCount: 2
Fore
SplineSet
351 271 m 1
 277 241 166 178 78 85 c 1
 28 85 l 1
 126 187 244 259 274 268 c 1
 235 284 133 388 107 447 c 1
 152 447 l 1
 202 367 283 291 351 271 c 1
EndSplineSet
Validated: 1
EndChar

StartChar: fraction
Encoding: 8260 8260 320
Width: 155
VWidth: 1467
Flags: W
HStem: 0 21G<-79 -24.4775>
LayerCount: 2
Fore
SplineSet
-37 0 m 1
 -79 0 l 1
 338 666 l 1
 380 666 l 1
 -37 0 l 1
EndSplineSet
Validated: 1
EndChar

StartChar: Euro
Encoding: 8364 8364 321
Width: 664
VWidth: 1467
Flags: W
HStem: -18 36<250.267 451.453> 246 47<72 150 207 489> 412 47<108 186 243 525> 590 21G<647 700> 678 34<387.678 585.298>
VStem: 125 51<75.373 166.8> 656 44<603.455 629.313>
LayerCount: 2
Fore
SplineSet
656 590 m 1
 638 674 513 678 490 678 c 0
 338 678 270 588 260 540 c 2
 243 459 l 1
 535 459 l 1
 525 412 l 1
 233 412 l 1
 207 293 l 1
 499 293 l 1
 489 246 l 1
 197 246 l 1
 178 156 l 2
 177 150 176 143 176 136 c 0
 176 83 219 18 350 18 c 0
 381 18 501 22 554 106 c 1
 590 89 l 1
 538 16 429 -18 332 -18 c 0
 188 -18 125 54 125 117 c 0
 125 123 126 130 127 136 c 2
 150 246 l 1
 62 246 l 1
 72 293 l 1
 160 293 l 1
 186 412 l 1
 98 412 l 1
 108 459 l 1
 196 459 l 1
 217 559 l 2
 232 631 334 712 489 712 c 0
 587 712 680 678 700 606 c 1
 656 590 l 1
EndSplineSet
Validated: 1
EndChar

StartChar: uni2113
Encoding: 8467 8467 322
Width: 312
VWidth: 1467
Flags: W
HStem: -5 45<150.5 240.148> 628 40<296.643 349.986>
VStem: 120 46<41.8134 107.278> 351 38<518.862 627.48>
LayerCount: 2
Fore
SplineSet
164 -5 m 0
 137 -5 120 9 120 47 c 0
 120 58 122 71 125 87 c 2
 171 301 l 1
 110 264 l 1
 78 298 l 1
 183 357 l 1
 211 489 l 2
 237 608 279 668 338 668 c 0
 372 665 389 643 389 601 c 0
 389 563 366 424 220 324 c 1
 167 75 l 2
 166 71 166 67 166 64 c 0
 166 48 175 40 192 40 c 0
 211 40 238 48 276 65 c 1
 269 31 l 1
 237 15 202 -5 164 -5 c 0
231 377 m 1
 324 458 351 562 351 597 c 0
 351 617 343 628 328 628 c 0
 299 628 275 586 257 511 c 2
 231 377 l 1
EndSplineSet
Validated: 1
EndChar

StartChar: trademark
Encoding: 8482 8482 323
Width: 836
VWidth: 1467
Flags: W
HStem: 508 21G<679.5 708> 672 26<189 325 353 495>
LayerCount: 2
Fore
SplineSet
189 698 m 1
 500 698 l 1
 495 671 l 1
 353 672 l 1
 269 279 l 1
 241 279 l 1
 325 672 l 1
 184 672 l 1
 189 698 l 1
705 555 m 1
 758 616 855 685 896 701 c 1
 925 701 l 1
 835 279 l 1
 809 279 l 1
 893 675 l 1
 856 663 721 550 695 508 c 1
 664 593 603 657 566 673 c 1
 482 279 l 1
 456 279 l 1
 546 701 l 1
 573 701 l 1
 607 683 672 625 705 555 c 1
EndSplineSet
Validated: 1
EndChar

StartChar: Ohm
Encoding: 8486 8486 324
Width: 679
VWidth: 1467
Flags: W
HStem: 0 38<55 229 455 619> 630 43<380.536 561.059>
VStem: 140 51<254.28 441.227> 642 53<354.18 545.371>
LayerCount: 2
Fore
SplineSet
140 342 m 0
 140 502 289 673 480 673 c 0
 619 673 695 578 695 462 c 0
 695 343 616 215 474 134 c 1
 455 41 l 1
 628 41 l 1
 619 0 l 1
 392 0 l 1
 423 147 l 1
 572 229 642 330 642 450 c 0
 642 549 587 630 476 630 c 0
 332 630 191 488 191 344 c 0
 191 274 225 204 309 153 c 1
 276 0 l 1
 47 0 l 1
 55 38 l 1
 229 38 l 1
 249 134 l 1
 172 191 140 267 140 342 c 0
EndSplineSet
Validated: 1
EndChar

StartChar: estimated
Encoding: 8494 8494 325
Width: 468
VWidth: 1467
Flags: W
HStem: -5 38<182.217 312.629> 244 45<159 409.99> 534 40<278.913 406.827>
VStem: 89 43<81.0625 187.309> 448 42<330.292 492.585>
LayerCount: 2
Fore
SplineSet
420 116 m 1
 367 21 284 -5 229 -5 c 0
 138 -5 89 64 89 130 c 0
 89 139 90 147 92 156 c 2
 144 402 l 2
 163 488 262 574 352 574 c 0
 446 574 490 501 490 423 c 0
 490 409 489 395 486 381 c 0
 462 268 421 244 290 244 c 2
 150 244 l 1
 135 176 l 2
 133 167 132 159 132 150 c 0
 132 91 173 33 245 33 c 0
 292 33 356 58 394 135 c 1
 420 116 l 1
299 289 m 2
 399 289 426 294 446 387 c 0
 448 397 448 408 448 418 c 0
 448 485 411 534 347 534 c 0
 271 534 196 462 179 381 c 2
 159 289 l 1
 299 289 l 2
EndSplineSet
Validated: 1
EndChar

StartChar: partialdiff
Encoding: 8706 8706 326
Width: 473
VWidth: 1467
Flags: W
HStem: -11 52<119.899 263.267> 634 51<291.505 467.768>
VStem: 47 55<60.0263 202.366> 501 49<459.242 601.71>
LayerCount: 2
Fore
SplineSet
471 399 m 1
 435 369 400 343 348 332 c 2
 281 314 l 2
 181 288 124 237 107 154 c 0
 104 139 102 126 102 115 c 0
 102 46 157 41 194 41 c 0
 250 41 304 68 346 104 c 2
 392 142 l 1
 395 147 l 1
 471 399 l 1
173 -11 m 0
 125 -11 47 13 47 105 c 0
 47 118 49 132 52 148 c 0
 96 355 260 348 364 379 c 1
 364 379 501 413 501 534 c 0
 501 579 482 634 394 634 c 0
 334 634 261 607 208 575 c 1
 236 637 l 1
 296 671 351 685 398 685 c 0
 467 685 550 659 550 556 c 0
 550 541 546 502 538 481 c 2
 439 141 l 1
 434 130 428 122 422 117 c 2
 372 76 l 2
 275 -4 190 -11 173 -11 c 0
EndSplineSet
Validated: 1
EndChar

StartChar: Delta
Encoding: 8710 8710 327
Width: 582
VWidth: 1467
Flags: W
HStem: 0 47<79 518> 571 20G<410.415 430.11>
LayerCount: 2
Fore
SplineSet
576 0 m 1
 -6 0 l 1
 425 591 l 1
 576 0 l 1
518 47 m 1
 406 493 l 1
 79 47 l 1
 518 47 l 1
EndSplineSet
Validated: 1
EndChar

StartChar: product
Encoding: 8719 8719 328
Width: 704
VWidth: 1467
Flags: W
HStem: 612 53<259 692>
LayerCount: 2
Fore
SplineSet
583 -153 m 1
 529 -153 l 1
 692 612 l 1
 259 612 l 1
 96 -153 l 1
 42 -153 l 1
 216 665 l 1
 757 665 l 1
 583 -153 l 1
EndSplineSet
Validated: 1
EndChar

StartChar: summation
Encoding: 8721 8721 329
Width: 827
VWidth: 1467
Flags: W
HStem: -226 46<81 722> 607 43<248 899>
LayerCount: 2
Fore
SplineSet
571 236 m 1
 395 247 211 519 186 607 c 1
 195 650 l 1
 908 651 l 1
 899 607 l 1
 248 607 l 1
 284 458 497 265 676 242 c 1
 517 227 110 -86 81 -182 c 1
 128 -181 179 -180 236 -180 c 2
 732 -180 l 1
 722 -226 l 1
 9 -226 l 1
 18 -183 l 1
 98 -52 398 197 571 236 c 1
EndSplineSet
Validated: 1
EndChar

StartChar: minus
Encoding: 8722 8722 330
Width: 494
VWidth: 1467
Flags: W
HStem: 264 49<109 495>
LayerCount: 2
Fore
SplineSet
495 264 m 1
 98 264 l 1
 109 313 l 1
 506 313 l 1
 495 264 l 1
EndSplineSet
Validated: 1
EndChar

StartChar: radical
Encoding: 8730 8730 331
Width: 539
VWidth: 1467
Flags: W
HStem: 337 43<109 176>
LayerCount: 2
Fore
SplineSet
260 15 m 1
 213 15 l 1
 176 337 l 1
 100 337 l 1
 109 380 l 1
 219 380 l 1
 253 81 l 1
 599 665 l 1
 644 665 l 1
 260 15 l 1
EndSplineSet
Validated: 1
EndChar

StartChar: infinity
Encoding: 8734 8734 332
Width: 774
VWidth: 1467
Flags: W
HStem: 137 46<510.615 643.115> 158 40<209.646 341.875> 519 39<268.906 390.3> 531 50<571.815 697.771>
VStem: 136 35<241.448 395.458> 429 43<224.677 279 299.42 406.396> 731 49<306.282 497.254>
LayerCount: 2
Fore
SplineSet
780 427 m 0x1e
 780 320 719 137 554 137 c 0x9e
 496 137 438 168 434 279 c 1
 383 163 295 158 272 158 c 0
 196 158 136 210 136 304 c 0
 136 415 217 558 338 558 c 0x6e
 400 558 442 537 469 445 c 1
 521 573 622 581 652 581 c 0
 742 581 780 512 780 427 c 0x1e
333 519 m 0x6e
 248 519 171 430 171 314 c 0
 171 258 193 198 273 198 c 0
 377 198 429 306 429 402 c 0
 429 473 394 519 333 519 c 0x6e
642 531 m 0x9e
 547 531 472 417 472 303 c 0
 472 229 510 183 575 183 c 0
 700 183 731 338 731 409 c 0
 731 471 710 531 642 531 c 0x9e
EndSplineSet
Validated: 1
EndChar

StartChar: integral
Encoding: 8747 8747 333
Width: 362
VWidth: 1467
Flags: W
HStem: -147 40<-80.3714 17.5896> 620 43<372.276 476.25>
LayerCount: 2
Fore
SplineSet
117 -16 m 2
 87 -99 36 -147 -35 -147 c 0
 -53 -147 -74 -146 -95 -142 c 1
 -79 -103 l 1
 -67 -105 -57 -107 -46 -107 c 0
 7 -107 47 -76 72 -15 c 2
 273 531 l 2
 305 619 365 663 454 663 c 0
 466 663 479 662 492 660 c 1
 474 618 l 1
 464 620 454 620 445 620 c 0
 387 620 345 590 320 530 c 2
 117 -16 l 2
EndSplineSet
Validated: 1
EndChar

StartChar: approxequal
Encoding: 8776 8776 334
Width: 570
VWidth: 1467
Flags: W
HStem: 144 50<357.933 482.578> 204 50<162.416 300.556> 302 51<387.991 514.099> 364 48<192.054 327.156>
LayerCount: 2
Fore
SplineSet
268 412 m 0
 358 412 395 353 455 353 c 0
 483 353 516 366 562 402 c 1
 552 351 l 1
 514 318 476 302 439 302 c 0
 397 302 305 364 256 364 c 0
 225 364 190 346 148 311 c 1
 159 361 l 1
 192 400 232 412 268 412 c 0
245 254 m 0
 321 254 367 194 425 194 c 0
 456 194 491 211 529 245 c 1
 518 194 l 1
 480 158 449 144 417 144 c 0
 351 144 285 204 227 204 c 0
 197 204 164 190 115 154 c 1
 125 202 l 1
 157 237 197 254 245 254 c 0
EndSplineSet
Validated: 1
EndChar

StartChar: notequal
Encoding: 8800 8800 335
Width: 513
VWidth: 1467
Flags: W
HStem: -10 21G<148 206.351> 144 54<103 219 293 468> 352 53<147 313 388 512>
LayerCount: 2
Fore
SplineSet
468 144 m 1
 269 144 l 1
 197 -10 l 1
 148 -10 l 1
 219 144 l 1
 92 144 l 1
 103 198 l 1
 241 198 l 1
 313 352 l 1
 136 352 l 1
 147 405 l 1
 338 405 l 1
 403 546 l 1
 453 546 l 1
 388 405 l 1
 523 405 l 1
 512 352 l 1
 364 352 l 1
 293 198 l 1
 479 198 l 1
 468 144 l 1
EndSplineSet
Validated: 1
EndChar

StartChar: lessequal
Encoding: 8804 8804 336
Width: 534
VWidth: 1467
Flags: W
HStem: 23 43<59 474>
LayerCount: 2
Fore
SplineSet
219 326 m 1
 349 292 448 207 500 147 c 1
 488 91 l 1
 393 225 203 304 117 324 c 1
 358 392 510 495 588 562 c 1
 577 508 l 1
 382 368 259 336 219 326 c 1
50 23 m 1
 59 66 l 1
 483 66 l 1
 474 23 l 1
 50 23 l 1
EndSplineSet
Validated: 1
EndChar

StartChar: greaterequal
Encoding: 8805 8805 337
Width: 514
VWidth: 1467
Flags: W
HStem: 25 42<53 469>
LayerCount: 2
Fore
SplineSet
429 329 m 1
 299 361 199 448 147 508 c 1
 159 563 l 1
 255 429 446 351 531 330 c 1
 411 297 217 225 59 92 c 1
 70 147 l 1
 268 285 384 317 429 329 c 1
478 67 m 1
 469 25 l 1
 44 25 l 1
 53 67 l 1
 478 67 l 1
EndSplineSet
Validated: 1
EndChar

StartChar: lozenge
Encoding: 9674 9674 338
Width: 573
VWidth: 1467
Flags: W
HStem: -23 21G<272.5 325>
LayerCount: 2
Fore
SplineSet
432 687 m 1
 445 589 495 434 605 332 c 1
 510 271 366 134 284 -23 c 1
 261 113 202 244 111 332 c 1
 217 399 361 549 432 687 c 1
419 616 m 1
 349 490 220 377 158 332 c 1
 176 306 281 178 296 47 c 1
 338 131 451 254 558 332 c 1
 519 376 430 506 419 616 c 1
EndSplineSet
Validated: 1
EndChar

StartChar: dottedcircle
Encoding: 9676 9676 339
Width: 630
VWidth: 1467
Flags: W
HStem: -26 62<290.746 328.657> -6 62<200.708 239.867 388.852 428.924> 47 62<133.273 171.777 479.116 518.599> 126 62<96.315 136.234 548.098 586.381> 220 62<94.8521 135.381 588.545 628.077> 314 62<136.708 175.867 589.076 627.466> 396 62<206.746 246.033 552.619 591.148> 449 62<297.131 336.967 485.893 524.232> 467 61<394.654 434.4>
VStem: 92 48<127.898 185.998 221.986 279.799> 128 48<49.3982 106.859 314.724 371.484> 196 48<-3.89062 53.9236 396.356 452.129> 286 47<-23.4534 33.952> 293 48<451.875 508.878> 385 48<-4.66238 53.4713 467.485 522.785> 474 49<50.0127 106.746> 481 47<449.885 507.708> 544 47<127.97 186.207 396.658 453.501> 585 48<224.859 281.359 315.774 372.883>
LayerCount: 2
Fore
SplineSet
91 243 m 0x1c52
 91 263 107 282 123 282 c 0
 134 282 140 273 140 261 c 0
 140 244 127 220 110 220 c 256
 98 220 91 230 91 243 c 0x1c52
180 354 m 0
 180 335 166 314 149 314 c 256
 141 314 132 318 132 334 c 0
 132 355 147 376 162 376 c 0
 173 376 180 367 180 354 c 0
250 435 m 0
 250 416 235 396 219 396 c 256
 206 396 202 404 202 414 c 0
 202 433 214 458 232 458 c 0x1e12
 244 458 250 448 250 435 c 0
341 489 m 0x1d16
 341 465 322 449 309 449 c 256
 302 449 293 453 293 469 c 0
 293 496 311 511 323 511 c 0
 334 511 341 502 341 489 c 0x1d16
438 505 m 0
 438 486 423 467 407 467 c 256
 400 467 390 470 390 485 c 0
 390 506 404 528 420 528 c 0x1c92
 432 528 438 518 438 505 c 0
528 488 m 0x1c1280
 528 465 509 447 497 447 c 256
 492 447 481 449 481 466 c 0
 481 486 492 509 510 509 c 0
 521 509 528 501 528 488 c 0x1c1280
595 435 m 0
 595 415 579 396 565 396 c 0
 554 396 548 406 548 417 c 0
 548 434 561 458 578 458 c 0x1e12
 589 458 595 448 595 435 c 0
631 353 m 0
 631 334 618 313 601 313 c 256
 596 313 584 315 584 332 c 0
 584 351 596 374 613 374 c 0
 624 374 631 366 631 353 c 0
585 242 m 0x1c1220
 585 267 602 283 614 283 c 0
 627 283 633 274 633 261 c 0
 633 238 614 222 601 222 c 256
 591 222 585 230 585 242 c 0x1c1220
544 146 m 0x1c1240
 544 168 558 188 574 188 c 0
 585 188 591 179 591 167 c 0
 591 150 578 126 561 126 c 256
 553 126 544 130 544 146 c 0x1c1240
474 66 m 0x3c13
 474 86 489 109 504 109 c 0
 515 109 523 98 523 85 c 0
 523 67 506 47 491 47 c 256
 484 47 474 51 474 66 c 0x3c13
385 18 m 0
 385 37 401 56 417 56 c 0
 427 56 433 47 433 35 c 0
 433 18 422 -6 404 -6 c 0x5c12
 392 -6 385 5 385 18 c 0
286 -6 m 0x5c1a
 286 11 298 36 316 36 c 0
 327 36 333 28 333 15 c 0
 333 -10 314 -26 302 -26 c 256x9c1a
 292 -26 286 -18 286 -6 c 0x5c1a
196 14 m 0
 196 35 211 56 226 56 c 0
 237 56 244 47 244 34 c 0
 244 15 230 -6 213 -6 c 256x5c12
 205 -6 196 -2 196 14 c 0
128 65 m 0x3c32
 128 85 142 109 158 109 c 0
 170 109 176 98 176 86 c 0
 176 68 161 47 145 47 c 256
 132 47 128 55 128 65 c 0x3c32
92 147 m 0x1c52
 92 168 107 188 122 188 c 0
 134 188 140 179 140 167 c 0
 140 145 126 126 109 126 c 256
 98 126 92 134 92 147 c 0x1c52
EndSplineSet
Validated: 1
EndChar

StartChar: uni0E10.alt1
Encoding: 63232 63232 340
Width: 591
VWidth: 1467
Flags: W
HStem: 1 21G<307 370.5> 96 24<276.913 316.452> 296 24<279.667 320.978> 550 36<302.325 583.985>
VStem: 206 44<464.262 520.455> 218 38<134.571 270.673> 342 41<100.82 283.251> 509 47<267.719 337.794>
LayerCount: 2
Fore
SplineSet
218 198 m 0xf7
 218 257 254 320 308 320 c 0
 346 320 383 275 383 202 c 0
 383 168 380 135 373 104 c 2
 362 50 l 1
 397 60 464 92 477 156 c 2
 508 299 l 1
 508 301 509 303 509 306 c 0
 509 383 206 394 206 479 c 0
 206 500 233 586 434 586 c 0
 513 586 589 574 625 565 c 1
 623 521 l 1
 575 540 472 550 413 550 c 0
 299 550 250 517 250 491 c 0xfb
 250 431 556 399 556 317 c 0
 556 315 556 312 555 310 c 1
 522 156 l 2
 515 120 494 88 476 66 c 0
 446 26 390 15 351 1 c 1
 307 1 l 1
 312 24 323 69 335 114 c 1
 314 96 299 96 290 96 c 0
 250 96 218 142 218 198 c 0xf7
303 296 m 0
 275 296 256 253 256 205 c 0xf7
 256 156 277 120 296 120 c 0
 323 120 342 176 342 216 c 0
 342 263 319 296 303 296 c 0
EndSplineSet
Validated: 1
EndChar

StartChar: uni0E48.alt2
Encoding: 63242 63242 350
Width: 0
VWidth: 1467
Flags: W
HStem: 697 176<52 55>
VStem: 14 79
LayerCount: 2
Fore
SplineSet
55 697 m 1
 14 697 l 1
 52 873 l 1
 93 873 l 1
 55 697 l 1
EndSplineSet
Validated: 1
Substitution2: "Single Substitution lookup 20 subtable" uni0E48.alt3
Substitution2: "Single Substitution lookup 21 subtable" uni0E48
Substitution2: "Single Substitution lookup 22 subtable" uni0E48.alt1
Substitution2: "Single Substitution lookup 20 subtable" uni0E48.alt3
Substitution2: "Single Substitution lookup 21 subtable" uni0E48
Substitution2: "Single Substitution lookup 22 subtable" uni0E48.alt1
EndChar

StartChar: uni0E49.alt2
Encoding: 63243 63243 351
Width: 0
VWidth: 1467
Flags: W
HStem: 668 30<-303 -233.271 -216 -105.603> 728 18<-239.987 -207.219> 872 18<-193.574 -164.844>
VStem: -265 23<746.83 811.688> -162 26<800.922 871.777>
LayerCount: 2
Fore
SplineSet
-136 843 m 0
 -136 799 -170 729 -216 698 c 1
 -206 698 l 2
 -74 698 -5 755 36 866 c 1
 81 866 l 1
 30 694 -72 668 -253 668 c 2
 -309 668 l 1
 -303 698 l 1
 -259 698 l 1
 -224 720 -225 712 -203 737 c 1
 -215 729 -220 728 -229 728 c 0
 -252 728 -265 745 -265 772 c 0
 -265 827 -212 890 -172 890 c 0
 -164 890 -136 883 -136 843 c 0
-176 872 m 0
 -200 872 -242 810 -242 766 c 0
 -242 754 -237 746 -226 746 c 0
 -200 746 -162 809 -162 848 c 0
 -162 866 -170 872 -176 872 c 0
EndSplineSet
Validated: 1
Substitution2: "Single Substitution lookup 20 subtable" uni0E49.alt3
Substitution2: "Single Substitution lookup 21 subtable" uni0E49
Substitution2: "Single Substitution lookup 22 subtable" uni0E49.alt1
Substitution2: "Single Substitution lookup 20 subtable" uni0E49.alt3
Substitution2: "Single Substitution lookup 21 subtable" uni0E49
Substitution2: "Single Substitution lookup 22 subtable" uni0E49.alt1
EndChar

